
<svg width="180" height="80" viewBox="0 0 150 30" fill="none" xmlns="http://www.w3.org/2000/svg">
<path d="M14.1 11.8989C13.1 11.8989 12.2 12.5548 11.4 13.7728C10.6 15.1782 10.2 16.6773 10.2 18.2701V28.8575H13.2V29.6071H0V28.8575H2.3V11.5242H0V10.7746H10.1V14.5224C10.4 13.3043 11.1 12.18 12.2 11.4305C13.2 10.6809 14.5 10.3061 15.7 10.3061C16.9 10.2124 18 10.5872 18.9 11.3368C19.8 12.0863 20.2 13.2107 20.1 14.335C20.2 15.3656 19.8 16.3962 19.2 17.2395C18.5 17.989 17.4 18.3638 16.4 18.2701C15.3 18.3638 14.2 17.8953 13.6 17.0521C13 16.0215 12.9 14.8034 13.4 13.7728H14.9C15.6 12.5548 15.4 11.8989 14.1 11.8989Z" fill="#FAA51A"/>
<path d="M66.5996 10.775H76.6996V14.4291C77.5996 11.7119 79.6996 10.4002 82.7996 10.4002C85.9996 10.4002 87.8996 11.8056 88.4996 14.6165C89.1996 11.993 91.7996 10.2128 94.6996 10.4002C98.7996 10.4002 100.9 12.5552 100.9 16.9588V28.8579H103.3V29.6075H91.6996V28.8579H93.1996V16.3029C93.1996 14.3354 92.9996 13.1174 92.6996 12.8363C92.4996 12.6489 92.2996 12.5552 91.9996 12.5552C91.1996 12.5552 90.4996 13.0237 89.8996 14.0543C89.1996 15.2723 88.8996 16.584 88.9996 17.9894V28.8579H90.4996V29.6075H79.5996V28.8579H81.0996V16.3029C81.0996 14.3354 80.8996 13.1174 80.5996 12.8363C80.3996 12.6489 80.1996 12.5552 79.8996 12.5552C79.0996 12.5552 78.3996 13.1174 77.7996 14.2417C77.0996 15.4597 76.7996 16.8651 76.8996 18.2705V28.8579H78.3996V29.6075H66.5996V28.8579H68.8996V11.5246H66.5996V10.775Z" fill="#FAA51A"/>
<path d="M114.3 0V13.773C115.1 11.618 117.4 10.3063 119.8 10.4C125 10.4 127.7 13.6793 127.7 20.2379C127.7 23.6109 127 26.0469 125.5 27.6397C124.1 29.2325 121.9 29.982 119 29.982C117.8 30.0757 116.7 29.7947 115.7 29.3262C114.9 28.8577 114.3 28.1082 114.1 27.2649L113.8 29.6073H104.2V28.8577H106.5V0.655857H104.2V0H114.3ZM119.1 13.773C118.8 12.8361 118.3 12.3676 117.5 12.3676C116.6 12.4613 115.7 13.0235 115.3 13.773C114.6 14.991 114.3 16.3027 114.3 17.7081V24.5478C114.3 25.5784 114.5 26.5154 115 27.4523C115.4 28.2019 116.2 28.6703 117.1 28.6703C118 28.6703 118.6 28.1082 119 26.8902C119.4 25.0163 119.6 23.0487 119.5 21.0811V19.0199C119.6 17.2397 119.5 15.4595 119.1 13.773Z" fill="#FAA51A"/>
<path d="M143.3 11.8989C142.3 11.8989 141.3 12.5548 140.6 13.7728C139.8 15.1782 139.4 16.6773 139.4 18.2701V28.8575H142.4V29.6071H129.3V28.8575H131.6V11.5242H129.3V10.7746H139.4V14.5224C139.7 13.3043 140.4 12.18 141.5 11.4305C142.5 10.6809 143.8 10.3061 145 10.3061C146.2 10.2124 147.3 10.5872 148.2 11.3368C149.1 12.0863 149.5 13.2107 149.4 14.335C149.5 15.3656 149.1 16.3962 148.5 17.2395C147.8 17.989 146.7 18.3638 145.7 18.2701C144.6 18.3638 143.5 17.8953 142.9 17.0521C142.3 16.0215 142.2 14.8034 142.7 13.7728H144.2C144.8 12.5548 144.6 11.8989 143.3 11.8989Z" fill="#FAA51A"/>
<path d="M63.1428 12.7569C61.4428 11.1641 58.8428 10.4146 55.3428 10.4146C51.8428 10.4146 49.1428 11.2578 47.2428 12.9443C45.3428 14.6308 44.3428 17.0668 44.3428 20.1587C44.3428 23.3443 45.2428 25.6867 47.0428 27.3731C48.8428 29.0596 51.4428 29.9029 55.0428 29.9029C62.1428 29.9029 65.7428 26.5299 65.7428 19.8776C65.7428 16.692 64.8428 14.3497 63.1428 12.7569ZM57.7428 21.5641C57.8428 23.5317 57.7428 25.4056 57.3428 27.2795C57.1428 28.4038 56.2428 29.1533 55.1428 29.1533C54.3428 29.247 53.6428 28.8722 53.3428 28.2164C53.1428 27.7479 52.9428 27.2795 52.7428 26.811C52.4428 25.1245 52.3428 23.3443 52.4428 21.5641V18.6596C52.3428 16.8794 52.5428 15.1929 52.8428 13.4128C52.9428 12.7569 53.2428 12.1947 53.6428 11.7263C54.0428 11.3515 54.6428 11.1641 55.1428 11.2578C56.2428 11.2578 56.9428 11.82 57.2428 13.038C57.6428 14.8182 57.7428 16.5983 57.6428 18.4722L57.7428 21.5641Z" fill="#FAA51A"/>
<path d="M32.1426 10.4146C28.6426 10.4146 25.9426 11.2578 24.0426 12.9443C22.1426 14.6308 21.1426 17.0668 21.1426 20.2524C21.1426 23.438 22.0426 25.7803 23.8426 27.4668C25.6426 29.1533 28.3426 29.9966 31.8426 29.9966C38.9426 29.9966 42.5426 26.6236 42.5426 19.9713C42.5426 16.7857 41.6426 14.3497 39.9426 12.8506C38.2426 11.3515 35.6426 10.4146 32.1426 10.4146ZM33.1426 20.4398L33.2426 26.6236H30.4426L30.5426 20.4398C28.8426 19.7839 28.0426 17.9101 28.7426 16.411C29.4426 14.8182 31.4426 14.1623 33.0426 14.8182C34.6426 15.474 35.4426 17.3479 34.7426 18.847C34.5426 19.5029 33.9426 20.1587 33.1426 20.4398Z" fill="#FAA51A"/>
</svg>
