<?xml version="1.0" encoding="UTF-8" standalone="no" ?>
<!DOCTYPE svg PUBLIC "-//W3C//DTD SVG 1.1//EN" "http://www.w3.org/Graphics/SVG/1.1/DTD/svg11.dtd">
<svg xmlns="http://www.w3.org/2000/svg" xmlns:xlink="http://www.w3.org/1999/xlink" version="1.1" width="440" height="280" viewBox="0 0 640 480" xml:space="preserve">
<desc>Created with Fabric.js 3.6.6</desc>
<defs>
</defs>
<g transform="matrix(0.56 0 0 0.56 23.08 49.21)"  >
<path style="stroke: none; stroke-width: 1; stroke-dasharray: none; stroke-linecap: butt; stroke-dashoffset: 0; stroke-linejoin: miter; stroke-miterlimit: 4; fill: rgb(50,120,102); fill-rule: nonzero; opacity: 1;"  transform=" translate(-32.66, -30)" d="M 8.93531 37 V 35.64 L 14.6353 30.14 C 15.142 29.66 15.5153 29.24 15.7553 28.88 C 16.0086 28.5067 16.1753 28.1667 16.2553 27.86 C 16.3486 27.54 16.3953 27.2333 16.3953 26.94 C 16.3953 26.22 16.142 25.6533 15.6353 25.24 C 15.1286 24.8267 14.3886 24.62 13.4153 24.62 C 12.6686 24.62 11.9953 24.7467 11.3953 25 C 10.7953 25.24 10.2753 25.62 9.83531 26.14 L 8.47531 24.96 C 9.00865 24.28 9.72198 23.76 10.6153 23.4 C 11.522 23.0267 12.5153 22.84 13.5953 22.84 C 14.5686 22.84 15.4153 23 16.1353 23.32 C 16.8553 23.6267 17.4086 24.0733 17.7953 24.66 C 18.1953 25.2467 18.3953 25.94 18.3953 26.74 C 18.3953 27.1933 18.3353 27.64 18.2153 28.08 C 18.0953 28.52 17.8686 28.9867 17.5353 29.48 C 17.202 29.9733 16.722 30.5267 16.0953 31.14 L 11.0153 36.04 L 10.5353 35.26 H 18.9953 V 37 H 8.93531 Z M 26.3402 37.16 C 25.2468 37.16 24.2668 36.88 23.4002 36.32 C 22.5468 35.76 21.8668 34.9467 21.3602 33.88 C 20.8668 32.8133 20.6202 31.52 20.6202 30 C 20.6202 28.48 20.8668 27.1867 21.3602 26.12 C 21.8668 25.0533 22.5468 24.24 23.4002 23.68 C 24.2668 23.12 25.2468 22.84 26.3402 22.84 C 27.4202 22.84 28.3935 23.12 29.2602 23.68 C 30.1268 24.24 30.8068 25.0533 31.3002 26.12 C 31.7935 27.1867 32.0402 28.48 32.0402 30 C 32.0402 31.52 31.7935 32.8133 31.3002 33.88 C 30.8068 34.9467 30.1268 35.76 29.2602 36.32 C 28.3935 36.88 27.4202 37.16 26.3402 37.16 Z M 26.3402 35.38 C 27.0735 35.38 27.7135 35.18 28.2602 34.78 C 28.8202 34.38 29.2535 33.78 29.5602 32.98 C 29.8802 32.18 30.0402 31.1867 30.0402 30 C 30.0402 28.8133 29.8802 27.82 29.5602 27.02 C 29.2535 26.22 28.8202 25.62 28.2602 25.22 C 27.7135 24.82 27.0735 24.62 26.3402 24.62 C 25.6068 24.62 24.9602 24.82 24.4002 25.22 C 23.8402 25.62 23.4002 26.22 23.0802 27.02 C 22.7735 27.82 22.6202 28.8133 22.6202 30 C 22.6202 31.1867 22.7735 32.18 23.0802 32.98 C 23.4002 33.78 23.8402 34.38 24.4002 34.78 C 24.9602 35.18 25.6068 35.38 26.3402 35.38 Z M 33.74 37 V 35.64 L 39.44 30.14 C 39.9467 29.66 40.32 29.24 40.56 28.88 C 40.8133 28.5067 40.98 28.1667 41.06 27.86 C 41.1533 27.54 41.2 27.2333 41.2 26.94 C 41.2 26.22 40.9467 25.6533 40.44 25.24 C 39.9333 24.8267 39.1933 24.62 38.22 24.62 C 37.4733 24.62 36.8 24.7467 36.2 25 C 35.6 25.24 35.08 25.62 34.64 26.14 L 33.28 24.96 C 33.8133 24.28 34.5267 23.76 35.42 23.4 C 36.3267 23.0267 37.32 22.84 38.4 22.84 C 39.3733 22.84 40.22 23 40.94 23.32 C 41.66 23.6267 42.2133 24.0733 42.6 24.66 C 43 25.2467 43.2 25.94 43.2 26.74 C 43.2 27.1933 43.14 27.64 43.02 28.08 C 42.9 28.52 42.6733 28.9867 42.34 29.48 C 42.0067 29.9733 41.5267 30.5267 40.9 31.14 L 35.82 36.04 L 35.34 35.26 H 43.8 V 37 H 33.74 Z M 51.1448 37.16 C 50.0515 37.16 49.0715 36.88 48.2048 36.32 C 47.3515 35.76 46.6715 34.9467 46.1648 33.88 C 45.6715 32.8133 45.4248 31.52 45.4248 30 C 45.4248 28.48 45.6715 27.1867 46.1648 26.12 C 46.6715 25.0533 47.3515 24.24 48.2048 23.68 C 49.0715 23.12 50.0515 22.84 51.1448 22.84 C 52.2248 22.84 53.1982 23.12 54.0648 23.68 C 54.9315 24.24 55.6115 25.0533 56.1048 26.12 C 56.5982 27.1867 56.8448 28.48 56.8448 30 C 56.8448 31.52 56.5982 32.8133 56.1048 33.88 C 55.6115 34.9467 54.9315 35.76 54.0648 36.32 C 53.1982 36.88 52.2248 37.16 51.1448 37.16 Z M 51.1448 35.38 C 51.8782 35.38 52.5182 35.18 53.0648 34.78 C 53.6248 34.38 54.0582 33.78 54.3648 32.98 C 54.6848 32.18 54.8448 31.1867 54.8448 30 C 54.8448 28.8133 54.6848 27.82 54.3648 27.02 C 54.0582 26.22 53.6248 25.62 53.0648 25.22 C 52.5182 24.82 51.8782 24.62 51.1448 24.62 C 50.4115 24.62 49.7648 24.82 49.2048 25.22 C 48.6448 25.62 48.2048 26.22 47.8848 27.02 C 47.5782 27.82 47.4248 28.8133 47.4248 30 C 47.4248 31.1867 47.5782 32.18 47.8848 32.98 C 48.2048 33.78 48.6448 34.38 49.2048 34.78 C 49.7648 35.18 50.4115 35.38 51.1448 35.38 Z" stroke-linecap="round" />
</g>
<g transform="matrix(0.56 0 0 0.56 22.6 212.73)"  >
<path style="stroke: none; stroke-width: 1; stroke-dasharray: none; stroke-linecap: butt; stroke-dashoffset: 0; stroke-linejoin: miter; stroke-miterlimit: 4; fill: rgb(135,37,143); fill-rule: nonzero; opacity: 1;"  transform=" translate(-31.8, -322)" d="M 8.85328 329 V 327.64 L 14.5533 322.14 C 15.0599 321.66 15.4333 321.24 15.6733 320.88 C 15.9266 320.507 16.0933 320.167 16.1733 319.86 C 16.2666 319.54 16.3133 319.233 16.3133 318.94 C 16.3133 318.22 16.0599 317.653 15.5533 317.24 C 15.0466 316.827 14.3066 316.62 13.3333 316.62 C 12.5866 316.62 11.9133 316.747 11.3133 317 C 10.7133 317.24 10.1933 317.62 9.75328 318.14 L 8.39328 316.96 C 8.92661 316.28 9.63995 315.76 10.5333 315.4 C 11.4399 315.027 12.4333 314.84 13.5133 314.84 C 14.4866 314.84 15.3333 315 16.0533 315.32 C 16.7733 315.627 17.3266 316.073 17.7133 316.66 C 18.1133 317.247 18.3133 317.94 18.3133 318.74 C 18.3133 319.193 18.2533 319.64 18.1333 320.08 C 18.0133 320.52 17.7866 320.987 17.4533 321.48 C 17.1199 321.973 16.6399 322.527 16.0133 323.14 L 10.9333 328.04 L 10.4533 327.26 H 18.9133 V 329 H 8.85328 Z M 26.2581 329.16 C 25.1648 329.16 24.1848 328.88 23.3181 328.32 C 22.4648 327.76 21.7848 326.947 21.2781 325.88 C 20.7848 324.813 20.5381 323.52 20.5381 322 C 20.5381 320.48 20.7848 319.187 21.2781 318.12 C 21.7848 317.053 22.4648 316.24 23.3181 315.68 C 24.1848 315.12 25.1648 314.84 26.2581 314.84 C 27.3381 314.84 28.3115 315.12 29.1781 315.68 C 30.0448 316.24 30.7248 317.053 31.2181 318.12 C 31.7115 319.187 31.9581 320.48 31.9581 322 C 31.9581 323.52 31.7115 324.813 31.2181 325.88 C 30.7248 326.947 30.0448 327.76 29.1781 328.32 C 28.3115 328.88 27.3381 329.16 26.2581 329.16 Z M 26.2581 327.38 C 26.9915 327.38 27.6315 327.18 28.1781 326.78 C 28.7381 326.38 29.1715 325.78 29.4781 324.98 C 29.7981 324.18 29.9581 323.187 29.9581 322 C 29.9581 320.813 29.7981 319.82 29.4781 319.02 C 29.1715 318.22 28.7381 317.62 28.1781 317.22 C 27.6315 316.82 26.9915 316.62 26.2581 316.62 C 25.5248 316.62 24.8781 316.82 24.3181 317.22 C 23.7581 317.62 23.3181 318.22 22.9981 319.02 C 22.6915 319.82 22.5381 320.813 22.5381 322 C 22.5381 323.187 22.6915 324.18 22.9981 324.98 C 23.3181 325.78 23.7581 326.38 24.3181 326.78 C 24.8781 327.18 25.5248 327.38 26.2581 327.38 Z M 33.658 329 V 327.64 L 39.358 322.14 C 39.8646 321.66 40.238 321.24 40.478 320.88 C 40.7313 320.507 40.898 320.167 40.978 319.86 C 41.0713 319.54 41.118 319.233 41.118 318.94 C 41.118 318.22 40.8646 317.653 40.358 317.24 C 39.8513 316.827 39.1113 316.62 38.138 316.62 C 37.3913 316.62 36.718 316.747 36.118 317 C 35.518 317.24 34.998 317.62 34.558 318.14 L 33.198 316.96 C 33.7313 316.28 34.4446 315.76 35.338 315.4 C 36.2446 315.027 37.238 314.84 38.318 314.84 C 39.2913 314.84 40.138 315 40.858 315.32 C 41.578 315.627 42.1313 316.073 42.518 316.66 C 42.918 317.247 43.118 317.94 43.118 318.74 C 43.118 319.193 43.058 319.64 42.938 320.08 C 42.818 320.52 42.5913 320.987 42.258 321.48 C 41.9246 321.973 41.4446 322.527 40.818 323.14 L 35.738 328.04 L 35.258 327.26 H 43.718 V 329 H 33.658 Z M 45.1423 329 V 327.64 L 50.8423 322.14 C 51.349 321.66 51.7223 321.24 51.9623 320.88 C 52.2157 320.507 52.3823 320.167 52.4623 319.86 C 52.5557 319.54 52.6023 319.233 52.6023 318.94 C 52.6023 318.22 52.349 317.653 51.8423 317.24 C 51.3357 316.827 50.5957 316.62 49.6223 316.62 C 48.8757 316.62 48.2023 316.747 47.6023 317 C 47.0023 317.24 46.4823 317.62 46.0423 318.14 L 44.6823 316.96 C 45.2157 316.28 45.929 315.76 46.8223 315.4 C 47.729 315.027 48.7223 314.84 49.8023 314.84 C 50.7757 314.84 51.6223 315 52.3423 315.32 C 53.0623 315.627 53.6157 316.073 54.0023 316.66 C 54.4023 317.247 54.6023 317.94 54.6023 318.74 C 54.6023 319.193 54.5423 319.64 54.4223 320.08 C 54.3023 320.52 54.0757 320.987 53.7423 321.48 C 53.409 321.973 52.929 322.527 52.3023 323.14 L 47.2223 328.04 L 46.7423 327.26 H 55.2023 V 329 H 45.1423 Z" stroke-linecap="round" />
</g>
<g transform="matrix(0.56 0 0 0.56 23.28 376.25)"  >
<path style="stroke: none; stroke-width: 1; stroke-dasharray: none; stroke-linecap: butt; stroke-dashoffset: 0; stroke-linejoin: miter; stroke-miterlimit: 4; fill: rgb(232,211,39); fill-rule: nonzero; opacity: 1;"  transform=" translate(-33.02, -614)" d="M 9.10133 621 V 619.64 L 14.8013 614.14 C 15.308 613.66 15.6813 613.24 15.9213 612.88 C 16.1747 612.507 16.3413 612.167 16.4213 611.86 C 16.5147 611.54 16.5613 611.233 16.5613 610.94 C 16.5613 610.22 16.308 609.653 15.8013 609.24 C 15.2947 608.827 14.5547 608.62 13.5813 608.62 C 12.8347 608.62 12.1613 608.747 11.5613 609 C 10.9613 609.24 10.4413 609.62 10.0013 610.14 L 8.64133 608.96 C 9.17466 608.28 9.88799 607.76 10.7813 607.4 C 11.688 607.027 12.6813 606.84 13.7613 606.84 C 14.7347 606.84 15.5813 607 16.3013 607.32 C 17.0213 607.627 17.5747 608.073 17.9613 608.66 C 18.3613 609.247 18.5613 609.94 18.5613 610.74 C 18.5613 611.193 18.5013 611.64 18.3813 612.08 C 18.2613 612.52 18.0347 612.987 17.7013 613.48 C 17.368 613.973 16.888 614.527 16.2613 615.14 L 11.1813 620.04 L 10.7013 619.26 H 19.1613 V 621 H 9.10133 Z M 26.5062 621.16 C 25.4128 621.16 24.4328 620.88 23.5662 620.32 C 22.7128 619.76 22.0328 618.947 21.5262 617.88 C 21.0328 616.813 20.7862 615.52 20.7862 614 C 20.7862 612.48 21.0328 611.187 21.5262 610.12 C 22.0328 609.053 22.7128 608.24 23.5662 607.68 C 24.4328 607.12 25.4128 606.84 26.5062 606.84 C 27.5862 606.84 28.5595 607.12 29.4262 607.68 C 30.2928 608.24 30.9728 609.053 31.4662 610.12 C 31.9595 611.187 32.2062 612.48 32.2062 614 C 32.2062 615.52 31.9595 616.813 31.4662 617.88 C 30.9728 618.947 30.2928 619.76 29.4262 620.32 C 28.5595 620.88 27.5862 621.16 26.5062 621.16 Z M 26.5062 619.38 C 27.2395 619.38 27.8795 619.18 28.4262 618.78 C 28.9862 618.38 29.4195 617.78 29.7262 616.98 C 30.0462 616.18 30.2062 615.187 30.2062 614 C 30.2062 612.813 30.0462 611.82 29.7262 611.02 C 29.4195 610.22 28.9862 609.62 28.4262 609.22 C 27.8795 608.82 27.2395 608.62 26.5062 608.62 C 25.7728 608.62 25.1262 608.82 24.5662 609.22 C 24.0062 609.62 23.5662 610.22 23.2462 611.02 C 22.9395 611.82 22.7862 612.813 22.7862 614 C 22.7862 615.187 22.9395 616.18 23.2462 616.98 C 23.5662 617.78 24.0062 618.38 24.5662 618.78 C 25.1262 619.18 25.7728 619.38 26.5062 619.38 Z M 33.906 621 V 619.64 L 39.606 614.14 C 40.1127 613.66 40.486 613.24 40.726 612.88 C 40.9793 612.507 41.146 612.167 41.226 611.86 C 41.3193 611.54 41.366 611.233 41.366 610.94 C 41.366 610.22 41.1127 609.653 40.606 609.24 C 40.0993 608.827 39.3593 608.62 38.386 608.62 C 37.6393 608.62 36.966 608.747 36.366 609 C 35.766 609.24 35.246 609.62 34.806 610.14 L 33.446 608.96 C 33.9793 608.28 34.6927 607.76 35.586 607.4 C 36.4927 607.027 37.486 606.84 38.566 606.84 C 39.5393 606.84 40.386 607 41.106 607.32 C 41.826 607.627 42.3793 608.073 42.766 608.66 C 43.166 609.247 43.366 609.94 43.366 610.74 C 43.366 611.193 43.306 611.64 43.186 612.08 C 43.066 612.52 42.8393 612.987 42.506 613.48 C 42.1727 613.973 41.6927 614.527 41.066 615.14 L 35.986 620.04 L 35.506 619.26 H 43.966 V 621 H 33.906 Z M 45.0198 617.56 V 616.16 L 52.1798 607 H 54.3398 L 47.2398 616.16 L 46.2198 615.84 H 57.3998 V 617.56 H 45.0198 Z M 52.7998 621 V 617.56 L 52.8598 615.84 V 612.8 H 54.7398 V 621 H 52.7998 Z" stroke-linecap="round" />
</g>
<g transform="matrix(0.56 0 0 0.56 96.26 170.54)"  >
<path style="stroke: none; stroke-width: 1; stroke-dasharray: none; stroke-linecap: butt; stroke-dashoffset: 0; stroke-linejoin: miter; stroke-miterlimit: 4; fill: rgb(135,37,143); fill-rule: nonzero; opacity: 1;"  transform=" translate(-163.33, -246.67)" d="M 252.669 167.745 C 253.081 167.376 253.115 166.744 252.747 166.333 C 252.378 165.921 251.746 165.887 251.335 166.255 L 252.669 167.745 Z M 82.9722 318.441 C 81.0067 316.247 77.6349 316.062 75.4411 318.028 C 73.2473 319.993 73.0622 323.365 75.0277 325.559 C 76.9933 327.753 80.3651 327.938 82.5589 325.972 C 84.7527 324.007 84.9377 320.635 82.9722 318.441 Z M 251.335 166.255 L 78.3327 321.255 L 79.6673 322.745 L 252.669 167.745 L 251.335 166.255 Z" stroke-linecap="round" />
</g>
<g transform="matrix(0.56 0 0 0.56 89.07 333.33)"  >
<path style="stroke: none; stroke-width: 1; stroke-dasharray: none; stroke-linecap: butt; stroke-dashoffset: 0; stroke-linejoin: miter; stroke-miterlimit: 4; fill: rgb(232,211,39); fill-rule: nonzero; opacity: 1;"  transform=" translate(-150.49, -537.36)" d="M 74.6347 613.22 C 76.4933 615.078 79.5067 615.078 81.3653 613.22 C 83.2238 611.361 83.2238 608.348 81.3653 606.489 C 79.5067 604.631 76.4933 604.631 74.6347 606.489 C 72.7762 608.348 72.7762 611.361 74.6347 613.22 Z M 227.485 461.631 C 227.834 461.283 227.834 460.718 227.485 460.369 C 227.137 460.021 226.572 460.021 226.223 460.369 L 227.485 461.631 Z M 78.631 610.485 L 227.485 461.631 L 226.223 460.369 L 77.369 609.224 L 78.631 610.485 Z" stroke-linecap="round" />
</g>
<g transform="matrix(0.56 0 0 0.56 392.22 351.08)"  >
<linearGradient id="SVGID_paint0_linear_928_11932_5" gradientUnits="userSpaceOnUse" gradientTransform="matrix(1 0 0 1 0 0)"  x1="714.046" y1="678.879" x2="842.704" y2="538.921">
<stop offset="0%" style="stop-color:rgb(231,121,35);stop-opacity: 1"/>
<stop offset="46.5%" style="stop-color:rgb(236,164,28);stop-opacity: 1"/>
<stop offset="100%" style="stop-color:rgb(231,121,35);stop-opacity: 1"/>
</linearGradient>
<path style="stroke: none; stroke-width: 1; stroke-dasharray: none; stroke-linecap: butt; stroke-dashoffset: 0; stroke-linejoin: miter; stroke-miterlimit: 4; fill: url(#SVGID_paint0_linear_928_11932_5); fill-rule: nonzero; opacity: 1;"  transform=" translate(-691.85, -569.06)" d="M 760.669 464.356 C 761.348 464.513 761.679 465.593 761.407 466.77 L 706.761 703.467 C 706.323 705.364 704.779 706.009 704.314 704.488 L 622.303 436.241 C 621.838 434.721 622.917 432.553 624.012 432.806 L 760.669 464.356 Z" stroke-linecap="round" />
</g>
<g transform="matrix(0.56 0 0 0.56 255.49 68.69)"  >
<path style="stroke: none; stroke-width: 1; stroke-dasharray: none; stroke-linecap: butt; stroke-dashoffset: 0; stroke-linejoin: miter; stroke-miterlimit: 4; fill: rgb(38,90,77); fill-rule: nonzero; opacity: 1;"  transform=" translate(-447.68, -64.78)" d="M 387.896 108.058 L 387.955 87.0513 C 387.966 83.5704 388.742 80.0473 390.374 76.5747 C 394.382 67.4457 403.431 58.7826 415.126 51.3744 C 438.744 36.4232 472.074 26.3733 507.471 21.5 L 507.412 42.5064 C 472.015 47.3797 438.686 57.4296 415.067 72.3808 C 403.372 79.789 394.323 88.4521 390.316 97.5812 C 388.683 101.054 387.908 104.577 387.896 108.058 Z" stroke-linecap="round" />
</g>
<g transform="matrix(0.56 0 0 0.56 208.77 91.67)"  >
<path style="stroke: none; stroke-width: 1; stroke-dasharray: none; stroke-linecap: butt; stroke-dashoffset: 0; stroke-linejoin: miter; stroke-miterlimit: 4; fill: rgb(46,109,92); fill-rule: nonzero; opacity: 1;"  transform=" translate(-364.25, -105.83)" d="M 363.803 113.115 L 363.881 91.9951 C 363.874 94.1769 364.221 96.3671 364.695 98.5376 L 364.617 119.658 C 364.143 117.487 363.795 115.297 363.803 113.115 Z" stroke-linecap="round" />
</g>
<g transform="matrix(0.56 0 0 0.56 283.48 112.16)"  >
<linearGradient id="SVGID_paint1_linear_928_11932_6" gradientUnits="userSpaceOnUse" gradientTransform="matrix(1 0 0 1 0 0)"  x1="612.186" y1="170.995" x2="366.446" y2="111.925">
<stop offset="0%" style="stop-color:rgb(55,166,200);stop-opacity: 1"/>
<stop offset="100%" style="stop-color:rgb(45,108,92);stop-opacity: 1"/>
</linearGradient>
<path style="stroke: none; stroke-width: 1; stroke-dasharray: none; stroke-linecap: butt; stroke-dashoffset: 0; stroke-linejoin: miter; stroke-miterlimit: 4; fill: url(#SVGID_paint1_linear_928_11932_6); fill-rule: nonzero; opacity: 1;"  transform=" translate(-497.65, -142.41)" d="M 630.615 165.585 L 630.556 186.584 C 611.441 184.19 591.776 182.54 572.002 181.524 C 563.38 181.086 554.726 180.803 546.105 180.612 C 536.603 180.421 527.065 180.174 517.466 179.72 C 498.295 178.808 478.94 177.374 459.4 174.545 C 440.023 171.677 419.983 167.482 402.291 159.627 C 398.954 158.148 395.751 156.523 392.733 154.772 C 387.846 151.938 383.447 148.781 379.764 145.391 C 373.856 139.902 369.742 133.959 367.356 128.052 C 366.081 125.099 365.363 122.164 364.695 119.24 L 364.754 98.2412 C 365.425 101.165 366.143 104.101 367.414 107.053 C 369.798 112.96 373.912 118.903 379.822 124.392 C 383.506 127.779 387.904 130.939 392.792 133.773 C 395.81 135.522 399.013 137.149 402.349 138.628 C 420.042 146.48 440.079 150.678 459.459 153.546 C 479.001 156.375 498.354 157.809 517.524 158.721 C 527.127 159.175 536.662 159.422 546.163 159.613 C 554.784 159.804 563.439 160.087 572.06 160.525 C 591.835 161.538 611.5 163.191 630.615 165.585 Z" stroke-linecap="round" />
</g>
<g transform="matrix(0.56 0 0 0.56 386.92 124.15)"  >
<path style="stroke: none; stroke-width: 1; stroke-dasharray: none; stroke-linecap: butt; stroke-dashoffset: 0; stroke-linejoin: miter; stroke-miterlimit: 4; fill: rgb(241,159,31); fill-rule: nonzero; opacity: 1;"  transform=" translate(-682.37, -163.83)" d="M 734.128 140.182 L 734.069 161.322 L 630.615 187.476 L 630.677 166.339 L 734.128 140.182 Z" stroke-linecap="round" />
</g>
<g transform="matrix(0.56 0 0 0.56 312.21 84.93)"  >
<linearGradient id="SVGID_paint2_linear_928_11932_7" gradientUnits="userSpaceOnUse" gradientTransform="matrix(1 0 0 1 0 0)"  x1="489.852" y1="22.614" x2="685.139" y2="156.58">
<stop offset="0%" style="stop-color:rgb(49,119,101);stop-opacity: 1"/>
<stop offset="100%" style="stop-color:rgb(89,181,210);stop-opacity: 1"/>
</linearGradient>
<path style="stroke: none; stroke-width: 1; stroke-dasharray: none; stroke-linecap: butt; stroke-dashoffset: 0; stroke-linejoin: miter; stroke-miterlimit: 4; fill: url(#SVGID_paint2_linear_928_11932_7); fill-rule: nonzero; opacity: 1;"  transform=" translate(-548.96, -93.78)" d="M 734.127 140.198 L 630.583 166.06 C 611.446 163.677 591.757 162.035 571.96 161.024 C 563.329 160.588 554.664 160.306 546.033 160.116 C 536.52 159.926 526.971 159.68 517.361 159.227 C 498.168 158.32 478.79 156.892 459.228 154.076 C 439.828 151.221 419.765 147.045 402.052 139.226 C 398.711 137.754 395.505 136.136 392.483 134.393 C 387.59 131.572 383.186 128.429 379.498 125.055 C 373.584 119.591 369.465 113.674 367.076 107.794 C 365.8 104.855 365.081 101.933 364.413 99.0222 C 363.906 95.9605 363.593 92.8597 363.968 89.7953 C 364.539 83.6608 366.989 77.705 370.881 72.241 C 378.631 61.2765 391.56 52.315 406.212 45.1972 C 435.813 30.9811 472.4 23.6733 508.704 21.5 C 473.214 26.3495 439.797 36.3502 416.116 51.2284 C 404.391 58.6004 395.317 67.2211 391.3 76.3055 C 389.168 80.8058 388.491 85.3899 389.073 89.8511 C 389.313 92.0636 390.077 94.2173 390.955 96.3823 C 391.999 98.659 393.107 100.938 394.59 103.017 C 398.107 108.327 403.042 112.819 409.323 116.44 C 413.173 118.66 417.526 120.552 422.369 122.102 C 435.01 126.298 450.714 128.454 467.081 129.521 C 483.496 130.58 500.691 130.58 518.029 130.061 C 526.691 129.815 535.398 129.351 544.175 128.887 C 553.749 128.415 563.39 128.055 573.018 127.837 C 611.586 127.08 650.509 128.396 689.91 133.072 C 704.596 134.857 719.352 137.109 734.127 140.198 Z" stroke-linecap="round" />
</g>
<g transform="matrix(0.56 0 0 0.56 392.66 143.89)"  >
<path style="stroke: none; stroke-width: 1; stroke-dasharray: none; stroke-linecap: butt; stroke-dashoffset: 0; stroke-linejoin: miter; stroke-miterlimit: 4; fill: rgb(53,40,103); fill-rule: nonzero; opacity: 1;"  transform=" translate(-692.63, -199.08)" d="M 754.652 211.197 L 754.593 232.094 C 754.59 231.488 754.456 230.921 754.322 230.338 C 754.07 229.196 753.605 228.023 752.928 226.861 C 751.574 224.498 749.272 221.985 745.941 219.405 C 744.106 217.978 741.938 216.551 739.493 215.14 C 733.076 211.443 724.734 207.86 715.383 204.693 C 702.383 200.289 687.555 196.567 671.948 193.487 C 658.633 190.898 644.761 188.725 630.615 186.958 L 630.674 166.061 C 644.82 167.828 658.689 170.001 672.007 172.59 C 687.614 175.67 702.442 179.392 715.441 183.796 C 724.793 186.963 733.137 190.546 739.552 194.243 C 741.999 195.654 744.164 197.081 745.999 198.508 C 749.331 201.088 751.633 203.601 752.987 205.964 C 753.664 207.126 754.128 208.299 754.38 209.441 C 754.515 210.024 754.649 210.591 754.652 211.197 Z" stroke-linecap="round" />
</g>
<g transform="matrix(0.56 0 0 0.56 427.51 157.38)"  >
<path style="stroke: none; stroke-width: 1; stroke-dasharray: none; stroke-linecap: butt; stroke-dashoffset: 0; stroke-linejoin: miter; stroke-miterlimit: 4; fill: rgb(53,40,103); fill-rule: nonzero; opacity: 1;"  transform=" translate(-754.85, -223.17)" d="M 755.055 214.176 L 754.994 234.77 L 754.652 232.164 L 754.711 211.569 L 755.055 214.176 Z" stroke-linecap="round" />
</g>
<g transform="matrix(0.56 0 0 0.56 427.47 159.38)"  >
<path style="stroke: none; stroke-width: 1; stroke-dasharray: none; stroke-linecap: butt; stroke-dashoffset: 0; stroke-linejoin: miter; stroke-miterlimit: 4; fill: rgb(53,40,103); fill-rule: nonzero; opacity: 1;"  transform=" translate(-754.79, -226.74)" d="M 754.935 218.384 L 754.876 239.233 C 754.879 237.893 754.806 236.514 754.652 235.095 L 754.711 214.247 C 754.865 215.662 754.941 217.044 754.935 218.384 Z" stroke-linecap="round" />
</g>
<g transform="matrix(0.56 0 0 0.56 398.16 201.61)"  >
<path style="stroke: none; stroke-width: 1; stroke-dasharray: none; stroke-linecap: butt; stroke-dashoffset: 0; stroke-linejoin: miter; stroke-miterlimit: 4; fill: rgb(197,74,164); fill-rule: nonzero; opacity: 1;"  transform=" translate(-702.45, -302.14)" d="M 751.082 315.533 L 751.024 336.499 L 653.816 288.754 L 653.878 267.788 L 751.082 315.533 Z" stroke-linecap="round" />
</g>
<g transform="matrix(0.56 0 0 0.56 452.38 189.87)"  >
<linearGradient id="SVGID_paint3_linear_928_11932_8" gradientUnits="userSpaceOnUse" gradientTransform="matrix(1 0 0 1 0 0)"  x1="752.901" y1="318.665" x2="855.351" y2="238.66">
<stop offset="0%" style="stop-color:rgb(116,31,122);stop-opacity: 1"/>
<stop offset="100%" style="stop-color:rgb(69,31,96);stop-opacity: 1"/>
</linearGradient>
<path style="stroke: none; stroke-width: 1; stroke-dasharray: none; stroke-linecap: butt; stroke-dashoffset: 0; stroke-linejoin: miter; stroke-miterlimit: 4; fill: url(#SVGID_paint3_linear_928_11932_8); fill-rule: nonzero; opacity: 1;"  transform=" translate(-799.27, -281.17)" d="M 847.456 226.739 L 847.397 247.759 C 847.377 254.753 846.119 262.003 843.102 269.329 C 837.057 284.517 823.02 298.926 806.075 309.772 C 797.597 315.246 788.541 320.047 779.321 324.333 C 770.05 328.516 760.584 332.3 751.082 335.606 L 751.141 314.586 C 760.643 311.277 770.109 307.497 779.38 303.314 C 788.6 299.028 797.653 294.227 806.134 288.752 C 823.076 277.907 837.116 263.497 843.161 248.309 C 846.177 240.983 847.436 233.736 847.456 226.739 Z" stroke-linecap="round" />
</g>
<g transform="matrix(0.56 0 0 0.56 418.9 160.13)"  >
<linearGradient id="SVGID_paint4_linear_928_11932_9" gradientUnits="userSpaceOnUse" gradientTransform="matrix(1 0 0 1 0 0)"  x1="739.482" y1="140.182" x2="739.482" y2="315.974">
<stop offset="6%" style="stop-color:rgb(51,40,102);stop-opacity: 1"/>
<stop offset="100%" style="stop-color:rgb(144,36,147);stop-opacity: 1"/>
</linearGradient>
<path style="stroke: none; stroke-width: 1; stroke-dasharray: none; stroke-linecap: butt; stroke-dashoffset: 0; stroke-linejoin: miter; stroke-miterlimit: 4; fill: url(#SVGID_paint4_linear_928_11932_9); fill-rule: nonzero; opacity: 1;"  transform=" translate(-739.48, -228.08)" d="M 807.614 165.661 C 816.759 170.955 825.106 177.152 831.67 184.316 C 834.959 187.903 837.755 191.736 839.984 195.692 C 841.106 197.666 842.048 199.668 842.862 201.69 L 843.458 203.207 L 843.905 204.432 L 844.752 206.871 C 849.006 219.795 850.315 234.642 844.045 249.814 C 837.987 264.975 823.921 279.36 806.94 290.186 C 798.444 295.651 789.369 300.443 780.129 304.722 C 770.841 308.897 761.353 312.674 751.83 315.974 L 654.322 268.192 C 670.399 265.772 685.644 262.87 699.313 259.376 C 705.936 257.705 711.906 255.865 717.597 253.995 C 723.076 252.06 728.065 250.047 732.366 247.961 C 741.019 243.738 746.564 239.515 750.342 234.233 C 754.104 228.975 755.765 222.145 754.901 214.117 L 754.56 211.462 C 754.557 210.853 754.423 210.284 754.288 209.698 C 754.037 208.551 753.572 207.373 752.896 206.207 C 751.542 203.835 749.241 201.311 745.91 198.72 C 744.075 197.287 741.908 195.855 739.464 194.439 C 733.048 190.726 724.709 187.129 715.36 183.949 C 702.364 179.527 687.54 175.789 671.938 172.697 C 658.626 170.097 644.758 167.916 630.615 166.141 L 734.114 140.182 C 739.167 141.216 744.271 142.374 749.375 143.645 C 769.141 148.61 789.321 155.225 807.614 165.661 Z" stroke-linecap="round" />
</g>
<g transform="matrix(0.56 0 0 0.56 385.42 223.6)"  >
<linearGradient id="SVGID_paint5_linear_928_11932_10" gradientUnits="userSpaceOnUse" gradientTransform="matrix(1 0 0 1 0 0)"  x1="752.97" y1="326.44" x2="608.424" y2="357.029">
<stop offset="0%" style="stop-color:rgb(174,56,142);stop-opacity: 1"/>
<stop offset="100%" style="stop-color:rgb(197,58,101);stop-opacity: 1"/>
</linearGradient>
<path style="stroke: none; stroke-width: 1; stroke-dasharray: none; stroke-linecap: butt; stroke-dashoffset: 0; stroke-linejoin: miter; stroke-miterlimit: 4; fill: url(#SVGID_paint5_linear_928_11932_10); fill-rule: nonzero; opacity: 1;"  transform=" translate(-679.69, -341.41)" d="M 751.082 315.082 L 751.023 335.852 C 732.127 342.389 713.076 347.396 694.134 351.809 C 674.966 356.242 655.873 359.914 636.811 363.176 C 627.287 364.799 617.814 366.304 608.307 367.731 L 608.365 346.96 C 617.873 345.534 627.346 344.029 636.87 342.406 C 655.932 339.147 675.025 335.475 694.193 331.039 C 713.135 326.626 732.188 321.619 751.082 315.082 Z" stroke-linecap="round" />
</g>
<g transform="matrix(0.56 0 0 0.56 341.94 233.34)"  >
<path style="stroke: none; stroke-width: 1; stroke-dasharray: none; stroke-linecap: butt; stroke-dashoffset: 0; stroke-linejoin: miter; stroke-miterlimit: 4; fill: rgb(197,59,102); fill-rule: nonzero; opacity: 1;"  transform=" translate(-602.06, -358.81)" d="M 608.307 347.207 L 608.247 368.379 L 595.814 370.408 L 595.877 349.236 L 608.307 347.207 Z" stroke-linecap="round" />
</g>
<g transform="matrix(0.56 0 0 0.56 297.97 219.35)"  >
<linearGradient id="SVGID_paint6_linear_928_11932_11" gradientUnits="userSpaceOnUse" gradientTransform="matrix(1 0 0 1 0 0)"  x1="672.662" y1="281.144" x2="375.499" y2="386.826">
<stop offset="0%" style="stop-color:rgb(197,74,164);stop-opacity: 1"/>
<stop offset="100%" style="stop-color:rgb(217,80,30);stop-opacity: 1"/>
</linearGradient>
<path style="stroke: none; stroke-width: 1; stroke-dasharray: none; stroke-linecap: butt; stroke-dashoffset: 0; stroke-linejoin: miter; stroke-miterlimit: 4; fill: url(#SVGID_paint6_linear_928_11932_11); fill-rule: nonzero; opacity: 1;"  transform=" translate(-523.53, -333.82)" d="M 751.082 315.672 C 732.198 322.263 713.161 327.311 694.233 331.761 C 675.078 336.23 655.999 339.932 636.95 343.22 C 627.436 344.857 617.966 346.374 608.465 347.813 L 596.322 349.819 C 592.373 350.463 588.505 351.193 584.651 351.893 C 569.211 354.772 554.312 358.019 540.298 361.685 C 512.222 368.966 487.504 378.19 470.276 388.399 C 463.78 392.14 458.538 396.002 454.363 399.856 L 295.984 374.034 C 302.573 366.288 310.36 358.987 318.915 352.282 C 334.792 339.971 353.163 329.556 372.475 321.118 C 411.215 304.14 452.559 293.856 492.955 286.745 C 513.212 283.213 533.39 280.504 553.409 278.383 C 558.421 277.843 563.452 277.314 568.416 276.897 L 583.049 275.61 C 591.442 274.946 599.77 274.227 608.035 273.433 C 623.761 271.888 639.336 270.032 654.142 267.788 L 751.082 315.672 Z" stroke-linecap="round" />
</g>
<g transform="matrix(0.56 0 0 0.56 298.72 248.33)"  >
<linearGradient id="SVGID_paint7_linear_928_11932_12" gradientUnits="userSpaceOnUse" gradientTransform="matrix(1 0 0 1 0 0)"  x1="456.806" y1="404.283" x2="602.757" y2="357.317">
<stop offset="0%" style="stop-color:rgb(169,63,31);stop-opacity: 1"/>
<stop offset="100%" style="stop-color:rgb(198,57,105);stop-opacity: 1"/>
</linearGradient>
<path style="stroke: none; stroke-width: 1; stroke-dasharray: none; stroke-linecap: butt; stroke-dashoffset: 0; stroke-linejoin: miter; stroke-miterlimit: 4; fill: url(#SVGID_paint7_linear_928_11932_12); fill-rule: nonzero; opacity: 1;"  transform=" translate(-524.87, -385.58)" d="M 595.815 349.884 L 595.756 370.946 C 591.811 371.593 587.947 372.328 584.096 373.031 C 568.67 375.928 553.786 379.193 539.787 382.88 C 511.737 390.204 487.042 399.481 469.83 409.748 C 463.339 413.512 458.103 417.396 453.932 421.272 L 453.99 400.21 C 458.165 396.334 463.398 392.447 469.889 388.686 C 487.101 378.419 511.795 369.142 539.846 361.818 C 553.847 358.131 568.731 354.866 584.158 351.969 C 588.003 351.266 591.867 350.531 595.815 349.884 Z" stroke-linecap="round" />
</g>
<g transform="matrix(0.56 0 0 0.56 215.02 255.33)"  >
<path style="stroke: none; stroke-width: 1; stroke-dasharray: none; stroke-linecap: butt; stroke-dashoffset: 0; stroke-linejoin: miter; stroke-miterlimit: 4; fill: rgb(254,251,245); fill-rule: nonzero; opacity: 1;"  transform=" translate(-375.4, -398.07)" d="M 454.822 400.493 L 454.763 421.271 L 295.984 395.647 L 296.046 374.869 L 454.822 400.493 Z" stroke-linecap="round" />
</g>
<g transform="matrix(0.56 0 0 0.56 255.99 267.57)"  >
<path style="stroke: none; stroke-width: 1; stroke-dasharray: none; stroke-linecap: butt; stroke-dashoffset: 0; stroke-linejoin: miter; stroke-miterlimit: 4; fill: rgb(241,159,31); fill-rule: nonzero; opacity: 1;"  transform=" translate(-448.58, -419.93)" d="M 454.823 399.855 L 454.763 420.772 C 453.265 422.125 451.916 423.466 450.667 424.83 C 446.047 430.004 443.279 434.988 442.33 440.011 L 442.39 419.095 C 443.339 414.072 446.106 409.088 450.727 403.914 C 451.976 402.55 453.324 401.206 454.823 399.855 Z" stroke-linecap="round" />
</g>
<g transform="matrix(0.56 0 0 0.56 252.25 274.32)"  >
<path style="stroke: none; stroke-width: 1; stroke-dasharray: none; stroke-linecap: butt; stroke-dashoffset: 0; stroke-linejoin: miter; stroke-miterlimit: 4; fill: rgb(241,159,31); fill-rule: nonzero; opacity: 1;"  transform=" translate(-441.88, -431.98)" d="M 442.33 419.486 L 442.248 440.685 C 441.647 441.922 441.767 443.214 441.438 444.472 L 441.519 423.274 C 441.849 422.019 441.725 420.724 442.33 419.486 Z" stroke-linecap="round" />
</g>
<g transform="matrix(0.56 0 0 0.56 252.02 276.07)"  >
<path style="stroke: none; stroke-width: 1; stroke-dasharray: none; stroke-linecap: butt; stroke-dashoffset: 0; stroke-linejoin: miter; stroke-miterlimit: 4; fill: rgb(241,159,31); fill-rule: nonzero; opacity: 1;"  transform=" translate(-441.48, -435.1)" d="M 441.527 423.948 L 441.468 444.678 C 441.465 445.207 441.44 445.731 441.438 446.257 L 441.496 425.527 C 441.499 424.998 441.527 424.475 441.527 423.948 Z" stroke-linecap="round" />
</g>
<g transform="matrix(0.56 0 0 0.56 156.61 284.31)"  >
<path style="stroke: none; stroke-width: 1; stroke-dasharray: none; stroke-linecap: butt; stroke-dashoffset: 0; stroke-linejoin: miter; stroke-miterlimit: 4; fill: rgb(241,159,31); fill-rule: nonzero; opacity: 1;"  transform=" translate(-271.11, -449.83)" d="M 271 457.377 L 271.059 436.44 C 271.054 438.393 271.11 440.338 271.221 442.274 L 271.163 463.211 C 271.051 461.278 270.995 459.333 271 457.377 Z" stroke-linecap="round" />
</g>
<g transform="matrix(0.56 0 0 0.56 156.8 287.81)"  >
<path style="stroke: none; stroke-width: 1; stroke-dasharray: none; stroke-linecap: butt; stroke-dashoffset: 0; stroke-linejoin: miter; stroke-miterlimit: 4; fill: rgb(241,159,31); fill-rule: nonzero; opacity: 1;"  transform=" translate(-271.45, -456.07)" d="M 271.892 448.55 L 271.793 469.458 L 271 463.596 L 271.095 442.688 L 271.892 448.55 Z" stroke-linecap="round" />
</g>
<g transform="matrix(0.56 0 0 0.56 157.3 290.81)"  >
<path style="stroke: none; stroke-width: 1; stroke-dasharray: none; stroke-linecap: butt; stroke-dashoffset: 0; stroke-linejoin: miter; stroke-miterlimit: 4; fill: rgb(241,159,31); fill-rule: nonzero; opacity: 1;"  transform=" translate(-272.34, -461.43)" d="M 272.785 453.835 L 272.734 474.811 L 271.893 469.017 L 271.946 448.041 L 272.785 453.835 Z" stroke-linecap="round" />
</g>
<g transform="matrix(0.56 0 0 0.56 157.8 293.56)"  >
<path style="stroke: none; stroke-width: 1; stroke-dasharray: none; stroke-linecap: butt; stroke-dashoffset: 0; stroke-linejoin: miter; stroke-miterlimit: 4; fill: rgb(241,159,31); fill-rule: nonzero; opacity: 1;"  transform=" translate(-273.23, -466.33)" d="M 273.676 457.243 L 273.585 478.381 L 272.783 475.427 L 272.873 454.288 L 273.676 457.243 Z" stroke-linecap="round" />
</g>
<g transform="matrix(0.56 0 0 0.56 158.3 295.06)"  >
<path style="stroke: none; stroke-width: 1; stroke-dasharray: none; stroke-linecap: butt; stroke-dashoffset: 0; stroke-linejoin: miter; stroke-miterlimit: 4; fill: rgb(241,159,31); fill-rule: nonzero; opacity: 1;"  transform=" translate(-274.12, -469.01)" d="M 274.568 460.143 L 274.507 481.058 L 273.676 477.88 L 273.737 456.965 L 274.568 460.143 Z" stroke-linecap="round" />
</g>
<g transform="matrix(0.56 0 0 0.56 159.05 297.56)"  >
<path style="stroke: none; stroke-width: 1; stroke-dasharray: none; stroke-linecap: butt; stroke-dashoffset: 0; stroke-linejoin: miter; stroke-miterlimit: 4; fill: rgb(241,159,31); fill-rule: nonzero; opacity: 1;"  transform=" translate(-275.46, -473.47)" d="M 276.353 466.105 L 276.301 487.305 C 275.684 485.158 275.069 483.01 274.568 480.843 L 274.62 459.643 C 275.121 461.81 275.736 463.957 276.353 466.105 Z" stroke-linecap="round" />
</g>
<g transform="matrix(0.56 0 0 0.56 270.24 304.55)"  >
<linearGradient id="SVGID_paint8_linear_928_11932_13" gradientUnits="userSpaceOnUse" gradientTransform="matrix(1 0 0 1 0 0)"  x1="646.166" y1="527.54" x2="343.584" y2="387.071">
<stop offset="0%" style="stop-color:rgb(237,189,31);stop-opacity: 1"/>
<stop offset="100%" style="stop-color:rgb(227,158,29);stop-opacity: 1"/>
</linearGradient>
<path style="stroke: none; stroke-width: 1; stroke-dasharray: none; stroke-linecap: butt; stroke-dashoffset: 0; stroke-linejoin: miter; stroke-miterlimit: 4; fill: url(#SVGID_paint8_linear_928_11932_13); fill-rule: nonzero; opacity: 1;"  transform=" translate(-474.01, -485.97)" d="M 639.685 468.762 L 677.018 596.091 C 630.273 599.179 582.591 598.535 535.407 593.401 C 488.337 588.24 441.34 578.739 397.493 562.619 C 379.207 555.851 361.499 547.876 345.176 538.446 C 342.016 536.621 338.909 534.74 335.857 532.803 C 317.098 520.907 300.663 506.71 289.151 490.805 C 283.42 482.886 278.962 474.55 275.908 466.083 C 275.208 463.961 274.512 461.839 273.944 459.698 L 273.142 456.516 L 272.619 453.588 L 271.654 447.799 L 271.164 441.926 C 270.711 434.094 271.156 426.1 273.007 418.106 C 273.721 414.137 275.136 410.139 276.406 406.209 C 278.098 402.26 279.563 398.31 281.764 394.484 C 285.434 387.391 290.183 380.522 295.783 373.978 L 454.173 399.805 C 452.693 401.16 451.362 402.503 450.128 403.869 C 445.567 409.051 442.834 414.041 441.897 419.071 C 441.464 420.295 441.553 421.571 441.312 422.814 C 441.402 424.113 441.195 425.353 441.399 426.66 C 441.545 429.199 442.23 431.841 443.142 434.539 L 443.872 436.586 L 444.848 438.66 L 445.312 439.682 C 446.053 440.846 446.448 441.302 446.744 441.756 C 448.176 443.564 449.821 445.288 451.837 446.945 C 454.05 448.776 456.657 450.587 459.739 452.37 C 462.236 453.814 465.047 455.236 468.213 456.636 C 475.192 459.743 483.851 462.668 493.702 465.17 C 513.417 470.161 537.748 473.193 562.962 473.753 C 588.216 474.368 614.414 472.605 639.685 468.762 Z" stroke-linecap="round" />
</g>
<g transform="matrix(0.56 0 0 0.56 271.98 336.03)"  >
<path style="stroke: none; stroke-width: 1; stroke-dasharray: none; stroke-linecap: butt; stroke-dashoffset: 0; stroke-linejoin: miter; stroke-miterlimit: 4; fill: rgb(241,159,31); fill-rule: nonzero; opacity: 1;"  transform=" translate(-477.13, -542.18)" d="M 677.91 595.703 L 677.851 616.617 C 631.061 619.7 583.333 619.057 536.103 613.932 C 488.988 608.778 441.946 599.292 398.056 583.196 C 379.755 576.437 362.028 568.474 345.689 559.058 C 342.526 557.236 339.415 555.358 336.361 553.424 C 317.584 541.545 301.133 527.369 289.61 511.488 C 283.873 503.581 279.411 495.258 276.354 486.803 L 276.412 465.889 C 279.469 474.343 283.932 482.667 289.669 490.574 C 301.189 506.452 317.642 520.631 336.42 532.509 C 339.474 534.443 342.582 536.321 345.748 538.144 C 362.087 547.56 379.814 555.523 398.115 562.281 C 442.005 578.377 489.047 587.863 536.162 593.017 C 583.392 598.143 631.117 598.788 677.91 595.703 Z" stroke-linecap="round" />
</g>
<g transform="matrix(0.56 0 0 0.56 425.31 214.35)"  >
<path style="stroke: rgb(116,32,122); stroke-width: 1.7847; stroke-dasharray: none; stroke-linecap: butt; stroke-dashoffset: 0; stroke-linejoin: miter; stroke-miterlimit: 4; fill: none; fill-rule: nonzero; opacity: 1;"  transform=" translate(-750.92, -324.9)" d="M 751.084 314.19 L 750.756 335.607" stroke-linecap="round" />
</g>
<g transform="matrix(0.56 0 0 0.56 386.73 337.09)"  >
<linearGradient id="SVGID_paint9_linear_928_11932_14" gradientUnits="userSpaceOnUse" gradientTransform="matrix(1 0 0 1 0 0)"  x1="703.689" y1="606.723" x2="796.634" y2="484.326">
<stop offset="0%" style="stop-color:rgb(231,209,34);stop-opacity: 1"/>
<stop offset="100%" style="stop-color:rgb(242,239,145);stop-opacity: 1"/>
</linearGradient>
<path style="stroke: none; stroke-width: 1; stroke-dasharray: none; stroke-linecap: butt; stroke-dashoffset: 0; stroke-linejoin: miter; stroke-miterlimit: 4; fill: url(#SVGID_paint9_linear_928_11932_14); fill-rule: nonzero; opacity: 1;"  transform=" translate(-682.03, -544.07)" d="M 750.853 439.37 C 751.532 439.527 751.862 440.607 751.591 441.783 L 696.945 678.48 C 696.507 680.378 694.963 681.022 694.498 679.502 L 612.487 411.255 C 612.022 409.734 613.1 407.567 614.196 407.82 L 750.853 439.37 Z" stroke-linecap="round" />
</g>
<g transform="matrix(0.56 0 0 0.56 216.47 65.47)"  >
<path style="stroke: rgb(254,251,245); stroke-width: 2.4; stroke-dasharray: none; stroke-linecap: butt; stroke-dashoffset: 0; stroke-linejoin: miter; stroke-miterlimit: 4; fill: rgb(50,120,102); fill-rule: nonzero; opacity: 1;"  transform=" translate(-378, -59.04)" d="M 380.215 93.8031 L 397.569 52.1538 C 403.388 38.1897 393.128 22.8 378 22.8 C 362.872 22.8 352.612 38.1897 358.431 52.1538 L 375.785 93.8031 C 376.605 95.7723 379.395 95.7723 380.215 93.8031 Z" stroke-linecap="round" />
</g>
<g transform="matrix(0.56 0 0 0.56 216.47 57.44)"  >
<rect style="stroke: none; stroke-width: 1; stroke-dasharray: none; stroke-linecap: butt; stroke-dashoffset: 0; stroke-linejoin: miter; stroke-miterlimit: 4; fill: rgb(255,255,255); fill-rule: nonzero; opacity: 1;"  x="-17.4" y="-17.4" rx="17.4" ry="17.4" width="34.8" height="34.8" />
</g>
<g transform="matrix(0.56 0 0 0.56 216.47 57.44)"  >
<rect style="stroke: none; stroke-width: 1; stroke-dasharray: none; stroke-linecap: butt; stroke-dashoffset: 0; stroke-linejoin: miter; stroke-miterlimit: 4; fill: rgb(255,255,255); fill-rule: nonzero; opacity: 1;"  x="-14.55" y="-14.55" rx="14.55" ry="14.55" width="29.1" height="29.1" />
</g>
<g transform="matrix(0.56 0 0 0.56 216.47 57.44)"  >
<rect style="stroke: rgb(50,120,102); stroke-width: 0.9; stroke-dasharray: none; stroke-linecap: butt; stroke-dashoffset: 0; stroke-linejoin: miter; stroke-miterlimit: 4; fill: none; fill-rule: nonzero; opacity: 1;"  x="-14.55" y="-14.55" rx="14.55" ry="14.55" width="29.1" height="29.1" />
</g>
<g transform="matrix(0.56 0 0 0.56 216.47 57.44)"  >
<path style="stroke: none; stroke-width: 1; stroke-dasharray: none; stroke-linecap: butt; stroke-dashoffset: 0; stroke-linejoin: miter; stroke-miterlimit: 4; fill: rgb(50,120,102); fill-rule: nonzero; opacity: 1;"  transform=" translate(-378, -44.7)" d="M 378 37.2021 C 374.692 37.2021 372 39.8939 372 43.1984 C 371.978 48.0322 377.337 51.9014 377.565 52.0627 C 377.692 52.1533 377.844 52.202 378 52.202 C 378.156 52.202 378.308 52.1533 378.435 52.0627 C 378.663 51.9014 384.022 48.0322 384 43.2021 C 384 39.8939 381.308 37.2021 378 37.2021 Z M 378 50.5034 C 376.792 49.5224 373.484 46.5329 373.5 43.2021 C 373.5 40.7204 375.518 38.7021 378 38.7021 C 380.482 38.7021 382.5 40.7204 382.5 43.2059 C 382.516 46.5336 379.209 49.5232 378 50.5034 Z" stroke-linecap="round" />
</g>
<g transform="matrix(0.56 0 0 0.56 216.47 56.96)"  >
<path style="stroke: none; stroke-width: 1; stroke-dasharray: none; stroke-linecap: butt; stroke-dashoffset: 0; stroke-linejoin: miter; stroke-miterlimit: 4; fill: rgb(50,120,102); fill-rule: nonzero; opacity: 1;"  transform=" translate(-378, -43.84)" d="M 377.251 44.3916 L 375.531 42.6719 L 374.471 43.7324 L 377.251 46.5126 L 381.531 42.2324 L 380.471 41.1719 L 377.251 44.3916 Z" stroke-linecap="round" />
</g>
<g transform="matrix(0.56 0 0 0.56 448.88 127.01)"  >
<path style="stroke: rgb(254,251,245); stroke-width: 4; stroke-dasharray: none; stroke-linecap: butt; stroke-dashoffset: 0; stroke-linejoin: miter; stroke-miterlimit: 4; fill: rgb(135,37,143); fill-rule: nonzero; opacity: 1;"  transform=" translate(-793.02, -168.92)" d="M 796.716 226.861 L 825.639 157.446 C 835.336 134.172 818.237 108.522 793.023 108.522 C 767.81 108.522 750.711 134.172 760.408 157.446 L 789.331 226.861 C 790.699 230.143 795.348 230.143 796.716 226.861 Z" stroke-linecap="round" />
</g>
<g transform="matrix(0.56 0 0 0.56 448.88 113.62)"  >
<rect style="stroke: none; stroke-width: 1; stroke-dasharray: none; stroke-linecap: butt; stroke-dashoffset: 0; stroke-linejoin: miter; stroke-miterlimit: 4; fill: rgb(255,255,255); fill-rule: nonzero; opacity: 1;"  x="-29" y="-29" rx="29" ry="29" width="58" height="58" />
</g>
<g transform="matrix(0.56 0 0 0.56 448.88 113.62)"  >
<rect style="stroke: none; stroke-width: 1; stroke-dasharray: none; stroke-linecap: butt; stroke-dashoffset: 0; stroke-linejoin: miter; stroke-miterlimit: 4; fill: rgb(255,255,255); fill-rule: nonzero; opacity: 1;"  x="-24.25" y="-24.25" rx="24.25" ry="24.25" width="48.5" height="48.5" />
</g>
<g transform="matrix(0.56 0 0 0.56 448.88 113.62)"  >
<rect style="stroke: rgb(135,37,143); stroke-width: 1.5; stroke-dasharray: none; stroke-linecap: butt; stroke-dashoffset: 0; stroke-linejoin: miter; stroke-miterlimit: 4; fill: none; fill-rule: nonzero; opacity: 1;"  x="-24.25" y="-24.25" rx="24.25" ry="24.25" width="48.5" height="48.5" />
</g>
<g transform="matrix(0.56 0 0 0.56 448.88 113.62)"  >
<path style="stroke: none; stroke-width: 1; stroke-dasharray: none; stroke-linecap: butt; stroke-dashoffset: 0; stroke-linejoin: miter; stroke-miterlimit: 4; fill: rgb(135,37,143); fill-rule: nonzero; opacity: 1;"  transform=" translate(-793.02, -145.02)" d="M 793.024 132.521 C 787.51 132.521 783.024 137.008 783.024 142.515 C 782.987 150.571 791.919 157.02 792.299 157.289 C 792.51 157.44 792.764 157.521 793.024 157.521 C 793.284 157.521 793.537 157.44 793.749 157.289 C 794.129 157.02 803.06 150.571 803.024 142.521 C 803.024 137.008 798.537 132.521 793.024 132.521 Z M 793.024 154.69 C 791.01 153.055 785.497 148.073 785.524 142.521 C 785.524 138.385 788.887 135.021 793.024 135.021 C 797.16 135.021 800.524 138.385 800.524 142.528 C 800.55 148.074 795.039 153.056 793.024 154.69 Z" stroke-linecap="round" />
</g>
<g transform="matrix(0.56 0 0 0.56 448.88 112.82)"  >
<path style="stroke: none; stroke-width: 1; stroke-dasharray: none; stroke-linecap: butt; stroke-dashoffset: 0; stroke-linejoin: miter; stroke-miterlimit: 4; fill: rgb(135,37,143); fill-rule: nonzero; opacity: 1;"  transform=" translate(-793.02, -143.59)" d="M 791.774 144.504 L 788.908 141.638 L 787.141 143.405 L 791.774 148.039 L 798.908 140.905 L 797.141 139.138 L 791.774 144.504 Z" stroke-linecap="round" />
</g>
<g transform="matrix(0.56 0 0 0.56 214.52 240.74)"  >
<path style="stroke: rgb(254,251,245); stroke-width: 7.13878; stroke-dasharray: none; stroke-linecap: butt; stroke-dashoffset: 0; stroke-linejoin: miter; stroke-miterlimit: 4; fill: rgb(232,211,39); fill-rule: nonzero; opacity: 1;"  transform=" translate(-374.51, -372.01)" d="M 381.102 475.417 L 432.721 351.531 C 450.027 309.995 419.51 264.219 374.512 264.219 C 329.514 264.219 298.997 309.995 316.304 351.532 L 367.922 475.417 C 370.363 481.274 378.661 481.274 381.102 475.417 Z" stroke-linecap="round" />
</g>
<g transform="matrix(0.56 0 0 0.56 214.52 216.85)"  >
<rect style="stroke: none; stroke-width: 1; stroke-dasharray: none; stroke-linecap: butt; stroke-dashoffset: 0; stroke-linejoin: miter; stroke-miterlimit: 4; fill: rgb(255,255,255); fill-rule: nonzero; opacity: 1;"  x="-51.756" y="-51.756" rx="51.7562" ry="51.7562" width="103.512" height="103.512" />
</g>
<g transform="matrix(0.56 0 0 0.56 214.52 216.85)"  >
<rect style="stroke: none; stroke-width: 1; stroke-dasharray: none; stroke-linecap: butt; stroke-dashoffset: 0; stroke-linejoin: miter; stroke-miterlimit: 4; fill: rgb(255,255,255); fill-rule: nonzero; opacity: 1;"  x="-43.27885" y="-43.27885" rx="43.2789" ry="43.2789" width="86.5577" height="86.5577" />
</g>
<g transform="matrix(0.56 0 0 0.56 214.52 216.85)"  >
<rect style="stroke: rgb(232,211,39); stroke-width: 2.67704; stroke-dasharray: none; stroke-linecap: butt; stroke-dashoffset: 0; stroke-linejoin: miter; stroke-miterlimit: 4; fill: none; fill-rule: nonzero; opacity: 1;"  x="-43.27885" y="-43.27885" rx="43.2789" ry="43.2789" width="86.5577" height="86.5577" />
</g>
<g transform="matrix(0.56 0 0 0.56 214.52 216.85)"  >
<path style="stroke: none; stroke-width: 1; stroke-dasharray: none; stroke-linecap: butt; stroke-dashoffset: 0; stroke-linejoin: miter; stroke-miterlimit: 4; fill: rgb(232,211,39); fill-rule: nonzero; opacity: 1;"  transform=" translate(-374.51, -329.36)" d="M 374.513 307.052 C 364.673 307.052 356.666 315.058 356.666 324.888 C 356.602 339.266 372.541 350.775 373.219 351.254 C 373.597 351.524 374.049 351.669 374.513 351.669 C 374.977 351.669 375.429 351.524 375.807 351.254 C 376.485 350.775 392.425 339.266 392.36 324.899 C 392.36 315.058 384.354 307.052 374.513 307.052 Z M 374.513 346.616 C 370.919 343.698 361.081 334.806 361.128 324.899 C 361.128 317.517 367.131 311.513 374.513 311.513 C 381.895 311.513 387.898 317.517 387.898 324.91 C 387.945 334.808 378.109 343.7 374.513 346.616 Z" stroke-linecap="round" />
</g>
<g transform="matrix(0.56 0 0 0.56 214.52 215.42)"  >
<path style="stroke: none; stroke-width: 1; stroke-dasharray: none; stroke-linecap: butt; stroke-dashoffset: 0; stroke-linejoin: miter; stroke-miterlimit: 4; fill: rgb(232,211,39); fill-rule: nonzero; opacity: 1;"  transform=" translate(-374.51, -326.8)" d="M 372.282 328.436 L 367.166 323.321 L 364.012 326.476 L 372.282 334.745 L 385.013 322.014 L 381.859 318.859 L 372.282 328.436 Z" stroke-linecap="round" />
</g>
<g transform="matrix(0.56 0 0 0.56 121.83 48.65)"  >
<path style="stroke: none; stroke-width: 1; stroke-dasharray: none; stroke-linecap: butt; stroke-dashoffset: 0; stroke-linejoin: miter; stroke-miterlimit: 4; fill: rgb(50,120,102); fill-rule: nonzero; opacity: 1;"  transform=" translate(-209, -29)" d="M 71.6667 29 C 71.6667 31.9455 74.0545 34.3333 77 34.3333 C 79.9455 34.3333 82.3333 31.9455 82.3333 29 C 82.3333 26.0545 79.9455 23.6667 77 23.6667 C 74.0545 23.6667 71.6667 26.0545 71.6667 29 Z M 335.667 29 C 335.667 31.9455 338.054 34.3333 341 34.3333 C 343.946 34.3333 346.333 31.9455 346.333 29 C 346.333 26.0545 343.946 23.6667 341 23.6667 C 338.054 23.6667 335.667 26.0545 335.667 29 Z M 77 30 H 341 V 28 H 77 V 30 Z" stroke-linecap="round" />
</g>
<g transform="matrix(0.56 0 0 0.56 390.82 76.65)"  >
<path style="stroke: none; stroke-width: 1; stroke-dasharray: none; stroke-linecap: butt; stroke-dashoffset: 0; stroke-linejoin: miter; stroke-miterlimit: 4; fill: rgb(75,171,194); fill-rule: nonzero; opacity: 1;"  transform=" translate(-689.33, -79)" d="M 552.667 79 C 552.667 81.9455 555.054 84.3333 558 84.3333 C 560.946 84.3333 563.333 81.9455 563.333 79 C 563.333 76.0545 560.946 73.6667 558 73.6667 C 555.054 73.6667 552.667 76.0545 552.667 79 Z M 825 80 C 825.552 80 826 79.5523 826 79 C 826 78.4477 825.552 78 825 78 V 80 Z M 558 80 H 825 V 78 H 558 V 80 Z" stroke-linecap="round" />
</g>
<g transform="matrix(0.56 0 0 0.56 486.36 62.56)"  >
<path style="stroke: none; stroke-width: 1; stroke-dasharray: none; stroke-linecap: butt; stroke-dashoffset: 0; stroke-linejoin: miter; stroke-miterlimit: 4; fill: rgb(75,171,194); fill-rule: nonzero; opacity: 1;"  transform=" translate(-859.95, -53.83)" d="M 894.953 29.9722 C 893.263 27.5593 889.938 26.973 887.525 28.6624 C 885.112 30.3519 884.526 33.6775 886.215 36.0903 C 887.905 38.5032 891.23 39.0895 893.643 37.4001 C 896.056 35.7106 896.642 32.385 894.953 29.9722 Z M 824.404 78.15 C 823.952 78.4667 823.842 79.0903 824.159 79.5427 C 824.476 79.9951 825.099 80.105 825.551 79.7883 L 824.404 78.15 Z M 890.01 32.2121 L 824.404 78.15 L 825.551 79.7883 L 891.158 33.8504 L 890.01 32.2121 Z" stroke-linecap="round" />
</g>
<g transform="matrix(0.56 0 0 0.56 282.64 125.93)"  >
<path style="stroke: none; stroke-width: 1; stroke-dasharray: none; stroke-linecap: butt; stroke-dashoffset: 0; stroke-linejoin: miter; stroke-miterlimit: 4; fill: rgb(135,37,143); fill-rule: nonzero; opacity: 1;"  transform=" translate(-496.17, -167)" d="M 741.333 167 C 741.333 164.054 738.946 161.667 736 161.667 C 733.054 161.667 730.667 164.054 730.667 167 C 730.667 169.946 733.054 172.333 736 172.333 C 738.946 172.333 741.333 169.946 741.333 167 Z M 252 166 C 251.448 166 251 166.448 251 167 C 251 167.552 251.448 168 252 168 V 166 Z M 736 166 L 252 166 V 168 L 736 168 V 166 Z" stroke-linecap="round" />
</g>
<g transform="matrix(0.56 0 0 0.56 293.97 86.73)"  >
<path style="stroke: rgb(254,251,245); stroke-width: 3.2; stroke-dasharray: none; stroke-linecap: butt; stroke-dashoffset: 0; stroke-linejoin: miter; stroke-miterlimit: 4; fill: rgb(75,171,194); fill-rule: nonzero; opacity: 1;"  transform=" translate(-516.4, -96.99)" d="M 519.35 143.344 L 542.489 87.8119 C 550.247 69.193 536.567 48.6734 516.396 48.6734 C 496.226 48.6734 482.546 69.193 490.304 87.8119 L 513.443 143.344 C 514.537 145.97 518.256 145.97 519.35 143.344 Z" stroke-linecap="round" />
</g>
<g transform="matrix(0.56 0 0 0.56 293.97 76.02)"  >
<rect style="stroke: none; stroke-width: 1; stroke-dasharray: none; stroke-linecap: butt; stroke-dashoffset: 0; stroke-linejoin: miter; stroke-miterlimit: 4; fill: rgb(255,255,255); fill-rule: nonzero; opacity: 1;"  x="-23.2" y="-23.2" rx="23.2" ry="23.2" width="46.4" height="46.4" />
</g>
<g transform="matrix(0.56 0 0 0.56 293.97 76.02)"  >
<rect style="stroke: none; stroke-width: 1; stroke-dasharray: none; stroke-linecap: butt; stroke-dashoffset: 0; stroke-linejoin: miter; stroke-miterlimit: 4; fill: rgb(255,255,255); fill-rule: nonzero; opacity: 1;"  x="-19.4" y="-19.4" rx="19.4" ry="19.4" width="38.8" height="38.8" />
</g>
<g transform="matrix(0.56 0 0 0.56 293.97 76.02)"  >
<rect style="stroke: rgb(75,171,194); stroke-width: 1.2; stroke-dasharray: none; stroke-linecap: butt; stroke-dashoffset: 0; stroke-linejoin: miter; stroke-miterlimit: 4; fill: none; fill-rule: nonzero; opacity: 1;"  x="-19.4" y="-19.4" rx="19.4" ry="19.4" width="38.8" height="38.8" />
</g>
<g transform="matrix(0.56 0 0 0.56 293.97 76.02)"  >
<path style="stroke: none; stroke-width: 1; stroke-dasharray: none; stroke-linecap: butt; stroke-dashoffset: 0; stroke-linejoin: miter; stroke-miterlimit: 4; fill: rgb(75,171,194); fill-rule: nonzero; opacity: 1;"  transform=" translate(-516.4, -77.87)" d="M 516.397 67.874 C 511.986 67.874 508.397 71.463 508.397 75.869 C 508.368 82.314 515.513 87.473 515.817 87.688 C 515.986 87.8089 516.189 87.8739 516.397 87.8739 C 516.605 87.8739 516.807 87.8089 516.977 87.688 C 517.281 87.473 524.426 82.314 524.397 75.874 C 524.397 71.463 520.808 67.874 516.397 67.874 Z M 516.397 85.609 C 514.786 84.301 510.376 80.315 510.397 75.874 C 510.397 72.565 513.088 69.874 516.397 69.874 C 519.706 69.874 522.397 72.565 522.397 75.879 C 522.418 80.316 518.009 84.302 516.397 85.609 Z" stroke-linecap="round" />
</g>
<g transform="matrix(0.56 0 0 0.56 293.97 75.38)"  >
<path style="stroke: none; stroke-width: 1; stroke-dasharray: none; stroke-linecap: butt; stroke-dashoffset: 0; stroke-linejoin: miter; stroke-miterlimit: 4; fill: rgb(75,171,194); fill-rule: nonzero; opacity: 1;"  transform=" translate(-516.4, -76.73)" d="M 515.396 77.46 L 513.103 75.167 L 511.689 76.581 L 515.396 80.288 L 521.103 74.581 L 519.689 73.167 L 515.396 77.46 Z" stroke-linecap="round" />
</g>
<g transform="matrix(0.56 0 0 0.56 338.45 161.31)"  >
<path style="stroke: rgb(254,251,245); stroke-width: 4.8; stroke-dasharray: none; stroke-linecap: butt; stroke-dashoffset: 0; stroke-linejoin: miter; stroke-miterlimit: 4; fill: rgb(212,79,71); fill-rule: nonzero; opacity: 1;"  transform=" translate(-595.82, -230.17)" d="M 600.247 299.7 L 634.955 216.401 C 646.592 188.473 626.072 157.694 595.816 157.694 C 565.561 157.694 545.041 188.473 556.678 216.401 L 591.386 299.7 C 593.027 303.638 598.606 303.638 600.247 299.7 Z" stroke-linecap="round" />
</g>
<g transform="matrix(0.56 0 0 0.56 338.45 145.25)"  >
<rect style="stroke: none; stroke-width: 1; stroke-dasharray: none; stroke-linecap: butt; stroke-dashoffset: 0; stroke-linejoin: miter; stroke-miterlimit: 4; fill: rgb(255,255,255); fill-rule: nonzero; opacity: 1;"  x="-34.8" y="-34.8" rx="34.8" ry="34.8" width="69.6" height="69.6" />
</g>
<g transform="matrix(0.56 0 0 0.56 338.45 145.25)"  >
<rect style="stroke: none; stroke-width: 1; stroke-dasharray: none; stroke-linecap: butt; stroke-dashoffset: 0; stroke-linejoin: miter; stroke-miterlimit: 4; fill: rgb(255,255,255); fill-rule: nonzero; opacity: 1;"  x="-29.1" y="-29.1" rx="29.1" ry="29.1" width="58.2" height="58.2" />
</g>
<g transform="matrix(0.56 0 0 0.56 338.45 145.25)"  >
<rect style="stroke: rgb(212,79,71); stroke-width: 1.8; stroke-dasharray: none; stroke-linecap: butt; stroke-dashoffset: 0; stroke-linejoin: miter; stroke-miterlimit: 4; fill: none; fill-rule: nonzero; opacity: 1;"  x="-29.1" y="-29.1" rx="29.1" ry="29.1" width="58.2" height="58.2" />
</g>
<g transform="matrix(0.56 0 0 0.56 338.45 145.25)"  >
<path style="stroke: none; stroke-width: 1; stroke-dasharray: none; stroke-linecap: butt; stroke-dashoffset: 0; stroke-linejoin: miter; stroke-miterlimit: 4; fill: rgb(212,79,71); fill-rule: nonzero; opacity: 1;"  transform=" translate(-595.82, -201.49)" d="M 595.818 186.494 C 589.202 186.494 583.818 191.878 583.818 198.487 C 583.775 208.154 594.492 215.893 594.948 216.215 C 595.202 216.396 595.507 216.494 595.818 216.494 C 596.13 216.494 596.435 216.396 596.688 216.215 C 597.144 215.893 607.862 208.154 607.818 198.494 C 607.818 191.878 602.435 186.494 595.818 186.494 Z M 595.818 213.097 C 593.402 211.135 586.787 205.156 586.818 198.494 C 586.818 193.531 590.855 189.494 595.818 189.494 C 600.782 189.494 604.818 193.531 604.818 198.502 C 604.85 205.157 598.236 211.136 595.818 213.097 Z" stroke-linecap="round" />
</g>
<g transform="matrix(0.56 0 0 0.56 338.45 144.28)"  >
<path style="stroke: none; stroke-width: 1; stroke-dasharray: none; stroke-linecap: butt; stroke-dashoffset: 0; stroke-linejoin: miter; stroke-miterlimit: 4; fill: rgb(212,79,71); fill-rule: nonzero; opacity: 1;"  transform=" translate(-595.82, -199.77)" d="M 594.318 200.873 L 590.879 197.434 L 588.758 199.555 L 594.318 205.115 L 602.879 196.555 L 600.758 194.434 L 594.318 200.873 Z" stroke-linecap="round" />
</g>
<g transform="matrix(0.56 0 0 0.56 422.74 175.21)"  >
<path style="stroke: none; stroke-width: 1; stroke-dasharray: none; stroke-linecap: butt; stroke-dashoffset: 0; stroke-linejoin: miter; stroke-miterlimit: 4; fill: rgb(212,79,71); fill-rule: nonzero; opacity: 1;"  transform=" translate(-746.33, -255)" d="M 853 256 C 853.552 256 854 255.552 854 255 C 854 254.448 853.552 254 853 254 V 256 Z M 649.333 255 C 649.333 252.054 646.946 249.667 644 249.667 C 641.054 249.667 638.667 252.054 638.667 255 C 638.667 257.946 641.054 260.333 644 260.333 C 646.946 260.333 649.333 257.946 649.333 255 Z M 853 254 L 644 254 V 256 H 853 V 254 Z" stroke-linecap="round" />
</g>
<g transform="matrix(0.56 0 0 0.56 495.87 188.75)"  >
<path style="stroke: none; stroke-width: 1; stroke-dasharray: none; stroke-linecap: butt; stroke-dashoffset: 0; stroke-linejoin: miter; stroke-miterlimit: 4; fill: rgb(212,79,71); fill-rule: nonzero; opacity: 1;"  transform=" translate(-876.93, -279.18)" d="M 853.711 254.297 C 853.323 253.904 852.69 253.901 852.297 254.289 C 851.904 254.677 851.901 255.31 852.289 255.703 L 853.711 254.297 Z M 892.779 295.237 C 890.684 297.308 890.665 300.684 892.736 302.779 C 894.807 304.874 898.183 304.893 900.278 302.822 C 902.373 300.751 902.392 297.375 900.321 295.28 C 898.25 293.185 894.874 293.166 892.779 295.237 Z M 852.289 255.703 L 895.817 299.732 L 897.24 298.326 L 853.711 254.297 L 852.289 255.703 Z" stroke-linecap="round" />
</g>
<g transform="matrix(0.56 0 0 0.56 161.83 290.57)"  >
<path style="stroke: none; stroke-width: 1; stroke-dasharray: none; stroke-linecap: butt; stroke-dashoffset: 0; stroke-linejoin: miter; stroke-miterlimit: 4; fill: rgb(232,211,39); fill-rule: nonzero; opacity: 1;"  transform=" translate(-280.43, -461)" d="M 334.759 461 C 334.759 458.372 332.628 456.241 330 456.241 C 327.372 456.241 325.241 458.372 325.241 461 C 325.241 463.628 327.372 465.759 330 465.759 C 332.628 465.759 334.759 463.628 334.759 461 Z M 227 460.108 C 226.507 460.108 226.108 460.507 226.108 461 C 226.108 461.493 226.507 461.892 227 461.892 V 460.108 Z M 330 460.108 L 227 460.108 V 461.892 H 330 V 460.108 Z" stroke-linecap="round" />
</g>
<g transform="matrix(0.56 0 0 0.56 527.32 49.21)"  >
<path style="stroke: none; stroke-width: 1; stroke-dasharray: none; stroke-linecap: butt; stroke-dashoffset: 0; stroke-linejoin: miter; stroke-miterlimit: 4; fill: rgb(75,171,194); fill-rule: nonzero; opacity: 1;"  transform=" translate(-933.09, -30)" d="M 912.894 37 V 35.64 L 918.594 30.14 C 919.101 29.66 919.474 29.24 919.714 28.88 C 919.968 28.5067 920.134 28.1667 920.214 27.86 C 920.308 27.54 920.354 27.2333 920.354 26.94 C 920.354 26.22 920.101 25.6533 919.594 25.24 C 919.088 24.8267 918.348 24.62 917.374 24.62 C 916.628 24.62 915.954 24.7467 915.354 25 C 914.754 25.24 914.234 25.62 913.794 26.14 L 912.434 24.96 C 912.968 24.28 913.681 23.76 914.574 23.4 C 915.481 23.0267 916.474 22.84 917.554 22.84 C 918.528 22.84 919.374 23 920.094 23.32 C 920.814 23.6267 921.368 24.0733 921.754 24.66 C 922.154 25.2467 922.354 25.94 922.354 26.74 C 922.354 27.1933 922.294 27.64 922.174 28.08 C 922.054 28.52 921.828 28.9867 921.494 29.48 C 921.161 29.9733 920.681 30.5267 920.054 31.14 L 914.974 36.04 L 914.494 35.26 H 922.954 V 37 H 912.894 Z M 930.299 37.16 C 929.206 37.16 928.226 36.88 927.359 36.32 C 926.506 35.76 925.826 34.9467 925.319 33.88 C 924.826 32.8133 924.579 31.52 924.579 30 C 924.579 28.48 924.826 27.1867 925.319 26.12 C 925.826 25.0533 926.506 24.24 927.359 23.68 C 928.226 23.12 929.206 22.84 930.299 22.84 C 931.379 22.84 932.352 23.12 933.219 23.68 C 934.086 24.24 934.766 25.0533 935.259 26.12 C 935.752 27.1867 935.999 28.48 935.999 30 C 935.999 31.52 935.752 32.8133 935.259 33.88 C 934.766 34.9467 934.086 35.76 933.219 36.32 C 932.352 36.88 931.379 37.16 930.299 37.16 Z M 930.299 35.38 C 931.032 35.38 931.672 35.18 932.219 34.78 C 932.779 34.38 933.212 33.78 933.519 32.98 C 933.839 32.18 933.999 31.1867 933.999 30 C 933.999 28.8133 933.839 27.82 933.519 27.02 C 933.212 26.22 932.779 25.62 932.219 25.22 C 931.672 24.82 931.032 24.62 930.299 24.62 C 929.566 24.62 928.919 24.82 928.359 25.22 C 927.799 25.62 927.359 26.22 927.039 27.02 C 926.732 27.82 926.579 28.8133 926.579 30 C 926.579 31.1867 926.732 32.18 927.039 32.98 C 927.359 33.78 927.799 34.38 928.359 34.78 C 928.919 35.18 929.566 35.38 930.299 35.38 Z M 937.699 37 V 35.64 L 943.399 30.14 C 943.906 29.66 944.279 29.24 944.519 28.88 C 944.772 28.5067 944.939 28.1667 945.019 27.86 C 945.112 27.54 945.159 27.2333 945.159 26.94 C 945.159 26.22 944.906 25.6533 944.399 25.24 C 943.892 24.8267 943.152 24.62 942.179 24.62 C 941.432 24.62 940.759 24.7467 940.159 25 C 939.559 25.24 939.039 25.62 938.599 26.14 L 937.239 24.96 C 937.772 24.28 938.486 23.76 939.379 23.4 C 940.286 23.0267 941.279 22.84 942.359 22.84 C 943.332 22.84 944.179 23 944.899 23.32 C 945.619 23.6267 946.172 24.0733 946.559 24.66 C 946.959 25.2467 947.159 25.94 947.159 26.74 C 947.159 27.1933 947.099 27.64 946.979 28.08 C 946.859 28.52 946.632 28.9867 946.299 29.48 C 945.966 29.9733 945.486 30.5267 944.859 31.14 L 939.779 36.04 L 939.299 35.26 H 947.759 V 37 H 937.699 Z M 951.763 37 V 23.8 L 952.623 24.74 H 948.603 V 23 H 953.743 V 37 H 951.763 Z" stroke-linecap="round" />
</g>
<g transform="matrix(0.56 0 0 0.56 528.78 206.01)"  >
<path style="stroke: none; stroke-width: 1; stroke-dasharray: none; stroke-linecap: butt; stroke-dashoffset: 0; stroke-linejoin: miter; stroke-miterlimit: 4; fill: rgb(212,79,71); fill-rule: nonzero; opacity: 1;"  transform=" translate(-935.69, -310)" d="M 912.873 317 V 315.64 L 918.573 310.14 C 919.079 309.66 919.453 309.24 919.693 308.88 C 919.946 308.507 920.113 308.167 920.193 307.86 C 920.286 307.54 920.333 307.233 920.333 306.94 C 920.333 306.22 920.079 305.653 919.573 305.24 C 919.066 304.827 918.326 304.62 917.353 304.62 C 916.606 304.62 915.933 304.747 915.333 305 C 914.733 305.24 914.213 305.62 913.773 306.14 L 912.413 304.96 C 912.946 304.28 913.659 303.76 914.553 303.4 C 915.459 303.027 916.453 302.84 917.533 302.84 C 918.506 302.84 919.353 303 920.073 303.32 C 920.793 303.627 921.346 304.073 921.733 304.66 C 922.133 305.247 922.333 305.94 922.333 306.74 C 922.333 307.193 922.273 307.64 922.153 308.08 C 922.033 308.52 921.806 308.987 921.473 309.48 C 921.139 309.973 920.659 310.527 920.033 311.14 L 914.953 316.04 L 914.473 315.26 H 922.933 V 317 H 912.873 Z M 930.278 317.16 C 929.184 317.16 928.204 316.88 927.338 316.32 C 926.484 315.76 925.804 314.947 925.298 313.88 C 924.804 312.813 924.558 311.52 924.558 310 C 924.558 308.48 924.804 307.187 925.298 306.12 C 925.804 305.053 926.484 304.24 927.338 303.68 C 928.204 303.12 929.184 302.84 930.278 302.84 C 931.358 302.84 932.331 303.12 933.198 303.68 C 934.064 304.24 934.744 305.053 935.238 306.12 C 935.731 307.187 935.978 308.48 935.978 310 C 935.978 311.52 935.731 312.813 935.238 313.88 C 934.744 314.947 934.064 315.76 933.198 316.32 C 932.331 316.88 931.358 317.16 930.278 317.16 Z M 930.278 315.38 C 931.011 315.38 931.651 315.18 932.198 314.78 C 932.758 314.38 933.191 313.78 933.498 312.98 C 933.818 312.18 933.978 311.187 933.978 310 C 933.978 308.813 933.818 307.82 933.498 307.02 C 933.191 306.22 932.758 305.62 932.198 305.22 C 931.651 304.82 931.011 304.62 930.278 304.62 C 929.544 304.62 928.898 304.82 928.338 305.22 C 927.778 305.62 927.338 306.22 927.018 307.02 C 926.711 307.82 926.558 308.813 926.558 310 C 926.558 311.187 926.711 312.18 927.018 312.98 C 927.338 313.78 927.778 314.38 928.338 314.78 C 928.898 315.18 929.544 315.38 930.278 315.38 Z M 937.678 317 V 315.64 L 943.378 310.14 C 943.884 309.66 944.258 309.24 944.498 308.88 C 944.751 308.507 944.918 308.167 944.998 307.86 C 945.091 307.54 945.138 307.233 945.138 306.94 C 945.138 306.22 944.884 305.653 944.378 305.24 C 943.871 304.827 943.131 304.62 942.158 304.62 C 941.411 304.62 940.738 304.747 940.138 305 C 939.538 305.24 939.018 305.62 938.578 306.14 L 937.218 304.96 C 937.751 304.28 938.464 303.76 939.358 303.4 C 940.264 303.027 941.258 302.84 942.338 302.84 C 943.311 302.84 944.158 303 944.878 303.32 C 945.598 303.627 946.151 304.073 946.538 304.66 C 946.938 305.247 947.138 305.94 947.138 306.74 C 947.138 307.193 947.078 307.64 946.958 308.08 C 946.838 308.52 946.611 308.987 946.278 309.48 C 945.944 309.973 945.464 310.527 944.838 311.14 L 939.758 316.04 L 939.278 315.26 H 947.738 V 317 H 937.678 Z M 953.662 317.16 C 952.675 317.16 951.715 317.007 950.782 316.7 C 949.862 316.393 949.109 315.98 948.522 315.46 L 949.442 313.88 C 949.909 314.32 950.515 314.68 951.262 314.96 C 952.009 315.24 952.809 315.38 953.662 315.38 C 954.702 315.38 955.509 315.16 956.082 314.72 C 956.669 314.267 956.962 313.66 956.962 312.9 C 956.962 312.167 956.682 311.58 956.122 311.14 C 955.575 310.687 954.702 310.46 953.502 310.46 H 952.382 V 309.06 L 956.542 303.94 L 956.822 304.74 H 949.162 V 303 H 958.402 V 304.36 L 954.262 309.46 L 953.222 308.84 H 953.882 C 955.575 308.84 956.842 309.22 957.682 309.98 C 958.535 310.74 958.962 311.707 958.962 312.88 C 958.962 313.667 958.769 314.387 958.382 315.04 C 957.995 315.693 957.409 316.213 956.622 316.6 C 955.849 316.973 954.862 317.16 953.662 317.16 Z" stroke-linecap="round" />
</g>
</svg>
