<svg width="440" height="280" viewBox="0 0 440 280" fill="none" xmlns="http://www.w3.org/2000/svg">
<path d="M39.0468 30.9925V30.5483L40.9087 28.7516C41.0743 28.5948 41.1962 28.4576 41.2746 28.34C41.3574 28.2181 41.4118 28.107 41.4379 28.0068C41.4684 27.9023 41.4837 27.8021 41.4837 27.7063C41.4837 27.4711 41.4009 27.286 41.2354 27.1509C41.0699 27.0159 40.8282 26.9484 40.5102 26.9484C40.2663 26.9484 40.0463 26.9898 39.8503 27.0725C39.6543 27.1509 39.4845 27.2751 39.3408 27.4449L38.8965 27.0595C39.0707 26.8373 39.3037 26.6675 39.5955 26.5499C39.8917 26.4279 40.2162 26.3669 40.569 26.3669C40.887 26.3669 41.1635 26.4192 41.3987 26.5237C41.6339 26.6239 41.8147 26.7698 41.941 26.9615C42.0717 27.1531 42.137 27.3796 42.137 27.6409C42.137 27.789 42.1174 27.9349 42.0782 28.0787C42.039 28.2224 41.965 28.3749 41.8561 28.536C41.7472 28.6972 41.5904 28.8779 41.3857 29.0783L39.7262 30.6789L39.5694 30.4241H42.333V30.9925H39.0468ZM44.7323 31.0448C44.3752 31.0448 44.055 30.9533 43.7719 30.7704C43.4932 30.5875 43.271 30.3218 43.1055 29.9733C42.9444 29.6249 42.8638 29.2024 42.8638 28.7059C42.8638 28.2093 42.9444 27.7869 43.1055 27.4384C43.271 27.09 43.4932 26.8243 43.7719 26.6413C44.055 26.4584 44.3752 26.3669 44.7323 26.3669C45.0851 26.3669 45.4031 26.4584 45.6862 26.6413C45.9693 26.8243 46.1914 27.09 46.3526 27.4384C46.5138 27.7869 46.5943 28.2093 46.5943 28.7059C46.5943 29.2024 46.5138 29.6249 46.3526 29.9733C46.1914 30.3218 45.9693 30.5875 45.6862 30.7704C45.4031 30.9533 45.0851 31.0448 44.7323 31.0448ZM44.7323 30.4633C44.9719 30.4633 45.181 30.398 45.3595 30.2673C45.5425 30.1367 45.684 29.9407 45.7842 29.6793C45.8887 29.418 45.941 29.0935 45.941 28.7059C45.941 28.3182 45.8887 27.9937 45.7842 27.7324C45.684 27.4711 45.5425 27.2751 45.3595 27.1444C45.181 27.0137 44.9719 26.9484 44.7323 26.9484C44.4928 26.9484 44.2815 27.0137 44.0986 27.1444C43.9157 27.2751 43.7719 27.4711 43.6674 27.7324C43.5672 27.9937 43.5171 28.3182 43.5171 28.7059C43.5171 29.0935 43.5672 29.418 43.6674 29.6793C43.7719 29.9407 43.9157 30.1367 44.0986 30.2673C44.2815 30.398 44.4928 30.4633 44.7323 30.4633ZM47.1496 30.9925V30.5483L49.0116 28.7516C49.1771 28.5948 49.2991 28.4576 49.3775 28.34C49.4602 28.2181 49.5147 28.107 49.5408 28.0068C49.5713 27.9023 49.5865 27.8021 49.5865 27.7063C49.5865 27.4711 49.5038 27.286 49.3383 27.1509C49.1728 27.0159 48.931 26.9484 48.6131 26.9484C48.3692 26.9484 48.1492 26.9898 47.9532 27.0725C47.7572 27.1509 47.5873 27.2751 47.4436 27.4449L46.9993 27.0595C47.1736 26.8373 47.4066 26.6675 47.6984 26.5499C47.9946 26.4279 48.3191 26.3669 48.6719 26.3669C48.9898 26.3669 49.2664 26.4192 49.5016 26.5237C49.7368 26.6239 49.9176 26.7698 50.0439 26.9615C50.1745 27.1531 50.2399 27.3796 50.2399 27.6409C50.2399 27.789 50.2203 27.9349 50.1811 28.0787C50.1419 28.2224 50.0678 28.3749 49.9589 28.536C49.8501 28.6972 49.6933 28.8779 49.4885 29.0783L47.8291 30.6789L47.6723 30.4241H50.4359V30.9925H47.1496ZM52.8352 31.0448C52.478 31.0448 52.1579 30.9533 51.8748 30.7704C51.596 30.5875 51.3739 30.3218 51.2084 29.9733C51.0472 29.6249 50.9667 29.2024 50.9667 28.7059C50.9667 28.2093 51.0472 27.7869 51.2084 27.4384C51.3739 27.09 51.596 26.8243 51.8748 26.6413C52.1579 26.4584 52.478 26.3669 52.8352 26.3669C53.188 26.3669 53.506 26.4584 53.7891 26.6413C54.0722 26.8243 54.2943 27.09 54.4555 27.4384C54.6166 27.7869 54.6972 28.2093 54.6972 28.7059C54.6972 29.2024 54.6166 29.6249 54.4555 29.9733C54.2943 30.3218 54.0722 30.5875 53.7891 30.7704C53.506 30.9533 53.188 31.0448 52.8352 31.0448ZM52.8352 30.4633C53.0748 30.4633 53.2838 30.398 53.4624 30.2673C53.6453 30.1367 53.7869 29.9407 53.887 29.6793C53.9916 29.418 54.0438 29.0935 54.0438 28.7059C54.0438 28.3182 53.9916 27.9937 53.887 27.7324C53.7869 27.4711 53.6453 27.2751 53.4624 27.1444C53.2838 27.0137 53.0748 26.9484 52.8352 26.9484C52.5956 26.9484 52.3844 27.0137 52.2015 27.1444C52.0185 27.2751 51.8748 27.4711 51.7703 27.7324C51.6701 27.9937 51.62 28.3182 51.62 28.7059C51.62 29.0935 51.6701 29.418 51.7703 29.6793C51.8748 29.9407 52.0185 30.1367 52.2015 30.2673C52.3844 30.398 52.5956 30.4633 52.8352 30.4633Z" fill="#327866"/>
<path d="M39.0204 126.379V125.935L40.8824 124.138C41.0479 123.982 41.1699 123.844 41.2483 123.727C41.331 123.605 41.3855 123.494 41.4116 123.394C41.4421 123.289 41.4573 123.189 41.4573 123.093C41.4573 122.858 41.3745 122.673 41.2091 122.538C41.0435 122.403 40.8018 122.335 40.4839 122.335C40.2399 122.335 40.02 122.377 39.824 122.459C39.628 122.538 39.4581 122.662 39.3144 122.832L38.8701 122.446C39.0443 122.224 39.2774 122.054 39.5692 121.937C39.8653 121.815 40.1899 121.754 40.5427 121.754C40.8606 121.754 41.1372 121.806 41.3724 121.91C41.6076 122.011 41.7883 122.156 41.9147 122.348C42.0453 122.54 42.1107 122.766 42.1107 123.028C42.1107 123.176 42.0911 123.322 42.0519 123.465C42.0127 123.609 41.9386 123.762 41.8297 123.923C41.7208 124.084 41.564 124.265 41.3593 124.465L39.6999 126.066L39.5431 125.811H42.3067V126.379H39.0204ZM44.706 126.432C44.3488 126.432 44.0287 126.34 43.7456 126.157C43.4668 125.974 43.2447 125.709 43.0792 125.36C42.918 125.012 42.8374 124.589 42.8374 124.093C42.8374 123.596 42.918 123.174 43.0792 122.825C43.2447 122.477 43.4668 122.211 43.7456 122.028C44.0287 121.845 44.3488 121.754 44.706 121.754C45.0588 121.754 45.3767 121.845 45.6598 122.028C45.9429 122.211 46.1651 122.477 46.3262 122.825C46.4874 123.174 46.568 123.596 46.568 124.093C46.568 124.589 46.4874 125.012 46.3262 125.36C46.1651 125.709 45.9429 125.974 45.6598 126.157C45.3767 126.34 45.0588 126.432 44.706 126.432ZM44.706 125.85C44.9455 125.85 45.1546 125.785 45.3332 125.654C45.5161 125.523 45.6577 125.327 45.7578 125.066C45.8624 124.805 45.9146 124.48 45.9146 124.093C45.9146 123.705 45.8624 123.38 45.7578 123.119C45.6577 122.858 45.5161 122.662 45.3332 122.531C45.1546 122.4 44.9455 122.335 44.706 122.335C44.4664 122.335 44.2552 122.4 44.0722 122.531C43.8893 122.662 43.7456 122.858 43.641 123.119C43.5409 123.38 43.4908 123.705 43.4908 124.093C43.4908 124.48 43.5409 124.805 43.641 125.066C43.7456 125.327 43.8893 125.523 44.0722 125.654C44.2552 125.785 44.4664 125.85 44.706 125.85ZM47.1233 126.379V125.935L48.9853 124.138C49.1507 123.982 49.2727 123.844 49.3511 123.727C49.4339 123.605 49.4883 123.494 49.5145 123.394C49.5449 123.289 49.5602 123.189 49.5602 123.093C49.5602 122.858 49.4774 122.673 49.3119 122.538C49.1464 122.403 48.9047 122.335 48.5867 122.335C48.3428 122.335 48.1229 122.377 47.9269 122.459C47.7309 122.538 47.561 122.662 47.4173 122.832L46.973 122.446C47.1472 122.224 47.3802 122.054 47.6721 121.937C47.9682 121.815 48.2927 121.754 48.6455 121.754C48.9635 121.754 49.2401 121.806 49.4753 121.91C49.7105 122.011 49.8912 122.156 50.0175 122.348C50.1482 122.54 50.2135 122.766 50.2135 123.028C50.2135 123.176 50.1939 123.322 50.1547 123.465C50.1155 123.609 50.0415 123.762 49.9326 123.923C49.8237 124.084 49.6669 124.265 49.4622 124.465L47.8027 126.066L47.6459 125.811H50.4095V126.379H47.1233ZM50.8748 126.379V125.935L52.7368 124.138C52.9023 123.982 53.0243 123.844 53.1027 123.727C53.1854 123.605 53.2399 123.494 53.266 123.394C53.2965 123.289 53.3117 123.189 53.3117 123.093C53.3117 122.858 53.229 122.673 53.0635 122.538C52.898 122.403 52.6562 122.335 52.3383 122.335C52.0944 122.335 51.8744 122.377 51.6784 122.459C51.4824 122.538 51.3125 122.662 51.1688 122.832L50.7245 122.446C50.8988 122.224 51.1318 122.054 51.4236 121.937C51.7198 121.815 52.0443 121.754 52.3971 121.754C52.715 121.754 52.9916 121.806 53.2268 121.91C53.462 122.011 53.6428 122.156 53.7691 122.348C53.8997 122.54 53.9651 122.766 53.9651 123.028C53.9651 123.176 53.9455 123.322 53.9063 123.465C53.8671 123.609 53.793 123.762 53.6841 123.923C53.5753 124.084 53.4185 124.265 53.2137 124.465L51.5543 126.066L51.3975 125.811H54.1611V126.379H50.8748Z" fill="#87258F"/>
<path d="M39.0995 221.766V221.321L40.9615 219.525C41.127 219.368 41.2489 219.231 41.3273 219.113C41.4101 218.991 41.4645 218.88 41.4907 218.78C41.5212 218.675 41.5364 218.575 41.5364 218.479C41.5364 218.244 41.4537 218.059 41.2881 217.924C41.1227 217.789 40.8809 217.722 40.5629 217.722C40.3191 217.722 40.0991 217.763 39.9031 217.846C39.7071 217.924 39.5372 218.048 39.3935 218.218L38.9492 217.833C39.1234 217.611 39.3565 217.441 39.6483 217.323C39.9445 217.201 40.2689 217.14 40.6217 217.14C40.9397 217.14 41.2163 217.192 41.4515 217.297C41.6867 217.397 41.8675 217.543 41.9937 217.735C42.1244 217.926 42.1897 218.153 42.1897 218.414C42.1897 218.562 42.1701 218.708 42.1309 218.852C42.0917 218.996 42.0177 219.148 41.9088 219.309C41.7999 219.47 41.6431 219.651 41.4384 219.851L39.7789 221.452L39.6221 221.197H42.3857V221.766H39.0995ZM44.7851 221.818C44.4279 221.818 44.1078 221.727 43.8247 221.544C43.5459 221.361 43.3238 221.095 43.1583 220.747C42.9971 220.398 42.9165 219.976 42.9165 219.479C42.9165 218.983 42.9971 218.56 43.1583 218.212C43.3238 217.863 43.5459 217.597 43.8247 217.415C44.1078 217.232 44.4279 217.14 44.7851 217.14C45.1379 217.14 45.4558 217.232 45.7389 217.415C46.022 217.597 46.2442 217.863 46.4053 218.212C46.5665 218.56 46.6471 218.983 46.6471 219.479C46.6471 219.976 46.5665 220.398 46.4053 220.747C46.2442 221.095 46.022 221.361 45.7389 221.544C45.4558 221.727 45.1379 221.818 44.7851 221.818ZM44.7851 221.237C45.0246 221.237 45.2337 221.171 45.4123 221.041C45.5952 220.91 45.7368 220.714 45.8369 220.453C45.9415 220.191 45.9937 219.867 45.9937 219.479C45.9937 219.091 45.9415 218.767 45.8369 218.506C45.7368 218.244 45.5952 218.048 45.4123 217.918C45.2337 217.787 45.0246 217.722 44.7851 217.722C44.5455 217.722 44.3343 217.787 44.1513 217.918C43.9684 218.048 43.8247 218.244 43.7201 218.506C43.62 218.767 43.5699 219.091 43.5699 219.479C43.5699 219.867 43.62 220.191 43.7201 220.453C43.8247 220.714 43.9684 220.91 44.1513 221.041C44.3343 221.171 44.5455 221.237 44.7851 221.237ZM47.2023 221.766V221.321L49.0643 219.525C49.2299 219.368 49.3518 219.231 49.4302 219.113C49.513 218.991 49.5674 218.88 49.5935 218.78C49.624 218.675 49.6393 218.575 49.6393 218.479C49.6393 218.244 49.5565 218.059 49.391 217.924C49.2255 217.789 48.9838 217.722 48.6658 217.722C48.4219 217.722 48.2019 217.763 48.0059 217.846C47.8099 217.924 47.6401 218.048 47.4963 218.218L47.0521 217.833C47.2263 217.611 47.4593 217.441 47.7511 217.323C48.0473 217.201 48.3718 217.14 48.7246 217.14C49.0426 217.14 49.3191 217.192 49.5543 217.297C49.7895 217.397 49.9703 217.543 50.0966 217.735C50.2273 217.926 50.2926 218.153 50.2926 218.414C50.2926 218.562 50.273 218.708 50.2338 218.852C50.1946 218.996 50.1206 219.148 50.0117 219.309C49.9028 219.47 49.746 219.651 49.5413 219.851L47.8818 221.452L47.725 221.197H50.4886V221.766H47.2023ZM50.8329 220.642V220.185L53.1718 217.192H53.8774L51.5581 220.185L51.2249 220.08H54.877V220.642H50.8329ZM53.3743 221.766V220.642L53.3939 220.08V219.087H54.0081V221.766H53.3743Z" fill="#E8D327"/>
<path d="M118.669 73.6994C118.804 73.5789 118.815 73.3724 118.695 73.2382C118.574 73.1036 118.368 73.0925 118.234 73.2127L118.669 73.6994ZM63.2351 122.927C62.5931 122.21 61.4916 122.15 60.775 122.792C60.0583 123.434 59.9979 124.535 60.6399 125.252C61.282 125.969 62.3835 126.029 63.1001 125.387C63.8168 124.745 63.8772 123.643 63.2351 122.927ZM118.234 73.2127L61.7196 123.846L62.1555 124.333L118.669 73.6994L118.234 73.2127Z" fill="#87258F"/>
<path d="M60.511 219.223C61.1181 219.83 62.1025 219.83 62.7097 219.223C63.3168 218.616 63.3168 217.632 62.7097 217.025C62.1025 216.418 61.1181 216.418 60.511 217.025C59.9039 217.632 59.9039 218.616 60.511 219.223ZM110.442 169.704C110.556 169.591 110.556 169.406 110.442 169.292C110.328 169.178 110.144 169.178 110.03 169.292L110.442 169.704ZM61.8165 218.33L110.442 169.704L110.03 169.292L61.4042 217.918L61.8165 218.33Z" fill="#E8D327"/>
<path d="M284.609 170.593C284.831 170.645 284.939 170.997 284.85 171.382L266.999 248.703C266.856 249.323 266.351 249.533 266.2 249.036L239.409 161.409C239.257 160.912 239.61 160.204 239.968 160.287L284.609 170.593Z" fill="url(#paint0_linear_421_1337)"/>
<path d="M162.84 54.2068L162.859 47.3446C162.863 46.2075 163.116 45.0566 163.649 43.9222C164.959 40.9401 167.915 38.1101 171.735 35.6901C179.45 30.8061 190.338 27.5231 201.901 25.9312L201.882 32.7932C190.319 34.3852 179.431 37.6682 171.716 42.5522C167.895 44.9722 164.939 47.8022 163.63 50.7843C163.097 51.9188 162.844 53.0696 162.84 54.2068Z" fill="#265A4D"/>
<path d="M154.97 55.854L154.995 48.9548C154.993 49.6676 155.106 50.383 155.261 51.092L155.236 57.9914C155.081 57.2822 154.967 56.5668 154.97 55.854Z" fill="#2E6D5C"/>
<path d="M242.132 72.9973L242.113 79.8569C235.868 79.0749 229.444 78.5359 222.985 78.204C220.168 78.0609 217.341 77.9685 214.525 77.9061C211.421 77.8437 208.306 77.763 205.17 77.6147C198.907 77.3168 192.585 76.8483 186.202 75.9242C179.872 74.9873 173.325 73.6169 167.546 71.051C166.456 70.5678 165.41 70.037 164.424 69.465C162.827 68.5392 161.39 67.508 160.187 66.4006C158.257 64.6075 156.913 62.6661 156.134 60.7365C155.717 59.7718 155.483 58.8131 155.265 57.8579L155.284 50.9983C155.503 51.9534 155.738 52.9125 156.153 53.8768C156.932 55.8064 158.276 57.7478 160.206 59.5409C161.41 60.6473 162.846 61.6796 164.443 62.6053C165.429 63.1767 166.475 63.7082 167.565 64.1913C173.345 66.7563 179.89 68.1276 186.221 69.0645C192.605 69.9887 198.927 70.4571 205.189 70.755C208.326 70.9033 211.441 70.984 214.544 71.0464C217.36 71.1088 220.188 71.2012 223.004 71.3443C229.464 71.6752 235.888 72.2152 242.132 72.9973Z" fill="url(#paint1_linear_421_1337)"/>
<path d="M275.944 64.6958L275.925 71.6015L242.13 80.1452L242.15 73.2404L275.944 64.6958Z" fill="#F19F1F"/>
<path d="M275.943 64.7058L242.119 73.1541C235.867 72.3756 229.436 71.8393 222.969 71.509C220.149 71.3666 217.319 71.2744 214.499 71.2124C211.392 71.1503 208.272 71.07 205.133 70.922C198.863 70.6257 192.533 70.1592 186.143 69.2393C179.806 68.3067 173.252 66.9425 167.465 64.3883C166.374 63.9075 165.327 63.3789 164.34 62.8095C162.741 61.888 161.303 60.8613 160.098 59.7591C158.166 57.9742 156.82 56.0413 156.04 54.1205C155.623 53.1605 155.388 52.2059 155.17 51.2551C155.004 50.2549 154.902 49.242 155.025 48.241C155.211 46.237 156.012 44.2915 157.283 42.5065C159.815 38.9248 164.038 35.9974 168.824 33.6722C178.494 29.0283 190.446 26.6411 202.305 25.9312C190.712 27.5153 179.795 30.7822 172.06 35.6424C168.229 38.0506 165.265 40.8667 163.953 43.8343C163.257 45.3044 163.035 46.8019 163.226 48.2592C163.304 48.9819 163.554 49.6855 163.84 50.3927C164.181 51.1364 164.543 51.8809 165.028 52.56C166.177 54.2946 167.789 55.762 169.841 56.9449C171.098 57.6701 172.52 58.2881 174.102 58.7945C178.232 60.1652 183.362 60.8695 188.708 61.218C194.07 61.5639 199.687 61.564 205.351 61.3944C208.181 61.3141 211.025 61.1625 213.892 61.0109C217.02 60.8567 220.169 60.7391 223.314 60.6679C235.913 60.4206 248.628 60.8505 261.499 62.378C266.296 62.9611 271.117 63.6968 275.943 64.7058Z" fill="url(#paint2_linear_421_1337)"/>
<path d="M282.646 87.8941L282.626 94.7204C282.625 94.5225 282.582 94.3373 282.538 94.1468C282.456 93.7738 282.304 93.3906 282.083 93.011C281.64 92.2391 280.888 91.4182 279.8 90.5754C279.201 90.1092 278.492 89.6431 277.694 89.1821C275.598 87.9744 272.872 86.804 269.818 85.7694C265.571 84.3308 260.727 83.1149 255.629 82.1088C251.28 81.2631 246.748 80.5532 242.127 79.976L242.146 73.1497C246.767 73.7269 251.298 74.4367 255.648 75.2825C260.747 76.2886 265.59 77.5045 269.837 78.9431C272.892 79.9776 275.617 81.1481 277.713 82.3558C278.512 82.8167 279.22 83.2829 279.819 83.749C280.908 84.5918 281.66 85.4127 282.102 86.1846C282.323 86.5642 282.475 86.9474 282.557 87.3205C282.601 87.5109 282.645 87.6961 282.646 87.8941Z" fill="#352867"/>
<path d="M282.781 88.867L282.761 95.5944L282.649 94.7431L282.669 88.0154L282.781 88.867Z" fill="#352867"/>
<path d="M282.738 90.242L282.719 97.0527C282.72 96.615 282.696 96.1645 282.646 95.701L282.665 88.8906C282.715 89.3529 282.74 89.8043 282.738 90.242Z" fill="#352867"/>
<path d="M281.48 121.981L281.461 128.83L249.706 113.233L249.726 106.384L281.48 121.981Z" fill="#C54AA4"/>
<path d="M312.963 92.9768L312.943 99.8433C312.937 102.128 312.526 104.496 311.54 106.89C309.566 111.851 304.98 116.558 299.445 120.101C296.675 121.889 293.717 123.457 290.705 124.858C287.677 126.224 284.584 127.46 281.48 128.54L281.5 121.673C284.604 120.593 287.696 119.358 290.724 117.991C293.736 116.591 296.694 115.023 299.464 113.234C304.999 109.692 309.585 104.984 311.56 100.023C312.545 97.6298 312.956 95.2625 312.963 92.9768Z" fill="url(#paint3_linear_421_1337)"/>
<path d="M299.949 73.0189C302.936 74.7483 305.663 76.7727 307.807 79.1129C308.881 80.2847 309.795 81.5368 310.523 82.8291C310.889 83.4739 311.197 84.1279 311.463 84.7884L311.658 85.284L311.804 85.6841L312.08 86.4809C313.47 90.7027 313.898 95.5527 311.849 100.509C309.87 105.462 305.276 110.161 299.728 113.697C296.953 115.482 293.989 117.048 290.97 118.446C287.936 119.809 284.837 121.043 281.726 122.121L249.873 106.512C255.125 105.722 260.105 104.774 264.57 103.633C266.734 103.087 268.684 102.486 270.543 101.875C272.333 101.243 273.963 100.585 275.368 99.9036C278.194 98.5241 280.006 97.1446 281.24 95.4191C282.469 93.7015 283.011 91.4704 282.729 88.8479L282.618 87.9806C282.617 87.7817 282.573 87.5958 282.529 87.4044C282.447 87.0297 282.295 86.6449 282.074 86.264C281.632 85.4891 280.88 84.6646 279.792 83.8182C279.192 83.3501 278.485 82.8823 277.686 82.4197C275.59 81.2068 272.866 80.0318 269.812 78.993C265.567 77.5485 260.724 76.3274 255.628 75.3174C251.279 74.468 246.749 73.7556 242.129 73.1757L275.939 64.6958C277.589 65.0336 279.257 65.4119 280.924 65.827C287.381 67.4489 293.973 69.6098 299.949 73.0189Z" fill="url(#paint4_linear_421_1337)"/>
<path d="M281.483 121.833L281.463 128.618C275.291 130.753 269.067 132.389 262.88 133.83C256.618 135.278 250.381 136.478 244.154 137.543C241.043 138.074 237.948 138.565 234.843 139.031L234.862 132.246C237.968 131.78 241.062 131.289 244.173 130.759C250.4 129.694 256.637 128.494 262.899 127.045C269.087 125.604 275.311 123.968 281.483 121.833Z" fill="url(#paint5_linear_421_1337)"/>
<path d="M234.839 132.325L234.819 139.241L230.758 139.904L230.778 132.988L234.839 132.325Z" fill="#C53B66"/>
<path d="M281.483 122.026C275.314 124.179 269.095 125.828 262.912 127.282C256.655 128.742 250.422 129.951 244.2 131.025C241.092 131.56 237.998 132.055 234.895 132.525L230.928 133.181C229.638 133.391 228.374 133.629 227.115 133.858C222.072 134.799 217.205 135.859 212.627 137.057C203.455 139.435 195.381 142.448 189.753 145.783C187.631 147.005 185.918 148.267 184.555 149.526L132.817 141.091C134.97 138.56 137.514 136.175 140.308 133.985C145.495 129.964 151.496 126.561 157.804 123.805C170.46 118.259 183.965 114.899 197.161 112.576C203.779 111.423 210.37 110.538 216.91 109.845C218.547 109.668 220.19 109.496 221.812 109.359L226.592 108.939C229.334 108.722 232.054 108.487 234.754 108.228C239.891 107.723 244.979 107.117 249.816 106.384L281.483 122.026Z" fill="url(#paint6_linear_421_1337)"/>
<path d="M230.763 133.198L230.743 140.079C229.455 140.29 228.192 140.53 226.934 140.76C221.895 141.706 217.033 142.773 212.46 143.977C203.297 146.37 195.23 149.4 189.607 152.754C187.487 153.984 185.777 155.252 184.414 156.519L184.433 149.638C185.797 148.372 187.506 147.102 189.627 145.874C195.249 142.52 203.316 139.489 212.479 137.097C217.053 135.893 221.915 134.826 226.955 133.88C228.211 133.65 229.473 133.41 230.763 133.198Z" fill="url(#paint7_linear_421_1337)"/>
<path d="M184.706 149.734L184.687 156.522L132.819 148.151L132.84 141.364L184.706 149.734Z" fill="#FEFBF5"/>
<path d="M184.7 149.525L184.681 156.358C184.191 156.8 183.751 157.238 183.343 157.683C181.833 159.373 180.929 161.001 180.619 162.642L180.639 155.81C180.949 154.169 181.853 152.541 183.362 150.851C183.77 150.405 184.211 149.966 184.7 149.525Z" fill="#F19F1F"/>
<path d="M180.626 155.939L180.6 162.864C180.403 163.268 180.442 163.69 180.335 164.101L180.361 157.176C180.469 156.766 180.429 156.343 180.626 155.939Z" fill="#F19F1F"/>
<path d="M180.36 157.398L180.341 164.17C180.34 164.343 180.332 164.514 180.331 164.686L180.35 157.914C180.351 157.741 180.36 157.57 180.36 157.398Z" fill="#F19F1F"/>
<path d="M124.653 168.313L124.673 161.473C124.671 162.111 124.689 162.747 124.726 163.379L124.707 170.219C124.67 169.587 124.652 168.952 124.653 168.313Z" fill="#F19F1F"/>
<path d="M124.945 165.432L124.912 172.262L124.653 170.348L124.684 163.518L124.945 165.432Z" fill="#F19F1F"/>
<path d="M125.237 167.158L125.22 174.01L124.945 172.118L124.963 165.265L125.237 167.158Z" fill="#F19F1F"/>
<path d="M125.529 168.275L125.499 175.18L125.237 174.215L125.267 167.31L125.529 168.275Z" fill="#F19F1F"/>
<path d="M125.822 169.222L125.802 176.054L125.53 175.016L125.55 168.184L125.822 169.222Z" fill="#F19F1F"/>
<path d="M126.404 171.171L126.387 178.096C126.186 177.395 125.985 176.693 125.821 175.985L125.838 169.06C126.002 169.768 126.203 170.469 126.404 171.171Z" fill="#F19F1F"/>
<path d="M245.094 172.033L257.29 213.627C242.02 214.636 226.444 214.425 211.03 212.748C195.654 211.062 180.302 207.959 165.978 202.693C160.005 200.482 154.22 197.877 148.888 194.796C147.856 194.2 146.841 193.586 145.844 192.953C139.716 189.067 134.347 184.429 130.587 179.234C128.714 176.647 127.258 173.924 126.261 171.158C126.032 170.465 125.804 169.771 125.619 169.072L125.357 168.032L125.186 167.076L124.871 165.185L124.711 163.266C124.563 160.708 124.708 158.097 125.313 155.485C125.546 154.189 126.008 152.883 126.423 151.599C126.976 150.309 127.454 149.019 128.173 147.769C129.372 145.452 130.924 143.208 132.753 141.07L184.494 149.507C184.01 149.95 183.575 150.388 183.172 150.834C181.682 152.527 180.79 154.157 180.484 155.8C180.342 156.2 180.371 156.617 180.292 157.023C180.322 157.448 180.254 157.853 180.321 158.28C180.369 159.109 180.592 159.972 180.89 160.853L181.129 161.522L181.448 162.2L181.599 162.533C181.841 162.914 181.97 163.063 182.067 163.211C182.535 163.801 183.072 164.365 183.731 164.906C184.454 165.504 185.305 166.096 186.312 166.678C187.128 167.15 188.046 167.614 189.08 168.072C191.36 169.087 194.189 170.042 197.407 170.859C203.847 172.49 211.795 173.48 220.031 173.663C228.281 173.864 236.839 173.288 245.094 172.033Z" fill="url(#paint8_linear_421_1337)"/>
<path d="M257.576 213.502L257.557 220.334C242.272 221.341 226.681 221.131 211.253 219.456C195.862 217.773 180.495 214.674 166.157 209.416C160.179 207.208 154.388 204.607 149.051 201.531C148.018 200.936 147.001 200.322 146.004 199.69C139.87 195.81 134.496 191.179 130.732 185.991C128.858 183.408 127.4 180.69 126.401 177.928L126.42 171.096C127.419 173.857 128.877 176.577 130.751 179.159C134.514 184.346 139.889 188.978 146.023 192.858C147.021 193.49 148.036 194.103 149.07 194.699C154.407 197.775 160.198 200.376 166.177 202.584C180.514 207.842 195.881 210.941 211.272 212.624C226.7 214.299 242.291 214.509 257.576 213.502Z" fill="#F19F1F"/>
<path d="M281.484 121.539L281.377 128.535" stroke="#74207A" stroke-width="0.583002" stroke-linecap="round"/>
<path d="M281.408 162.434C281.63 162.485 281.737 162.838 281.649 163.222L263.798 240.543C263.655 241.163 263.15 241.373 262.998 240.877L236.208 153.25C236.056 152.753 236.408 152.045 236.766 152.127L281.408 162.434Z" fill="url(#paint9_linear_421_1337)"/>
<path d="M160.331 49.5469L166 35.9414C167.901 31.3798 164.549 26.3525 159.607 26.3525C154.666 26.3525 151.314 31.3798 153.215 35.9414L158.884 49.5469C159.152 50.1902 160.063 50.1902 160.331 49.5469Z" fill="#327866" stroke="#FEFBF5" stroke-width="0.784" stroke-linecap="round"/>
<path d="M165.292 33.5068C165.292 30.3676 162.747 27.8228 159.608 27.8228C156.469 27.8228 153.924 30.3676 153.924 33.5068C153.924 36.6459 156.469 39.1908 159.608 39.1908C162.747 39.1908 165.292 36.6459 165.292 33.5068Z" fill="white"/>
<path d="M164.36 33.5067C164.36 30.8817 162.233 28.7537 159.607 28.7537C156.982 28.7537 154.854 30.8817 154.854 33.5067C154.854 36.1317 156.982 38.2597 159.607 38.2597C162.233 38.2597 164.36 36.1317 164.36 33.5067Z" fill="white"/>
<path d="M164.36 33.5067C164.36 30.8817 162.233 28.7537 159.607 28.7537C156.982 28.7537 154.854 30.8817 154.854 33.5067C154.854 36.1317 156.982 38.2597 159.607 38.2597C162.233 38.2597 164.36 36.1317 164.36 33.5067Z" stroke="#327866" stroke-width="0.294"/>
<path d="M159.607 31.0574C158.527 31.0574 157.647 31.9367 157.647 33.0162C157.64 34.5952 159.391 35.8591 159.465 35.9118C159.507 35.9414 159.557 35.9573 159.607 35.9573C159.658 35.9573 159.708 35.9414 159.75 35.9118C159.824 35.8591 161.575 34.5952 161.567 33.0174C161.567 31.9367 160.688 31.0574 159.607 31.0574ZM159.607 35.4025C159.213 35.082 158.132 34.1054 158.137 33.0174C158.137 32.2067 158.797 31.5474 159.607 31.5474C160.418 31.5474 161.077 32.2067 161.077 33.0186C161.083 34.1057 160.002 35.0823 159.607 35.4025Z" fill="#327866"/>
<path d="M159.363 33.4067L158.801 32.845L158.455 33.1914L159.363 34.0996L160.761 32.7014L160.415 32.355L159.363 33.4067Z" fill="#327866"/>
<path d="M296.387 93.0165L305.836 70.341C309.003 62.7381 303.418 54.3591 295.181 54.3591C286.945 54.3591 281.359 62.7381 284.527 70.341L293.975 93.0165C294.422 94.0887 295.941 94.0887 296.387 93.0165Z" fill="#87258F" stroke="#FEFBF5" stroke-width="1.30667" stroke-linecap="round"/>
<path d="M304.654 66.2783C304.654 61.0463 300.412 56.8049 295.18 56.8049C289.948 56.8049 285.707 61.0463 285.707 66.2783C285.707 71.5102 289.948 75.7516 295.18 75.7516C300.412 75.7516 304.654 71.5102 304.654 66.2783Z" fill="white"/>
<path d="M303.102 66.2784C303.102 61.9033 299.555 58.3567 295.18 58.3567C290.805 58.3567 287.259 61.9033 287.259 66.2784C287.259 70.6534 290.805 74.2 295.18 74.2C299.555 74.2 303.102 70.6534 303.102 66.2784Z" fill="white"/>
<path d="M303.102 66.2784C303.102 61.9033 299.555 58.3567 295.18 58.3567C290.805 58.3567 287.259 61.9033 287.259 66.2784C287.259 70.6534 290.805 74.2 295.18 74.2C299.555 74.2 303.102 70.6534 303.102 66.2784Z" stroke="#87258F" stroke-width="0.49"/>
<path d="M295.182 62.1953C293.381 62.1953 291.915 63.6611 291.915 65.46C291.903 68.0916 294.821 70.1983 294.945 70.2862C295.014 70.3355 295.097 70.362 295.182 70.362C295.267 70.362 295.349 70.3355 295.419 70.2862C295.543 70.1983 298.46 68.0916 298.448 65.462C298.448 63.6611 296.983 62.1953 295.182 62.1953ZM295.182 69.4372C294.524 68.9031 292.723 67.2756 292.732 65.462C292.732 64.1109 293.83 63.012 295.182 63.012C296.533 63.012 297.632 64.1109 297.632 65.4643C297.64 67.276 295.84 68.9034 295.182 69.4372Z" fill="#87258F"/>
<path d="M294.773 66.1103L293.837 65.1741L293.26 65.7513L294.773 67.2651L297.104 64.9346L296.526 64.3574L294.773 66.1103Z" fill="#87258F"/>
<path d="M160.623 174.211L177.485 133.742C183.138 120.173 173.17 105.22 158.47 105.22C143.771 105.22 133.802 120.173 139.456 133.742L156.318 174.211C157.115 176.125 159.826 176.125 160.623 174.211Z" fill="#E8D327" stroke="#FEFBF5" stroke-width="2.332" stroke-linecap="round"/>
<path d="M175.377 126.496C175.377 117.158 167.808 109.589 158.47 109.589C149.133 109.589 141.563 117.158 141.563 126.496C141.563 135.833 149.133 143.403 158.47 143.403C167.808 143.403 175.377 135.833 175.377 126.496Z" fill="white"/>
<path d="M172.608 126.496C172.608 118.688 166.278 112.358 158.47 112.358C150.662 112.358 144.332 118.688 144.332 126.496C144.332 134.304 150.662 140.634 158.47 140.634C166.278 140.634 172.608 134.304 172.608 126.496Z" fill="white"/>
<path d="M172.608 126.496C172.608 118.688 166.278 112.358 158.47 112.358C150.662 112.358 144.332 118.688 144.332 126.496C144.332 134.304 150.662 140.634 158.47 140.634C166.278 140.634 172.608 134.304 172.608 126.496Z" stroke="#E8D327" stroke-width="0.8745"/>
<path d="M158.471 119.208C155.256 119.208 152.641 121.824 152.641 125.035C152.62 129.732 157.827 133.491 158.048 133.648C158.171 133.736 158.319 133.783 158.471 133.783C158.622 133.783 158.77 133.736 158.893 133.648C159.115 133.491 164.322 129.732 164.301 125.039C164.301 121.824 161.685 119.208 158.471 119.208ZM158.471 132.133C157.297 131.18 154.083 128.275 154.098 125.039C154.098 122.627 156.059 120.666 158.471 120.666C160.882 120.666 162.843 122.627 162.843 125.042C162.859 128.275 159.645 131.18 158.471 132.133Z" fill="#E8D327"/>
<path d="M157.743 126.196L156.071 124.525L155.041 125.556L157.743 128.257L161.901 124.098L160.871 123.068L157.743 126.196Z" fill="#E8D327"/>
<path d="M59.5391 28.3792C59.5391 29.3414 60.3191 30.1214 61.2813 30.1214C62.2435 30.1214 63.0235 29.3414 63.0235 28.3792C63.0235 27.417 62.2435 26.637 61.2813 26.637C60.3191 26.637 59.5391 27.417 59.5391 28.3792ZM145.779 28.3792C145.779 29.3414 146.559 30.1214 147.521 30.1214C148.484 30.1214 149.263 29.3414 149.263 28.3792C149.263 27.417 148.484 26.637 147.521 26.637C146.559 26.637 145.779 27.417 145.779 28.3792ZM61.2813 28.7058H147.521V28.0525H61.2813V28.7058Z" fill="#327866"/>
<path d="M217 35.5C217 36.8807 218.196 38 219.673 38C221.15 38 222.346 36.8807 222.346 35.5C222.346 34.1193 221.15 33 219.673 33C218.196 33 217 34.1193 217 35.5ZM353.499 35.9688C353.775 35.9688 354 35.7589 354 35.5C354 35.2411 353.775 35.0312 353.499 35.0312V35.9688ZM219.673 35.9688H353.499V35.0312H219.673V35.9688Z" fill="#4BABC2"/>
<path d="M380.219 40.2985C380.503 39.3639 379.986 38.4732 379.065 38.3087C378.144 38.1442 377.168 38.7686 376.884 39.7029C376.6 40.6375 377.116 41.5283 378.037 41.6928C378.958 41.8572 379.935 41.2329 380.219 40.2985ZM353.604 35.212C353.431 35.1813 353.248 35.2983 353.195 35.4736C353.142 35.6488 353.238 35.8157 353.411 35.8465C353.411 35.8465 353.528 35.4598 353.604 35.212ZM378.648 39.6834L366.126 37.4477L362.995 36.8888L359.865 36.3299C359.865 36.3299 357.957 35.9892 356.734 35.7709C355.512 35.5527 354.826 35.4303 353.604 35.212C353.528 35.4598 353.411 35.8465 353.411 35.8465L378.455 40.3181L378.648 39.6834Z" fill="#4BABC2"/>
<path d="M278.294 73.4592C278.294 72.4968 277.514 71.717 276.551 71.717C275.589 71.717 274.809 72.4968 274.809 73.4592C274.809 74.4215 275.589 75.2013 276.551 75.2013C277.514 75.2013 278.294 74.4215 278.294 73.4592ZM118.445 73.1325C118.265 73.1325 118.118 73.2788 118.118 73.4592C118.118 73.6395 118.265 73.7858 118.445 73.7858V73.1325ZM276.551 73.1325H118.445V73.7858H276.551V73.1325Z" fill="#87258F"/>
<path d="M205.78 65.7348L213.338 47.5943C215.873 41.5121 211.404 34.8091 204.815 34.8091C198.226 34.8091 193.757 41.5121 196.291 47.5943L203.85 65.7348C204.207 66.5926 205.422 66.5926 205.78 65.7348Z" fill="#4BABC2" stroke="#FEFBF5" stroke-width="1.04533" stroke-linecap="round"/>
<path d="M212.395 44.345C212.395 40.1594 209.002 36.7664 204.816 36.7664C200.63 36.7664 197.237 40.1594 197.237 44.345C197.237 48.5306 200.63 51.9237 204.816 51.9237C209.002 51.9237 212.395 48.5306 212.395 44.345Z" fill="white"/>
<path d="M211.153 44.3449C211.153 40.8449 208.316 38.0076 204.816 38.0076C201.316 38.0076 198.479 40.8449 198.479 44.3449C198.479 47.8449 201.316 50.6822 204.816 50.6822C208.316 50.6822 211.153 47.8449 211.153 44.3449Z" fill="white"/>
<path d="M211.153 44.3449C211.153 40.8449 208.316 38.0076 204.816 38.0076C201.316 38.0076 198.479 40.8449 198.479 44.3449C198.479 47.8449 201.316 50.6822 204.816 50.6822C208.316 50.6822 211.153 47.8449 211.153 44.3449Z" stroke="#4BABC2" stroke-width="0.392"/>
<path d="M204.815 41.0796C203.374 41.0796 202.201 42.252 202.201 43.6913C202.192 45.7967 204.526 47.4819 204.625 47.5522C204.68 47.5917 204.747 47.6129 204.815 47.6129C204.882 47.6129 204.948 47.5917 205.004 47.5522C205.103 47.4819 207.437 45.7967 207.428 43.6929C207.428 42.252 206.255 41.0796 204.815 41.0796ZM204.815 46.873C204.288 46.4457 202.848 45.1436 202.855 43.6929C202.855 42.612 203.734 41.7329 204.815 41.7329C205.895 41.7329 206.775 42.612 206.775 43.6946C206.781 45.144 205.341 46.4461 204.815 46.873Z" fill="#4BABC2"/>
<path d="M204.488 44.2102L203.739 43.4612L203.277 43.9231L204.488 45.1341L206.353 43.2698L205.891 42.8079L204.488 44.2102Z" fill="#4BABC2"/>
<path d="M232.209 116.811L243.547 89.5997C247.348 80.4766 240.645 70.4221 230.761 70.4221C220.878 70.4221 214.175 80.4766 217.976 89.5997L229.314 116.811C229.85 118.097 231.673 118.097 232.209 116.811Z" fill="#D44F47" stroke="#FEFBF5" stroke-width="1.568" stroke-linecap="round"/>
<path d="M242.131 84.7291C242.131 78.4507 237.041 73.3611 230.763 73.3611C224.484 73.3611 219.395 78.4507 219.395 84.7291C219.395 91.0075 224.484 96.0971 230.763 96.0971C237.041 96.0971 242.131 91.0075 242.131 84.7291Z" fill="white"/>
<path d="M240.269 84.7291C240.269 79.4791 236.013 75.2231 230.763 75.2231C225.513 75.2231 221.257 79.4791 221.257 84.7291C221.257 89.9792 225.513 94.2351 230.763 94.2351C236.013 94.2351 240.269 89.9792 240.269 84.7291Z" fill="white"/>
<path d="M240.269 84.7291C240.269 79.4791 236.013 75.2231 230.763 75.2231C225.513 75.2231 221.257 79.4791 221.257 84.7291C221.257 89.9792 225.513 94.2351 230.763 94.2351C236.013 94.2351 240.269 89.9792 240.269 84.7291Z" stroke="#D44F47" stroke-width="0.588"/>
<path d="M230.762 79.8306C228.601 79.8306 226.842 81.5893 226.842 83.7483C226.828 86.9062 230.329 89.4342 230.478 89.5394C230.561 89.5986 230.66 89.6306 230.762 89.6306C230.864 89.6306 230.963 89.5986 231.046 89.5394C231.195 89.4342 234.696 86.9062 234.682 83.7506C234.682 81.5893 232.923 79.8306 230.762 79.8306ZM230.762 88.5209C229.973 87.88 227.812 85.9268 227.822 83.7506C227.822 82.1293 229.141 80.8106 230.762 80.8106C232.383 80.8106 233.702 82.1293 233.702 83.7532C233.712 85.9271 231.552 87.8803 230.762 88.5209Z" fill="#D44F47"/>
<path d="M230.271 84.5236L229.148 83.4002L228.455 84.093L230.271 85.9093L233.068 83.113L232.375 82.4202L230.271 84.5236Z" fill="#D44F47"/>
<path d="M364.443 102.969C364.75 102.969 365 102.759 365 102.5C365 102.241 364.75 102.031 364.443 102.031V102.969ZM250.944 102.5C250.944 101.119 249.614 100 247.972 100C246.33 100 245 101.119 245 102.5C245 103.881 246.33 105 247.972 105C249.614 105 250.944 103.881 250.944 102.5ZM364.443 102.031H247.972V102.969H364.443V102.031Z" fill="#D44F47"/>
<path d="M364.559 102.097C364.432 101.969 364.225 101.968 364.097 102.094C363.969 102.221 363.968 102.428 364.094 102.556L364.559 102.097ZM377.321 115.471C376.637 116.147 376.631 117.25 377.307 117.934C377.984 118.619 379.086 118.625 379.771 117.948C380.455 117.272 380.461 116.169 379.785 115.485C379.108 114.8 378.005 114.794 377.321 115.471ZM364.094 102.556L378.314 116.939L378.778 116.48L364.559 102.097L364.094 102.556Z" fill="#D44F47"/>
<path d="M145.482 169.499C145.482 168.641 144.786 167.945 143.927 167.945C143.069 167.945 142.373 168.641 142.373 169.499C142.373 170.358 143.069 171.054 143.927 171.054C144.786 171.054 145.482 170.358 145.482 169.499ZM110.281 169.208C110.12 169.208 109.989 169.338 109.989 169.499C109.989 169.66 110.12 169.791 110.281 169.791V169.208ZM143.927 169.208H110.281V169.791H143.927V169.208Z" fill="#E8D327"/>
<path d="M385.15 41.6256V41.1813L387.012 39.3847C387.178 39.2279 387.3 39.0907 387.378 38.9731C387.461 38.8511 387.515 38.7401 387.541 38.6399C387.572 38.5353 387.587 38.4351 387.587 38.3393C387.587 38.1041 387.505 37.919 387.339 37.784C387.174 37.649 386.932 37.5815 386.614 37.5815C386.37 37.5815 386.15 37.6229 385.954 37.7056C385.758 37.784 385.588 37.9081 385.444 38.078L385 37.6925C385.174 37.4704 385.407 37.3005 385.699 37.1829C385.995 37.061 386.32 37 386.673 37C386.991 37 387.267 37.0523 387.502 37.1568C387.737 37.257 387.918 37.4029 388.045 37.5945C388.175 37.7862 388.241 38.0127 388.241 38.274C388.241 38.4221 388.221 38.568 388.182 38.7117C388.143 38.8555 388.069 39.0079 387.96 39.1691C387.851 39.3302 387.694 39.511 387.489 39.7113L385.83 41.312L385.673 41.0572H388.437V41.6256H385.15ZM390.836 41.6779C390.479 41.6779 390.159 41.5864 389.875 41.4035C389.597 41.2205 389.375 40.9549 389.209 40.6064C389.048 40.2579 388.967 39.8355 388.967 39.3389C388.967 38.8424 389.048 38.4199 389.209 38.0715C389.375 37.723 389.597 37.4573 389.875 37.2744C390.159 37.0915 390.479 37 390.836 37C391.189 37 391.507 37.0915 391.79 37.2744C392.073 37.4573 392.295 37.723 392.456 38.0715C392.617 38.4199 392.698 38.8424 392.698 39.3389C392.698 39.8355 392.617 40.2579 392.456 40.6064C392.295 40.9549 392.073 41.2205 391.79 41.4035C391.507 41.5864 391.189 41.6779 390.836 41.6779ZM390.836 41.0964C391.075 41.0964 391.284 41.0311 391.463 40.9004C391.646 40.7697 391.787 40.5737 391.888 40.3124C391.992 40.0511 392.045 39.7266 392.045 39.3389C392.045 38.9513 391.992 38.6268 391.888 38.3655C391.787 38.1041 391.646 37.9081 391.463 37.7775C391.284 37.6468 391.075 37.5815 390.836 37.5815C390.596 37.5815 390.385 37.6468 390.202 37.7775C390.019 37.9081 389.875 38.1041 389.771 38.3655C389.671 38.6268 389.621 38.9513 389.621 39.3389C389.621 39.7266 389.671 40.0511 389.771 40.3124C389.875 40.5737 390.019 40.7697 390.202 40.9004C390.385 41.0311 390.596 41.0964 390.836 41.0964ZM393.253 41.6256V41.1813L395.115 39.3847C395.281 39.2279 395.403 39.0907 395.481 38.9731C395.564 38.8511 395.618 38.7401 395.644 38.6399C395.675 38.5353 395.69 38.4351 395.69 38.3393C395.69 38.1041 395.608 37.919 395.442 37.784C395.276 37.649 395.035 37.5815 394.717 37.5815C394.473 37.5815 394.253 37.6229 394.057 37.7056C393.861 37.784 393.691 37.9081 393.547 38.078L393.103 37.6925C393.277 37.4704 393.51 37.3005 393.802 37.1829C394.098 37.061 394.423 37 394.775 37C395.093 37 395.37 37.0523 395.605 37.1568C395.84 37.257 396.021 37.4029 396.148 37.5945C396.278 37.7862 396.343 38.0127 396.343 38.274C396.343 38.4221 396.324 38.568 396.285 38.7117C396.245 38.8555 396.171 39.0079 396.063 39.1691C395.954 39.3302 395.797 39.511 395.592 39.7113L393.933 41.312L393.776 41.0572H396.539V41.6256H393.253ZM397.847 41.6256V37.3136L398.128 37.6207H396.815V37.0523H398.494V41.6256H397.847Z" fill="#4BABC2"/>
<path d="M384.335 122.459V122.015L386.197 120.218C386.362 120.061 386.484 119.924 386.563 119.807C386.645 119.685 386.7 119.574 386.726 119.473C386.756 119.369 386.772 119.269 386.772 119.173C386.772 118.938 386.689 118.752 386.523 118.617C386.358 118.483 386.116 118.415 385.798 118.415C385.554 118.415 385.334 118.456 385.138 118.539C384.942 118.617 384.773 118.742 384.629 118.912L384.185 118.526C384.359 118.304 384.592 118.134 384.884 118.016C385.18 117.895 385.504 117.833 385.857 117.833C386.175 117.833 386.452 117.886 386.687 117.99C386.922 118.091 387.103 118.236 387.229 118.428C387.36 118.62 387.425 118.846 387.425 119.107C387.425 119.255 387.406 119.401 387.366 119.545C387.327 119.689 387.253 119.842 387.144 120.003C387.035 120.164 386.878 120.345 386.674 120.545L385.014 122.145L384.858 121.891H387.621V122.459H384.335ZM390.02 122.511C389.663 122.511 389.343 122.42 389.06 122.237C388.781 122.054 388.559 121.788 388.394 121.44C388.232 121.091 388.152 120.669 388.152 120.172C388.152 119.676 388.232 119.254 388.394 118.905C388.559 118.556 388.781 118.291 389.06 118.108C389.343 117.925 389.663 117.833 390.02 117.833C390.373 117.833 390.691 117.925 390.974 118.108C391.257 118.291 391.479 118.556 391.641 118.905C391.802 119.254 391.882 119.676 391.882 120.172C391.882 120.669 391.802 121.091 391.641 121.44C391.479 121.788 391.257 122.054 390.974 122.237C390.691 122.42 390.373 122.511 390.02 122.511ZM390.02 121.93C390.26 121.93 390.469 121.865 390.648 121.734C390.831 121.603 390.972 121.407 391.072 121.146C391.177 120.885 391.229 120.56 391.229 120.172C391.229 119.785 391.177 119.46 391.072 119.199C390.972 118.938 390.831 118.742 390.648 118.611C390.469 118.48 390.26 118.415 390.02 118.415C389.781 118.415 389.57 118.48 389.387 118.611C389.204 118.742 389.06 118.938 388.956 119.199C388.855 119.46 388.805 119.785 388.805 120.172C388.805 120.56 388.855 120.885 388.956 121.146C389.06 121.407 389.204 121.603 389.387 121.734C389.57 121.865 389.781 121.93 390.02 121.93ZM392.438 122.459V122.015L394.3 120.218C394.465 120.061 394.587 119.924 394.666 119.807C394.748 119.685 394.803 119.574 394.829 119.473C394.859 119.369 394.875 119.269 394.875 119.173C394.875 118.938 394.792 118.752 394.626 118.617C394.461 118.483 394.219 118.415 393.901 118.415C393.657 118.415 393.437 118.456 393.241 118.539C393.045 118.617 392.876 118.742 392.732 118.912L392.288 118.526C392.462 118.304 392.695 118.134 392.987 118.016C393.283 117.895 393.607 117.833 393.96 117.833C394.278 117.833 394.555 117.886 394.79 117.99C395.025 118.091 395.206 118.236 395.332 118.428C395.463 118.62 395.528 118.846 395.528 119.107C395.528 119.255 395.508 119.401 395.469 119.545C395.43 119.689 395.356 119.842 395.247 120.003C395.138 120.164 394.981 120.345 394.777 120.545L393.117 122.145L392.96 121.891H395.724V122.459H392.438ZM397.659 122.511C397.337 122.511 397.023 122.461 396.718 122.361C396.418 122.261 396.172 122.126 395.98 121.956L396.281 121.44C396.433 121.584 396.631 121.701 396.875 121.793C397.119 121.884 397.381 121.93 397.659 121.93C397.999 121.93 398.263 121.858 398.45 121.714C398.642 121.566 398.737 121.368 398.737 121.12C398.737 120.88 398.646 120.689 398.463 120.545C398.284 120.397 397.999 120.323 397.607 120.323H397.241V119.865L398.6 118.193L398.692 118.454H396.189V117.886H399.208V118.33L397.855 119.996L397.515 119.793H397.731C398.284 119.793 398.698 119.918 398.972 120.166C399.251 120.414 399.391 120.73 399.391 121.113C399.391 121.37 399.328 121.606 399.201 121.819C399.075 122.032 398.883 122.202 398.626 122.328C398.374 122.45 398.051 122.511 397.659 122.511Z" fill="#D44F47"/>
<path d="M353.267 35.4573C353.317 35.1856 353.577 35.0052 353.848 35.0544L377.404 39.3186C377.676 39.3678 377.856 39.628 377.807 39.8997V39.8997C377.758 40.1714 377.497 40.3518 377.226 40.3026L353.67 36.0384C353.399 35.9892 353.218 35.7291 353.267 35.4573V35.4573Z" fill="#4BABC2"/>
<path d="M364.351 102.356C364.545 102.159 364.862 102.157 365.058 102.351L377.935 115.04C378.132 115.234 378.134 115.55 377.941 115.747V115.747C377.747 115.944 377.43 115.946 377.233 115.752L364.356 103.063C364.16 102.869 364.157 102.553 364.351 102.356V102.356Z" fill="#D44F47"/>
<defs>
<linearGradient id="paint0_linear_421_1337" x1="269.379" y1="240.671" x2="311.407" y2="194.951" gradientUnits="userSpaceOnUse">
<stop stop-color="#E77923"/>
<stop offset="0.465" stop-color="#ECA41C"/>
<stop offset="1" stop-color="#E77923"/>
</linearGradient>
<linearGradient id="paint1_linear_421_1337" x1="236.112" y1="74.7645" x2="155.837" y2="55.4683" gradientUnits="userSpaceOnUse">
<stop stop-color="#37A6C8"/>
<stop offset="1" stop-color="#2D6C5C"/>
</linearGradient>
<linearGradient id="paint2_linear_421_1337" x1="196.147" y1="26.2951" x2="259.941" y2="70.0573" gradientUnits="userSpaceOnUse">
<stop stop-color="#317765"/>
<stop offset="1" stop-color="#59B5D2"/>
</linearGradient>
<linearGradient id="paint3_linear_421_1337" x1="282.075" y1="123.006" x2="315.542" y2="96.871" gradientUnits="userSpaceOnUse">
<stop stop-color="#741F7A"/>
<stop offset="1" stop-color="#451F60"/>
</linearGradient>
<linearGradient id="paint4_linear_421_1337" x1="277.692" y1="64.6958" x2="277.692" y2="122.121" gradientUnits="userSpaceOnUse">
<stop offset="0.06" stop-color="#332866"/>
<stop offset="1" stop-color="#902493"/>
</linearGradient>
<linearGradient id="paint5_linear_421_1337" x1="282.099" y1="125.543" x2="234.881" y2="135.535" gradientUnits="userSpaceOnUse">
<stop stop-color="#AE388E"/>
<stop offset="1" stop-color="#C53A65"/>
</linearGradient>
<linearGradient id="paint6_linear_421_1337" x1="255.866" y1="110.747" x2="158.792" y2="145.27" gradientUnits="userSpaceOnUse">
<stop stop-color="#C54AA4"/>
<stop offset="1" stop-color="#D9501E"/>
</linearGradient>
<linearGradient id="paint7_linear_421_1337" x1="185.353" y1="150.969" x2="233.03" y2="135.627" gradientUnits="userSpaceOnUse">
<stop stop-color="#A93F1F"/>
<stop offset="1" stop-color="#C63969"/>
</linearGradient>
<linearGradient id="paint8_linear_421_1337" x1="247.211" y1="191.234" x2="148.368" y2="145.347" gradientUnits="userSpaceOnUse">
<stop stop-color="#EDBD1F"/>
<stop offset="1" stop-color="#E39E1D"/>
</linearGradient>
<linearGradient id="paint9_linear_421_1337" x1="266.001" y1="217.102" x2="296.363" y2="177.119" gradientUnits="userSpaceOnUse">
<stop stop-color="#E7D122"/>
<stop offset="1" stop-color="#F2EF91"/>
</linearGradient>
</defs>
</svg>
