<svg width="1752" height="1115" viewBox="0 0 1752 1115" fill="none" xmlns="http://www.w3.org/2000/svg">
<path d="M155.478 123.406V121.637L162.892 114.483C163.551 113.859 164.037 113.313 164.349 112.844C164.679 112.359 164.895 111.917 165 111.518C165.121 111.101 165.182 110.703 165.182 110.321C165.182 109.384 164.852 108.647 164.193 108.11C163.534 107.572 162.571 107.303 161.305 107.303C160.334 107.303 159.458 107.468 158.678 107.798C157.898 108.11 157.221 108.604 156.649 109.28L154.88 107.746C155.574 106.861 156.501 106.185 157.663 105.716C158.843 105.231 160.135 104.988 161.54 104.988C162.806 104.988 163.907 105.196 164.843 105.612C165.78 106.011 166.5 106.592 167.003 107.355C167.523 108.118 167.783 109.02 167.783 110.061C167.783 110.65 167.705 111.232 167.549 111.804C167.393 112.376 167.098 112.983 166.664 113.625C166.231 114.267 165.607 114.986 164.791 115.784L158.184 122.158L157.559 121.143H168.564V123.406H155.478ZM178.117 123.614C176.695 123.614 175.42 123.25 174.293 122.522C173.183 121.793 172.299 120.736 171.64 119.348C170.998 117.961 170.677 116.278 170.677 114.301C170.677 112.324 170.998 110.642 171.64 109.254C172.299 107.867 173.183 106.809 174.293 106.081C175.42 105.352 176.695 104.988 178.117 104.988C179.522 104.988 180.788 105.352 181.915 106.081C183.043 106.809 183.927 107.867 184.569 109.254C185.21 110.642 185.531 112.324 185.531 114.301C185.531 116.278 185.21 117.961 184.569 119.348C183.927 120.736 183.043 121.793 181.915 122.522C180.788 123.25 179.522 123.614 178.117 123.614ZM178.117 121.299C179.071 121.299 179.904 121.039 180.615 120.519C181.343 119.998 181.907 119.218 182.306 118.177C182.722 117.137 182.93 115.845 182.93 114.301C182.93 112.758 182.722 111.466 182.306 110.425C181.907 109.384 181.343 108.604 180.615 108.084C179.904 107.563 179.071 107.303 178.117 107.303C177.163 107.303 176.322 107.563 175.594 108.084C174.865 108.604 174.293 109.384 173.877 110.425C173.478 111.466 173.279 112.758 173.279 114.301C173.279 115.845 173.478 117.137 173.877 118.177C174.293 119.218 174.865 119.998 175.594 120.519C176.322 121.039 177.163 121.299 178.117 121.299ZM187.742 123.406V121.637L195.156 114.483C195.816 113.859 196.301 113.313 196.613 112.844C196.943 112.359 197.16 111.917 197.264 111.518C197.385 111.101 197.446 110.703 197.446 110.321C197.446 109.384 197.116 108.647 196.457 108.11C195.798 107.572 194.836 107.303 193.57 107.303C192.598 107.303 191.723 107.468 190.942 107.798C190.162 108.11 189.485 108.604 188.913 109.28L187.144 107.746C187.838 106.861 188.766 106.185 189.928 105.716C191.107 105.231 192.399 104.988 193.804 104.988C195.07 104.988 196.171 105.196 197.108 105.612C198.044 106.011 198.764 106.592 199.267 107.355C199.787 108.118 200.047 109.02 200.047 110.061C200.047 110.65 199.969 111.232 199.813 111.804C199.657 112.376 199.362 112.983 198.929 113.625C198.495 114.267 197.871 114.986 197.056 115.784L190.448 122.158L189.824 121.143H200.828V123.406H187.742ZM210.381 123.614C208.959 123.614 207.684 123.25 206.557 122.522C205.447 121.793 204.563 120.736 203.904 119.348C203.262 117.961 202.941 116.278 202.941 114.301C202.941 112.324 203.262 110.642 203.904 109.254C204.563 107.867 205.447 106.809 206.557 106.081C207.684 105.352 208.959 104.988 210.381 104.988C211.786 104.988 213.052 105.352 214.179 106.081C215.307 106.809 216.191 107.867 216.833 109.254C217.475 110.642 217.795 112.324 217.795 114.301C217.795 116.278 217.475 117.961 216.833 119.348C216.191 120.736 215.307 121.793 214.179 122.522C213.052 123.25 211.786 123.614 210.381 123.614ZM210.381 121.299C211.335 121.299 212.168 121.039 212.879 120.519C213.607 119.998 214.171 119.218 214.57 118.177C214.986 117.137 215.194 115.845 215.194 114.301C215.194 112.758 214.986 111.466 214.57 110.425C214.171 109.384 213.607 108.604 212.879 108.084C212.168 107.563 211.335 107.303 210.381 107.303C209.427 107.303 208.586 107.563 207.858 108.084C207.129 108.604 206.557 109.384 206.141 110.425C205.742 111.466 205.543 112.758 205.543 114.301C205.543 115.845 205.742 117.137 206.141 118.177C206.557 119.218 207.129 119.998 207.858 120.519C208.586 121.039 209.427 121.299 210.381 121.299Z" fill="#327866"/>
<path d="M155.373 503.219V501.45L162.787 494.296C163.446 493.672 163.932 493.126 164.244 492.657C164.573 492.172 164.79 491.73 164.894 491.331C165.015 490.914 165.076 490.515 165.076 490.134C165.076 489.197 164.747 488.46 164.088 487.923C163.429 487.386 162.466 487.116 161.2 487.116C160.229 487.116 159.353 487.282 158.573 487.611C157.792 487.923 157.116 488.417 156.543 489.093L154.774 487.559C155.468 486.674 156.396 485.998 157.558 485.529C158.737 485.044 160.029 484.801 161.434 484.801C162.7 484.801 163.801 485.009 164.738 485.425C165.675 485.825 166.394 486.405 166.897 487.168C167.418 487.932 167.678 488.833 167.678 489.874C167.678 490.463 167.6 491.045 167.444 491.617C167.287 492.189 166.993 492.797 166.559 493.438C166.125 494.079 165.501 494.8 164.686 495.597L158.078 501.971L157.454 500.956H168.458V503.219H155.373ZM178.012 503.427C176.59 503.427 175.315 503.063 174.188 502.335C173.078 501.606 172.193 500.549 171.534 499.161C170.892 497.773 170.572 496.091 170.572 494.114C170.572 492.137 170.892 490.455 171.534 489.067C172.193 487.68 173.078 486.622 174.188 485.894C175.315 485.165 176.59 484.801 178.012 484.801C179.416 484.801 180.683 485.165 181.81 485.894C182.937 486.622 183.822 487.68 184.463 489.067C185.105 490.455 185.426 492.137 185.426 494.114C185.426 496.091 185.105 497.773 184.463 499.161C183.822 500.549 182.937 501.606 181.81 502.335C180.683 503.063 179.416 503.427 178.012 503.427ZM178.012 501.112C178.966 501.112 179.798 500.852 180.509 500.332C181.237 499.811 181.801 499.031 182.2 497.99C182.616 496.95 182.824 495.658 182.824 494.114C182.824 492.57 182.616 491.279 182.2 490.238C181.801 489.197 181.237 488.417 180.509 487.897C179.798 487.376 178.966 487.116 178.012 487.116C177.058 487.116 176.217 487.376 175.488 487.897C174.76 488.417 174.188 489.197 173.771 490.238C173.372 491.279 173.173 492.57 173.173 494.114C173.173 495.658 173.372 496.95 173.771 497.99C174.188 499.031 174.76 499.811 175.488 500.332C176.217 500.852 177.058 501.112 178.012 501.112ZM187.637 503.219V501.45L195.051 494.296C195.71 493.672 196.196 493.126 196.508 492.657C196.837 492.172 197.054 491.73 197.158 491.331C197.28 490.914 197.34 490.515 197.34 490.134C197.34 489.197 197.011 488.46 196.352 487.923C195.693 487.386 194.73 487.116 193.464 487.116C192.493 487.116 191.617 487.282 190.837 487.611C190.056 487.923 189.38 488.417 188.808 489.093L187.039 487.559C187.732 486.674 188.66 485.998 189.822 485.529C191.001 485.044 192.294 484.801 193.698 484.801C194.964 484.801 196.066 485.009 197.002 485.425C197.939 485.825 198.658 486.405 199.161 487.168C199.682 487.932 199.942 488.833 199.942 489.874C199.942 490.463 199.864 491.045 199.708 491.617C199.552 492.189 199.257 492.797 198.823 493.438C198.39 494.079 197.765 494.8 196.95 495.597L190.342 501.971L189.718 500.956H200.722V503.219H187.637ZM202.575 503.219V501.45L209.989 494.296C210.648 493.672 211.134 493.126 211.446 492.657C211.775 492.172 211.992 491.73 212.096 491.331C212.218 490.914 212.278 490.515 212.278 490.134C212.278 489.197 211.949 488.46 211.29 487.923C210.631 487.386 209.668 487.116 208.402 487.116C207.431 487.116 206.555 487.282 205.775 487.611C204.994 487.923 204.318 488.417 203.746 489.093L201.977 487.559C202.67 486.674 203.598 485.998 204.76 485.529C205.939 485.044 207.231 484.801 208.636 484.801C209.902 484.801 211.004 485.009 211.94 485.425C212.877 485.825 213.596 486.405 214.099 487.168C214.62 487.932 214.88 488.833 214.88 489.874C214.88 490.463 214.802 491.045 214.646 491.617C214.49 492.189 214.195 492.797 213.761 493.438C213.328 494.079 212.703 494.8 211.888 495.597L205.28 501.971L204.656 500.956H215.66V503.219H202.575Z" fill="#87258F"/>
<path d="M155.687 883.031V881.262L163.101 874.108C163.76 873.483 164.246 872.937 164.558 872.469C164.888 871.984 165.104 871.541 165.208 871.142C165.33 870.726 165.391 870.327 165.391 869.945C165.391 869.009 165.061 868.271 164.402 867.734C163.743 867.197 162.781 866.928 161.514 866.928C160.543 866.928 159.667 867.093 158.887 867.422C158.107 867.734 157.43 868.229 156.858 868.905L155.089 867.37C155.783 866.486 156.71 865.809 157.872 865.341C159.052 864.856 160.344 864.613 161.749 864.613C163.015 864.613 164.116 864.821 165.052 865.237C165.989 865.636 166.709 866.216 167.212 866.98C167.732 867.743 167.992 868.645 167.992 869.685C167.992 870.275 167.914 870.856 167.758 871.428C167.602 872.001 167.307 872.608 166.873 873.249C166.44 873.891 165.816 874.611 165 875.409L158.393 881.782L157.768 880.768H168.772V883.031H155.687ZM178.326 883.239C176.904 883.239 175.629 882.875 174.502 882.146C173.392 881.418 172.508 880.36 171.849 878.973C171.207 877.585 170.886 875.903 170.886 873.926C170.886 871.949 171.207 870.267 171.849 868.879C172.508 867.491 173.392 866.434 174.502 865.705C175.629 864.977 176.904 864.613 178.326 864.613C179.731 864.613 180.997 864.977 182.124 865.705C183.252 866.434 184.136 867.491 184.778 868.879C185.419 870.267 185.74 871.949 185.74 873.926C185.74 875.903 185.419 877.585 184.778 878.973C184.136 880.36 183.252 881.418 182.124 882.146C180.997 882.875 179.731 883.239 178.326 883.239ZM178.326 880.924C179.28 880.924 180.112 880.664 180.824 880.143C181.552 879.623 182.116 878.842 182.515 877.802C182.931 876.761 183.139 875.47 183.139 873.926C183.139 872.382 182.931 871.09 182.515 870.05C182.116 869.009 181.552 868.228 180.824 867.708C180.112 867.188 179.28 866.928 178.326 866.928C177.372 866.928 176.531 867.188 175.803 867.708C175.074 868.228 174.502 869.009 174.086 870.05C173.687 871.09 173.487 872.382 173.487 873.926C173.487 875.47 173.687 876.761 174.086 877.802C174.502 878.842 175.074 879.623 175.803 880.143C176.531 880.664 177.372 880.924 178.326 880.924ZM187.951 883.031V881.262L195.365 874.108C196.025 873.483 196.51 872.937 196.822 872.469C197.152 871.984 197.369 871.541 197.473 871.142C197.594 870.726 197.655 870.327 197.655 869.945C197.655 869.009 197.325 868.271 196.666 867.734C196.007 867.197 195.045 866.928 193.779 866.928C192.807 866.928 191.932 867.093 191.151 867.422C190.371 867.734 189.694 868.229 189.122 868.905L187.353 867.37C188.047 866.486 188.975 865.809 190.137 865.341C191.316 864.856 192.608 864.613 194.013 864.613C195.279 864.613 196.38 864.821 197.317 865.237C198.253 865.636 198.973 866.216 199.476 866.98C199.996 867.743 200.256 868.645 200.256 869.685C200.256 870.275 200.178 870.856 200.022 871.428C199.866 872.001 199.571 872.608 199.138 873.249C198.704 873.891 198.08 874.611 197.265 875.409L190.657 881.782L190.032 880.768H201.037V883.031H187.951ZM202.407 878.556V876.735L211.721 864.821H214.53L205.295 876.735L203.968 876.319H218.51V878.556H202.407ZM212.527 883.031V878.556L212.605 876.319V872.365H215.05V883.031H212.527Z" fill="#E8D327"/>
<path d="M472.522 293.458C473.058 292.978 473.102 292.155 472.623 291.621C472.143 291.085 471.321 291.041 470.787 291.519L472.522 293.458ZM251.793 489.472C249.236 486.618 244.85 486.378 241.997 488.935C239.143 491.491 238.902 495.877 241.459 498.73C244.016 501.584 248.401 501.825 251.255 499.268C254.108 496.712 254.349 492.326 251.793 489.472ZM470.787 291.519L245.758 493.132L247.494 495.07L472.522 293.458L470.787 291.519Z" fill="#87258F"/>
<path d="M240.943 872.908C243.36 875.324 247.28 875.324 249.698 872.908C252.115 870.49 252.115 866.571 249.698 864.153C247.28 861.736 243.36 861.736 240.943 864.153C238.526 866.571 238.526 870.49 240.943 872.908ZM439.759 675.732C440.213 675.279 440.213 674.544 439.759 674.09C439.307 673.638 438.572 673.638 438.118 674.09L439.759 675.732ZM246.141 869.35L439.759 675.732L438.118 674.09L244.5 867.71L246.141 869.35Z" fill="#E8D327"/>
<path d="M1133.26 679.271C1134.14 679.475 1134.58 680.88 1134.22 682.411L1063.14 990.289C1062.57 992.757 1060.56 993.596 1059.96 991.617L953.285 642.701C952.68 640.724 954.084 637.904 955.508 638.233L1133.26 679.271Z" fill="url(#paint0_linear_421_1186)"/>
<path d="M648.399 215.842L648.476 188.518C648.49 183.99 649.5 179.407 651.623 174.89C656.836 163.016 668.606 151.748 683.818 142.112C714.539 122.664 757.892 109.592 803.934 103.253L803.857 130.577C757.815 136.916 714.463 149.988 683.741 169.435C668.529 179.071 656.759 190.34 651.547 202.214C649.423 206.731 648.415 211.314 648.399 215.842Z" fill="#265A4D"/>
<path d="M617.061 222.401L617.162 194.929C617.153 197.767 617.604 200.616 618.221 203.439L618.12 230.911C617.503 228.087 617.05 225.239 617.061 222.401Z" fill="#2E6D5C"/>
<path d="M964.125 290.662L964.048 317.976C939.185 314.862 913.606 312.716 887.885 311.394C876.67 310.825 865.414 310.457 854.2 310.208C841.841 309.96 829.434 309.638 816.949 309.048C792.013 307.862 766.837 305.996 741.421 302.317C716.217 298.586 690.15 293.13 667.137 282.912C662.797 280.989 658.631 278.875 654.705 276.597C648.348 272.911 642.627 268.805 637.836 264.395C630.151 257.256 624.8 249.525 621.697 241.842C620.038 238.001 619.104 234.183 618.235 230.38L618.312 203.066C619.185 206.869 620.119 210.688 621.772 214.528C624.873 222.211 630.224 229.942 637.911 237.081C642.703 241.487 648.424 245.597 654.782 249.283C658.707 251.558 662.874 253.675 667.213 255.598C690.227 265.812 716.289 271.272 741.497 275.003C766.916 278.682 792.089 280.548 817.024 281.734C829.515 282.324 841.918 282.646 854.276 282.894C865.489 283.143 876.747 283.511 887.961 284.08C913.683 285.398 939.261 287.548 964.125 290.662Z" fill="url(#paint1_linear_421_1186)"/>
<path d="M1098.76 257.607L1098.68 285.104L964.116 319.124L964.197 291.63L1098.76 257.607Z" fill="#F19F1F"/>
<path d="M1098.76 257.647L964.074 291.286C939.182 288.187 913.572 286.051 887.821 284.736C876.595 284.169 865.324 283.802 854.097 283.555C841.723 283.308 829.303 282.988 816.803 282.398C791.838 281.219 766.632 279.361 741.188 275.698C715.953 271.985 689.857 266.553 666.817 256.383C662.471 254.468 658.301 252.363 654.37 250.096C648.006 246.427 642.278 242.339 637.481 237.95C629.788 230.843 624.43 223.146 621.323 215.498C619.663 211.675 618.728 207.875 617.859 204.088C617.2 200.106 616.792 196.073 617.28 192.087C618.023 184.107 621.21 176.361 626.272 169.253C636.353 154.992 653.17 143.335 672.228 134.077C710.731 115.586 758.321 106.08 805.542 103.253C759.379 109.561 715.913 122.569 685.111 141.922C669.86 151.511 658.057 162.724 652.832 174.54C650.059 180.394 649.178 186.357 649.935 192.159C650.247 195.037 651.241 197.839 652.383 200.655C653.741 203.616 655.182 206.58 657.111 209.285C661.686 216.191 668.105 222.034 676.275 226.744C681.283 229.632 686.945 232.093 693.244 234.109C709.686 239.567 730.113 242.371 751.402 243.759C772.754 245.136 795.12 245.137 817.672 244.461C828.938 244.141 840.264 243.538 851.68 242.934C864.134 242.32 876.674 241.852 889.197 241.569C939.364 240.584 989.992 242.296 1041.24 248.378C1060.34 250.7 1079.54 253.629 1098.76 257.647Z" fill="url(#paint2_linear_421_1186)"/>
<path d="M1125.44 349.978L1125.37 377.159C1125.36 376.371 1125.19 375.634 1125.01 374.875C1124.69 373.39 1124.08 371.864 1123.2 370.353C1121.44 367.279 1118.45 364.01 1114.11 360.655C1111.73 358.798 1108.91 356.942 1105.73 355.107C1097.38 350.298 1086.53 345.638 1074.37 341.518C1057.46 335.79 1038.17 330.949 1017.87 326.942C1000.55 323.575 982.506 320.748 964.105 318.45L964.182 291.269C982.582 293.567 1000.62 296.393 1017.95 299.761C1038.25 303.767 1057.53 308.609 1074.44 314.337C1086.61 318.456 1097.46 323.117 1105.8 327.926C1108.99 329.761 1111.8 331.617 1114.19 333.473C1118.52 336.829 1121.52 340.098 1123.28 343.171C1124.16 344.683 1124.76 346.209 1125.09 347.694C1125.27 348.452 1125.44 349.19 1125.44 349.978Z" fill="#352867"/>
<path d="M1125.98 353.852L1125.9 380.639L1125.46 377.249L1125.54 350.461L1125.98 353.852Z" fill="#352867"/>
<path d="M1125.81 359.328L1125.74 386.447C1125.74 384.704 1125.64 382.91 1125.44 381.064L1125.52 353.947C1125.72 355.787 1125.82 357.585 1125.81 359.328Z" fill="#352867"/>
<path d="M1120.8 485.706L1120.72 512.977L994.283 450.874L994.364 423.603L1120.8 485.706Z" fill="#C54AA4"/>
<path d="M1246.16 370.217L1246.08 397.558C1246.06 406.655 1244.42 416.085 1240.5 425.615C1232.63 445.37 1214.38 464.112 1192.33 478.22C1181.31 485.34 1169.53 491.585 1157.53 497.16C1145.48 502.601 1133.16 507.523 1120.8 511.823L1120.88 484.482C1133.24 480.177 1145.55 475.261 1157.61 469.82C1169.6 464.245 1181.38 458 1192.41 450.879C1214.45 436.772 1232.71 418.029 1240.57 398.273C1244.5 388.744 1246.13 379.318 1246.16 370.217Z" fill="url(#paint3_linear_421_1186)"/>
<path d="M1194.34 290.748C1206.24 297.634 1217.09 305.695 1225.63 315.013C1229.91 319.679 1233.55 324.665 1236.45 329.81C1237.9 332.378 1239.13 334.982 1240.19 337.612L1240.96 339.585L1241.55 341.179L1242.65 344.351C1248.18 361.162 1249.88 380.474 1241.73 400.208C1233.85 419.929 1215.55 438.64 1193.46 452.721C1182.41 459.83 1170.61 466.063 1158.59 471.629C1146.51 477.059 1134.17 481.972 1121.78 486.264L994.95 424.113C1015.86 420.965 1035.69 417.191 1053.47 412.646C1062.09 410.472 1069.85 408.079 1077.25 405.647C1084.38 403.13 1090.87 400.511 1096.46 397.798C1107.72 392.305 1114.93 386.812 1119.85 379.942C1124.74 373.102 1126.9 364.218 1125.78 353.776L1125.33 350.323C1125.33 349.531 1125.15 348.791 1124.98 348.028C1124.65 346.536 1124.05 345.004 1123.17 343.487C1121.41 340.402 1118.41 337.119 1114.08 333.749C1111.69 331.885 1108.88 330.022 1105.7 328.18C1097.35 323.351 1086.5 318.672 1074.34 314.536C1057.44 308.784 1038.16 303.922 1017.86 299.9C1000.55 296.518 982.509 293.681 964.113 291.373L1098.74 257.607C1105.31 258.952 1111.95 260.458 1118.59 262.111C1144.3 268.569 1170.55 277.174 1194.34 290.748Z" fill="url(#paint4_linear_421_1186)"/>
<path d="M1120.81 485.116L1120.74 512.132C1096.16 520.635 1071.38 527.147 1046.74 532.888C1021.81 538.654 996.971 543.43 972.176 547.673C959.788 549.784 947.467 551.742 935.101 553.598L935.176 526.58C947.543 524.725 959.865 522.768 972.253 520.657C997.048 516.418 1021.88 511.641 1046.81 505.871C1071.45 500.131 1096.24 493.619 1120.81 485.116Z" fill="url(#paint5_linear_421_1186)"/>
<path d="M935.086 526.893L935.008 554.432L918.836 557.071L918.918 529.532L935.086 526.893Z" fill="#C53B66"/>
<path d="M1120.81 485.885C1096.25 494.458 1071.49 501.024 1046.87 506.812C1021.95 512.625 997.136 517.441 972.358 521.718C959.983 523.847 947.665 525.82 935.307 527.692L919.512 530.301C914.376 531.139 909.345 532.088 904.332 532.999C884.248 536.744 864.869 540.967 846.64 545.735C810.121 555.206 777.97 567.204 755.561 580.483C747.111 585.349 740.293 590.372 734.862 595.385L528.854 561.798C537.425 551.723 547.554 542.226 558.681 533.505C579.333 517.491 603.229 503.944 628.348 492.969C678.739 470.885 732.516 457.508 785.06 448.259C811.409 443.665 837.655 440.141 863.694 437.382C870.213 436.68 876.757 435.992 883.214 435.449L902.248 433.775C913.165 432.912 923.997 431.976 934.748 430.944C955.203 428.934 975.462 426.52 994.72 423.601L1120.81 485.885Z" fill="url(#paint6_linear_421_1186)"/>
<path d="M918.855 530.372L918.778 557.768C913.647 558.61 908.621 559.566 903.612 560.48C883.547 564.248 864.187 568.495 845.978 573.291C809.492 582.817 777.371 594.884 754.983 608.239C746.54 613.135 739.729 618.187 734.304 623.228L734.379 595.832C739.81 590.791 746.616 585.735 755.059 580.843C777.448 567.488 809.568 555.421 846.054 545.895C864.266 541.099 883.626 536.852 903.692 533.084C908.694 532.17 913.72 531.214 918.855 530.372Z" fill="url(#paint7_linear_421_1186)"/>
<path d="M735.467 596.214L735.39 623.24L528.862 589.91L528.943 562.884L735.467 596.214Z" fill="#FEFBF5"/>
<path d="M735.441 595.38L735.363 622.587C733.415 624.347 731.66 626.091 730.036 627.866C724.026 634.595 720.426 641.078 719.191 647.612L719.269 620.406C720.504 613.872 724.103 607.389 730.114 600.66C731.738 598.885 733.492 597.137 735.441 595.38Z" fill="#F19F1F"/>
<path d="M719.22 620.92L719.113 648.494C718.331 650.103 718.488 651.783 718.06 653.42L718.165 625.847C718.594 624.214 718.433 622.53 719.22 620.92Z" fill="#F19F1F"/>
<path d="M718.162 626.73L718.085 653.694C718.081 654.382 718.048 655.064 718.046 655.748L718.121 628.784C718.125 628.096 718.162 627.415 718.162 626.73Z" fill="#F19F1F"/>
<path d="M496.348 670.191L496.425 642.958C496.418 645.498 496.491 648.028 496.636 650.546L496.56 677.779C496.414 675.265 496.342 672.735 496.348 670.191Z" fill="#F19F1F"/>
<path d="M497.508 658.722L497.379 685.918L496.348 678.293L496.471 651.097L497.508 658.722Z" fill="#F19F1F"/>
<path d="M498.671 665.594L498.605 692.878L497.511 685.341L497.58 658.057L498.671 665.594Z" fill="#F19F1F"/>
<path d="M499.833 670.04L499.715 697.535L498.672 693.693L498.789 666.197L499.833 670.04Z" fill="#F19F1F"/>
<path d="M500.999 673.81L500.92 701.015L499.839 696.881L499.918 669.677L500.999 673.81Z" fill="#F19F1F"/>
<path d="M503.32 681.571L503.252 709.146C502.45 706.353 501.65 703.559 500.998 700.741L501.066 673.165C501.717 675.984 502.517 678.777 503.32 681.571Z" fill="#F19F1F"/>
<path d="M975.922 685.003L1024.48 850.624C963.68 854.64 901.658 853.803 840.285 847.125C779.059 840.412 717.929 828.054 660.896 807.086C637.111 798.283 614.078 787.909 592.846 775.643C588.736 773.269 584.694 770.823 580.725 768.303C556.324 752.83 534.947 734.363 519.973 713.675C512.518 703.375 506.72 692.532 502.747 681.519C501.837 678.759 500.931 675.999 500.193 673.214L499.149 669.075L498.469 665.266L497.214 657.736L496.577 650.097C495.987 639.91 496.566 629.512 498.974 619.114C499.903 613.951 501.743 608.751 503.395 603.639C505.596 598.503 507.501 593.365 510.364 588.388C515.138 579.162 521.315 570.227 528.599 561.715L734.621 595.309C732.696 597.072 730.965 598.819 729.36 600.595C723.427 607.336 719.872 613.826 718.654 620.369C718.09 621.961 718.206 623.621 717.893 625.238C718.01 626.927 717.741 628.54 718.006 630.24C718.196 633.543 719.087 636.979 720.273 640.489L721.223 643.151L722.492 645.849L723.096 647.178C724.06 648.692 724.573 649.286 724.958 649.876C726.821 652.228 728.961 654.47 731.583 656.626C734.461 659.007 737.852 661.363 741.861 663.682C745.109 665.56 748.766 667.41 752.884 669.231C761.961 673.272 773.224 677.077 786.038 680.331C811.682 686.823 843.33 690.767 876.126 691.495C908.975 692.295 943.051 690.002 975.922 685.003Z" fill="url(#paint8_linear_421_1186)"/>
<path d="M1025.62 850.125L1025.55 877.328C964.685 881.338 902.604 880.502 841.17 873.836C779.886 867.132 718.698 854.793 661.609 833.857C637.804 825.065 614.746 814.707 593.494 802.46C589.379 800.09 585.333 797.647 581.36 795.131C556.937 779.68 535.538 761.241 520.55 740.584C513.088 730.299 507.284 719.473 503.308 708.476L503.383 681.272C507.359 692.269 513.165 703.096 520.627 713.381C535.611 734.034 557.012 752.477 581.437 767.927C585.41 770.442 589.452 772.885 593.57 775.256C614.823 787.504 637.881 797.862 661.685 806.652C718.774 827.588 779.963 839.927 841.247 846.631C902.68 853.299 964.757 854.138 1025.62 850.125Z" fill="#F19F1F"/>
<path d="M1120.82 483.945L1120.39 511.803" stroke="#74207A" stroke-width="2.32141" stroke-linecap="round"/>
<path d="M1120.52 646.782C1121.4 646.986 1121.83 648.391 1121.48 649.92L1050.4 957.798C1049.83 960.267 1047.82 961.105 1047.21 959.128L940.539 610.212C939.934 608.233 941.336 605.415 942.762 605.744L1120.52 646.782Z" fill="url(#paint9_linear_421_1186)"/>
<path d="M638.409 197.287L660.982 143.112C668.551 124.949 655.205 104.931 635.528 104.931C615.851 104.931 602.505 124.949 610.074 143.112L632.647 197.287C633.713 199.848 637.342 199.848 638.409 197.287Z" fill="#327866" stroke="#FEFBF5" stroke-width="3.12175" stroke-linecap="round"/>
<path d="M658.163 133.418C658.163 120.918 648.03 110.785 635.53 110.785C623.03 110.785 612.897 120.918 612.897 133.418C612.897 145.917 623.03 156.05 635.53 156.05C648.03 156.05 658.163 145.917 658.163 133.418Z" fill="white"/>
<path d="M654.453 133.417C654.453 122.965 645.979 114.492 635.527 114.492C625.075 114.492 616.602 122.965 616.602 133.417C616.602 143.87 625.075 152.343 635.527 152.343C645.979 152.343 654.453 143.87 654.453 133.417Z" fill="white"/>
<path d="M654.453 133.417C654.453 122.965 645.979 114.492 635.527 114.492C625.075 114.492 616.602 122.965 616.602 133.417C616.602 143.87 625.075 152.343 635.527 152.343C645.979 152.343 654.453 143.87 654.453 133.417Z" stroke="#327866" stroke-width="1.17065"/>
<path d="M635.527 123.665C631.224 123.665 627.723 127.166 627.723 131.464C627.694 137.752 634.665 142.784 634.961 142.994C635.126 143.112 635.324 143.175 635.527 143.175C635.73 143.175 635.928 143.112 636.093 142.994C636.389 142.784 643.36 137.752 643.331 131.469C643.331 127.166 639.83 123.665 635.527 123.665ZM635.527 140.966C633.956 139.69 629.653 135.801 629.674 131.469C629.674 128.241 632.299 125.616 635.527 125.616C638.756 125.616 641.38 128.241 641.38 131.474C641.401 135.802 637.1 139.691 635.527 140.966Z" fill="#327866"/>
<path d="M634.555 133.019L632.318 130.783L630.939 132.162L634.555 135.778L640.123 130.211L638.744 128.832L634.555 133.019Z" fill="#327866"/>
<path d="M1180.16 370.375L1217.78 280.085C1230.39 249.812 1208.15 216.448 1175.36 216.448C1142.56 216.448 1120.32 249.812 1132.93 280.085L1170.55 370.375C1172.33 374.644 1178.38 374.644 1180.16 370.375Z" fill="#87258F" stroke="#FEFBF5" stroke-width="5.20291" stroke-linecap="round"/>
<path d="M1213.07 263.908C1213.07 243.075 1196.19 226.187 1175.35 226.187C1154.52 226.187 1137.63 243.075 1137.63 263.908C1137.63 284.741 1154.52 301.629 1175.35 301.629C1196.19 301.629 1213.07 284.741 1213.07 263.908Z" fill="white"/>
<path d="M1206.9 263.908C1206.9 246.488 1192.78 232.366 1175.36 232.366C1157.93 232.366 1143.81 246.488 1143.81 263.908C1143.81 281.329 1157.93 295.451 1175.36 295.451C1192.78 295.451 1206.9 281.329 1206.9 263.908Z" fill="white"/>
<path d="M1206.9 263.908C1206.9 246.488 1192.78 232.366 1175.36 232.366C1157.93 232.366 1143.81 246.488 1143.81 263.908C1143.81 281.329 1157.93 295.451 1175.36 295.451C1192.78 295.451 1206.9 281.329 1206.9 263.908Z" stroke="#87258F" stroke-width="1.95109"/>
<path d="M1175.36 247.65C1168.19 247.65 1162.35 253.487 1162.35 260.65C1162.3 271.129 1173.92 279.517 1174.42 279.867C1174.69 280.063 1175.02 280.169 1175.36 280.169C1175.7 280.169 1176.03 280.063 1176.3 279.867C1176.8 279.517 1188.41 271.129 1188.37 260.658C1188.37 253.487 1182.53 247.65 1175.36 247.65ZM1175.36 276.486C1172.74 274.36 1165.57 267.879 1165.6 260.658C1165.6 255.278 1169.98 250.902 1175.36 250.902C1180.74 250.902 1185.12 255.278 1185.12 260.667C1185.15 267.881 1177.98 274.361 1175.36 276.486Z" fill="#87258F"/>
<path d="M1173.73 263.239L1170.01 259.512L1167.71 261.81L1173.73 267.838L1183.01 258.558L1180.71 256.26L1173.73 263.239Z" fill="#87258F"/>
<path d="M639.572 693.678L706.714 532.536C729.225 478.509 689.53 418.967 631 418.967C572.47 418.967 532.776 478.509 555.287 532.537L622.428 693.678C625.604 701.296 636.397 701.296 639.572 693.678Z" fill="#E8D327" stroke="#FEFBF5" stroke-width="9.28561" stroke-linecap="round"/>
<path d="M698.321 503.683C698.321 466.503 668.18 436.363 631 436.363C593.82 436.363 563.68 466.503 563.68 503.683C563.68 540.863 593.82 571.004 631 571.004C668.18 571.004 698.321 540.863 698.321 503.683Z" fill="white"/>
<path d="M687.292 503.684C687.292 472.593 662.088 447.39 630.998 447.39C599.908 447.39 574.704 472.593 574.704 503.684C574.704 534.774 599.908 559.978 630.998 559.978C662.088 559.978 687.292 534.774 687.292 503.684Z" fill="white"/>
<path d="M687.292 503.684C687.292 472.593 662.088 447.39 630.998 447.39C599.908 447.39 574.704 472.593 574.704 503.684C574.704 534.774 599.908 559.978 630.998 559.978C662.088 559.978 687.292 534.774 687.292 503.684Z" stroke="#E8D327" stroke-width="3.4821"/>
<path d="M631.002 474.667C618.203 474.667 607.788 485.08 607.788 497.866C607.705 516.568 628.437 531.538 629.319 532.161C629.811 532.512 630.399 532.701 631.002 532.701C631.606 532.701 632.194 532.512 632.686 532.161C633.567 531.538 654.301 516.568 654.216 497.881C654.216 485.08 643.803 474.667 631.002 474.667ZM631.002 526.128C626.328 522.333 613.531 510.767 613.592 497.881C613.592 488.279 621.4 480.469 631.002 480.469C640.604 480.469 648.413 488.279 648.413 497.895C648.474 510.769 635.68 522.336 631.002 526.128Z" fill="#E8D327"/>
<path d="M628.103 502.49L621.448 495.837L617.346 499.94L628.103 510.696L644.662 494.137L640.56 490.033L628.103 502.49Z" fill="#E8D327"/>
<path d="M237.074 113.001C237.074 116.832 240.18 119.938 244.011 119.938C247.843 119.938 250.949 116.832 250.949 113.001C250.949 109.17 247.843 106.064 244.011 106.064C240.18 106.064 237.074 109.17 237.074 113.001ZM580.467 113.001C580.467 116.832 583.571 119.938 587.403 119.938C591.235 119.938 594.34 116.832 594.34 113.001C594.34 109.17 591.235 106.064 587.403 106.064C583.571 106.064 580.467 109.17 580.467 113.001ZM244.011 114.302H587.403V111.7H244.011V114.302Z" fill="#327866"/>
<path d="M862.732 178.037C862.732 181.868 866.996 184.974 872.259 184.974C877.522 184.974 881.786 181.868 881.786 178.037C881.786 174.206 877.522 171.1 872.259 171.1C866.996 171.1 862.732 174.206 862.732 178.037ZM1349.21 179.338C1350.2 179.338 1351 178.755 1351 178.037C1351 177.319 1350.2 176.736 1349.21 176.736V179.338ZM872.259 179.338H1349.21V176.736H872.259V179.338Z" fill="#4BABC2"/>
<path d="M1459.9 176.168C1459.84 172.337 1456.69 169.283 1452.86 169.345C1449.02 169.407 1445.97 172.563 1446.03 176.393C1446.09 180.225 1449.25 183.279 1453.08 183.217C1456.91 183.155 1459.97 179.999 1459.9 176.168ZM1348.78 176.671C1348.07 176.683 1347.49 177.275 1347.51 177.993C1347.52 178.712 1348.11 179.284 1348.83 179.272L1348.78 176.671ZM1452.95 174.98L1348.78 176.671L1348.83 179.272L1452.99 177.582L1452.95 174.98Z" fill="#4BABC2"/>
<path d="M1108.11 292.501C1108.11 288.669 1105.01 285.564 1101.18 285.564C1097.35 285.564 1094.24 288.669 1094.24 292.501C1094.24 296.333 1097.35 299.438 1101.18 299.438C1105.01 299.438 1108.11 296.333 1108.11 292.501ZM471.626 291.2C470.908 291.2 470.325 291.783 470.325 292.501C470.325 293.219 470.908 293.802 471.626 293.802V291.2ZM1101.18 291.2H471.626V293.802H1101.18V291.2Z" fill="#87258F"/>
<path d="M819.376 261.744L849.474 189.512C859.565 165.294 841.771 138.604 815.534 138.604C789.298 138.604 771.504 165.294 781.595 189.512L811.693 261.744C813.116 265.16 817.953 265.16 819.376 261.744Z" fill="#4BABC2" stroke="#FEFBF5" stroke-width="4.16233" stroke-linecap="round"/>
<path d="M845.716 176.574C845.716 159.908 832.205 146.397 815.539 146.397C798.873 146.397 785.362 159.908 785.362 176.574C785.362 193.24 798.873 206.751 815.539 206.751C832.205 206.751 845.716 193.24 845.716 176.574Z" fill="white"/>
<path d="M840.774 176.573C840.774 162.637 829.476 151.339 815.54 151.339C801.603 151.339 790.306 162.637 790.306 176.573C790.306 190.51 801.603 201.807 815.54 201.807C829.476 201.807 840.774 190.51 840.774 176.573Z" fill="white"/>
<path d="M840.774 176.573C840.774 162.637 829.476 151.339 815.54 151.339C801.603 151.339 790.306 162.637 790.306 176.573C790.306 190.51 801.603 201.807 815.54 201.807C829.476 201.807 840.774 190.51 840.774 176.573Z" stroke="#4BABC2" stroke-width="1.56087"/>
<path d="M815.534 163.572C809.796 163.572 805.128 168.24 805.128 173.971C805.09 182.354 814.384 189.064 814.779 189.344C814.999 189.501 815.263 189.586 815.534 189.586C815.804 189.586 816.067 189.501 816.288 189.344C816.684 189.064 825.977 182.354 825.94 173.977C825.94 168.24 821.271 163.572 815.534 163.572ZM815.534 186.64C813.438 184.939 807.702 179.754 807.729 173.977C807.729 169.673 811.23 166.173 815.534 166.173C819.838 166.173 823.338 169.673 823.338 173.984C823.366 179.755 817.631 184.94 815.534 186.64Z" fill="#4BABC2"/>
<path d="M814.235 176.037L811.252 173.055L809.413 174.894L814.235 179.716L821.658 172.293L819.819 170.453L814.235 176.037Z" fill="#4BABC2"/>
<path d="M924.614 465.119L969.759 356.77C984.896 320.443 958.205 280.408 918.85 280.408C879.497 280.408 852.806 320.443 867.942 356.77L913.088 465.119C915.222 470.242 922.479 470.242 924.614 465.119Z" fill="#D44F47" stroke="#FEFBF5" stroke-width="6.24349" stroke-linecap="round"/>
<path d="M964.119 337.376C964.119 312.376 943.854 292.11 918.854 292.11C893.855 292.11 873.589 312.376 873.589 337.376C873.589 362.375 893.855 382.641 918.854 382.641C943.854 382.641 964.119 362.375 964.119 337.376Z" fill="white"/>
<path d="M956.707 337.376C956.707 316.471 939.761 299.525 918.856 299.525C897.951 299.525 881.005 316.471 881.005 337.376C881.005 358.281 897.951 375.227 918.856 375.227C939.761 375.227 956.707 358.281 956.707 337.376Z" fill="white"/>
<path d="M956.707 337.376C956.707 316.471 939.761 299.525 918.856 299.525C897.951 299.525 881.005 316.471 881.005 337.376C881.005 358.281 897.951 375.227 918.856 375.227C939.761 375.227 956.707 358.281 956.707 337.376Z" stroke="#D44F47" stroke-width="2.34131"/>
<path d="M918.851 317.871C910.245 317.871 903.242 324.874 903.242 333.471C903.186 346.045 917.126 356.111 917.719 356.53C918.05 356.765 918.447 356.893 918.851 356.893C919.257 356.893 919.654 356.765 919.983 356.53C920.576 356.111 934.517 346.045 934.46 333.48C934.46 324.874 927.458 317.871 918.851 317.871ZM918.851 352.474C915.709 349.922 907.104 342.145 907.145 333.48C907.145 327.024 912.396 321.773 918.851 321.773C925.308 321.773 930.558 327.024 930.558 333.49C930.599 342.147 921.996 349.924 918.851 352.474Z" fill="#D44F47"/>
<path d="M916.898 336.557L912.425 332.084L909.666 334.843L916.898 342.075L928.034 330.941L925.275 328.182L916.898 336.557Z" fill="#D44F47"/>
<path d="M1393.05 408.265C1394.13 408.265 1395 407.683 1395 406.965C1395 406.247 1394.13 405.664 1393.05 405.664V408.265ZM995.421 406.965C995.421 403.133 990.761 400.028 985.009 400.028C979.258 400.028 974.598 403.133 974.598 406.965C974.598 410.797 979.258 413.901 985.009 413.901C990.761 413.901 995.421 410.797 995.421 406.965ZM1393.05 405.664H985.009V408.265H1393.05V405.664Z" fill="#D44F47"/>
<path d="M1394.3 406.048C1393.79 405.537 1392.97 405.533 1392.46 406.038C1391.95 406.543 1391.94 407.366 1392.45 407.877L1394.3 406.048ZM1445.11 459.3C1442.39 461.994 1442.36 466.385 1445.06 469.11C1447.75 471.835 1452.14 471.86 1454.87 469.166C1457.59 466.472 1457.62 462.081 1454.92 459.356C1452.23 456.631 1447.84 456.606 1445.11 459.3ZM1392.45 407.877L1449.07 465.147L1450.92 463.318L1394.3 406.048L1392.45 407.877Z" fill="#D44F47"/>
<path d="M579.282 674.915C579.282 671.497 576.51 668.725 573.092 668.725C569.674 668.725 566.902 671.497 566.902 674.915C566.902 678.333 569.674 681.105 573.092 681.105C576.51 681.105 579.282 678.333 579.282 674.915ZM439.117 673.755C438.476 673.755 437.957 674.274 437.957 674.915C437.957 675.556 438.476 676.075 439.117 676.075V673.755ZM573.092 673.755H439.117V676.075H573.092V673.755Z" fill="#E8D327"/>
<path d="M1477.6 183.418V181.649L1485.01 174.495C1485.67 173.871 1486.16 173.325 1486.47 172.856C1486.8 172.371 1487.02 171.929 1487.12 171.53C1487.24 171.113 1487.3 170.714 1487.3 170.333C1487.3 169.396 1486.97 168.659 1486.31 168.122C1485.66 167.584 1484.69 167.315 1483.43 167.315C1482.46 167.315 1481.58 167.48 1480.8 167.81C1480.02 168.122 1479.34 168.616 1478.77 169.292L1477 167.758C1477.69 166.873 1478.62 166.197 1479.78 165.728C1480.96 165.243 1482.25 165 1483.66 165C1484.93 165 1486.03 165.208 1486.96 165.624C1487.9 166.023 1488.62 166.604 1489.12 167.367C1489.64 168.13 1489.9 169.032 1489.9 170.073C1489.9 170.662 1489.83 171.243 1489.67 171.816C1489.51 172.388 1489.22 172.995 1488.78 173.637C1488.35 174.278 1487.73 174.998 1486.91 175.796L1480.3 182.17L1479.68 181.155H1490.68V183.418H1477.6ZM1500.24 183.626C1498.82 183.626 1497.54 183.262 1496.41 182.534C1495.3 181.805 1494.42 180.748 1493.76 179.36C1493.12 177.973 1492.8 176.29 1492.8 174.313C1492.8 172.336 1493.12 170.654 1493.76 169.266C1494.42 167.879 1495.3 166.821 1496.41 166.093C1497.54 165.364 1498.82 165 1500.24 165C1501.64 165 1502.91 165.364 1504.04 166.093C1505.16 166.821 1506.05 167.879 1506.69 169.266C1507.33 170.654 1507.65 172.336 1507.65 174.313C1507.65 176.29 1507.33 177.973 1506.69 179.36C1506.05 180.748 1505.16 181.805 1504.04 182.534C1502.91 183.262 1501.64 183.626 1500.24 183.626ZM1500.24 181.311C1501.19 181.311 1502.02 181.051 1502.73 180.531C1503.46 180.01 1504.03 179.23 1504.43 178.189C1504.84 177.149 1505.05 175.857 1505.05 174.313C1505.05 172.77 1504.84 171.478 1504.43 170.437C1504.03 169.396 1503.46 168.616 1502.73 168.096C1502.02 167.575 1501.19 167.315 1500.24 167.315C1499.28 167.315 1498.44 167.575 1497.71 168.096C1496.99 168.616 1496.41 169.396 1496 170.437C1495.6 171.478 1495.4 172.77 1495.4 174.313C1495.4 175.857 1495.6 177.149 1496 178.189C1496.41 179.23 1496.99 180.01 1497.71 180.531C1498.44 181.051 1499.28 181.311 1500.24 181.311ZM1509.86 183.418V181.649L1517.28 174.495C1517.94 173.871 1518.42 173.325 1518.73 172.856C1519.06 172.371 1519.28 171.929 1519.38 171.53C1519.51 171.113 1519.57 170.714 1519.57 170.333C1519.57 169.396 1519.24 168.659 1518.58 168.122C1517.92 167.584 1516.96 167.315 1515.69 167.315C1514.72 167.315 1513.84 167.48 1513.06 167.81C1512.28 168.122 1511.61 168.616 1511.03 169.292L1509.26 167.758C1509.96 166.873 1510.89 166.197 1512.05 165.728C1513.23 165.243 1514.52 165 1515.92 165C1517.19 165 1518.29 165.208 1519.23 165.624C1520.16 166.023 1520.88 166.604 1521.39 167.367C1521.91 168.13 1522.17 169.032 1522.17 170.073C1522.17 170.662 1522.09 171.243 1521.93 171.816C1521.78 172.388 1521.48 172.995 1521.05 173.637C1520.62 174.278 1519.99 174.998 1519.18 175.796L1512.57 182.17L1511.94 181.155H1522.95V183.418H1509.86ZM1528.16 183.418V166.249L1529.27 167.471H1524.05V165.208H1530.73V183.418H1528.16Z" fill="#4BABC2"/>
<path d="M1471.26 487.61V485.841L1478.67 478.687C1479.33 478.063 1479.82 477.516 1480.13 477.048C1480.46 476.563 1480.68 476.121 1480.78 475.721C1480.9 475.305 1480.96 474.906 1480.96 474.525C1480.96 473.588 1480.63 472.851 1479.98 472.313C1479.32 471.776 1478.35 471.507 1477.09 471.507C1476.12 471.507 1475.24 471.672 1474.46 472.001C1473.68 472.313 1473 472.808 1472.43 473.484L1470.66 471.949C1471.36 471.065 1472.28 470.388 1473.45 469.92C1474.62 469.435 1475.92 469.192 1477.32 469.192C1478.59 469.192 1479.69 469.4 1480.63 469.816C1481.56 470.215 1482.28 470.795 1482.78 471.559C1483.31 472.323 1483.57 473.224 1483.57 474.264C1483.57 474.854 1483.49 475.435 1483.33 476.007C1483.18 476.58 1482.88 477.187 1482.45 477.828C1482.01 478.47 1481.39 479.19 1480.57 479.988L1473.97 486.361L1473.34 485.347H1484.35V487.61H1471.26ZM1493.9 487.818C1492.48 487.818 1491.2 487.454 1490.08 486.725C1488.96 485.997 1488.08 484.94 1487.42 483.552C1486.78 482.164 1486.46 480.482 1486.46 478.505C1486.46 476.528 1486.78 474.846 1487.42 473.458C1488.08 472.07 1488.96 471.013 1490.08 470.284C1491.2 469.556 1492.48 469.192 1493.9 469.192C1495.3 469.192 1496.57 469.556 1497.7 470.284C1498.82 471.013 1499.71 472.07 1500.35 473.458C1500.99 474.846 1501.31 476.528 1501.31 478.505C1501.31 480.482 1500.99 482.164 1500.35 483.552C1499.71 484.94 1498.82 485.997 1497.7 486.725C1496.57 487.454 1495.3 487.818 1493.9 487.818ZM1493.9 485.503C1494.85 485.503 1495.69 485.243 1496.4 484.722C1497.13 484.202 1497.69 483.422 1498.09 482.381C1498.5 481.34 1498.71 480.049 1498.71 478.505C1498.71 476.961 1498.5 475.669 1498.09 474.629C1497.69 473.588 1497.13 472.808 1496.4 472.287C1495.69 471.767 1494.85 471.507 1493.9 471.507C1492.94 471.507 1492.1 471.767 1491.38 472.287C1490.65 472.808 1490.08 473.588 1489.66 474.629C1489.26 475.669 1489.06 476.961 1489.06 478.505C1489.06 480.049 1489.26 481.34 1489.66 482.381C1490.08 483.422 1490.65 484.202 1491.38 484.722C1492.1 485.243 1492.94 485.503 1493.9 485.503ZM1503.52 487.61V485.841L1510.94 478.687C1511.6 478.063 1512.08 477.516 1512.4 477.048C1512.72 476.563 1512.94 476.121 1513.05 475.721C1513.17 475.305 1513.23 474.906 1513.23 474.525C1513.23 473.588 1512.9 472.851 1512.24 472.313C1511.58 471.776 1510.62 471.507 1509.35 471.507C1508.38 471.507 1507.51 471.672 1506.72 472.001C1505.94 472.313 1505.27 472.808 1504.7 473.484L1502.93 471.949C1503.62 471.065 1504.55 470.388 1505.71 469.92C1506.89 469.435 1508.18 469.192 1509.59 469.192C1510.85 469.192 1511.95 469.4 1512.89 469.816C1513.83 470.215 1514.55 470.795 1515.05 471.559C1515.57 472.323 1515.83 473.224 1515.83 474.264C1515.83 474.854 1515.75 475.435 1515.6 476.007C1515.44 476.58 1515.14 477.187 1514.71 477.828C1514.28 478.47 1513.65 479.19 1512.84 479.988L1506.23 486.361L1505.61 485.347H1516.61V487.61H1503.52ZM1524.32 487.818C1523.03 487.818 1521.78 487.619 1520.57 487.22C1519.37 486.82 1518.39 486.283 1517.63 485.607L1518.83 483.552C1519.43 484.124 1520.22 484.592 1521.19 484.956C1522.17 485.321 1523.21 485.503 1524.32 485.503C1525.67 485.503 1526.72 485.217 1527.46 484.644C1528.23 484.055 1528.61 483.266 1528.61 482.277C1528.61 481.324 1528.24 480.56 1527.52 479.988C1526.8 479.398 1525.67 479.103 1524.11 479.103H1522.65V477.282L1528.06 470.622L1528.43 471.663H1518.46V469.4H1530.48V471.169L1525.1 477.802L1523.74 476.996H1524.6C1526.8 476.996 1528.45 477.49 1529.54 478.479C1530.65 479.467 1531.21 480.725 1531.21 482.251C1531.21 483.275 1530.96 484.211 1530.46 485.061C1529.95 485.91 1529.19 486.586 1528.17 487.09C1527.16 487.575 1525.88 487.818 1524.32 487.818Z" fill="#D44F47"/>
<defs>
<linearGradient id="paint0_linear_421_1186" x1="1072.62" y1="958.307" x2="1239.97" y2="776.26" gradientUnits="userSpaceOnUse">
<stop stop-color="#E77923"/>
<stop offset="0.465" stop-color="#ECA41C"/>
<stop offset="1" stop-color="#E77923"/>
</linearGradient>
<linearGradient id="paint1_linear_421_1186" x1="940.154" y1="297.699" x2="620.513" y2="220.865" gradientUnits="userSpaceOnUse">
<stop stop-color="#37A6C8"/>
<stop offset="1" stop-color="#2D6C5C"/>
</linearGradient>
<linearGradient id="paint2_linear_421_1186" x1="781.021" y1="104.702" x2="1035.04" y2="278.955" gradientUnits="userSpaceOnUse">
<stop stop-color="#317765"/>
<stop offset="1" stop-color="#59B5D2"/>
</linearGradient>
<linearGradient id="paint3_linear_421_1186" x1="1123.17" y1="489.787" x2="1256.43" y2="385.722" gradientUnits="userSpaceOnUse">
<stop stop-color="#741F7A"/>
<stop offset="1" stop-color="#451F60"/>
</linearGradient>
<linearGradient id="paint4_linear_421_1186" x1="1105.72" y1="257.607" x2="1105.72" y2="486.264" gradientUnits="userSpaceOnUse">
<stop offset="0.06" stop-color="#332866"/>
<stop offset="1" stop-color="#902493"/>
</linearGradient>
<linearGradient id="paint5_linear_421_1186" x1="1123.27" y1="499.889" x2="935.253" y2="539.677" gradientUnits="userSpaceOnUse">
<stop stop-color="#AE388E"/>
<stop offset="1" stop-color="#C53A65"/>
</linearGradient>
<linearGradient id="paint6_linear_421_1186" x1="1018.81" y1="440.974" x2="632.282" y2="578.437" gradientUnits="userSpaceOnUse">
<stop stop-color="#C54AA4"/>
<stop offset="1" stop-color="#D9501E"/>
</linearGradient>
<linearGradient id="paint7_linear_421_1186" x1="738.042" y1="601.13" x2="927.884" y2="540.04" gradientUnits="userSpaceOnUse">
<stop stop-color="#A93F1F"/>
<stop offset="1" stop-color="#C63969"/>
</linearGradient>
<linearGradient id="paint8_linear_421_1186" x1="984.352" y1="761.458" x2="590.775" y2="578.746" gradientUnits="userSpaceOnUse">
<stop stop-color="#EDBD1F"/>
<stop offset="1" stop-color="#E39E1D"/>
</linearGradient>
<linearGradient id="paint9_linear_421_1186" x1="1059.17" y1="864.462" x2="1180.06" y2="705.257" gradientUnits="userSpaceOnUse">
<stop stop-color="#E7D122"/>
<stop offset="1" stop-color="#F2EF91"/>
</linearGradient>
</defs>
</svg>
