<?xml version="1.0" encoding="UTF-8"?>
<!DOCTYPE svg PUBLIC "-//W3C//DTD SVG 1.1//EN" "http://www.w3.org/Graphics/SVG/1.1/DTD/svg11.dtd">
<!-- Creator: CorelDRAW 2019 (64-Bit) -->
<svg xmlns="http://www.w3.org/2000/svg" xml:space="preserve" width="94.7127mm" height="111.378mm" version="1.1" style="shape-rendering:geometricPrecision; text-rendering:geometricPrecision; image-rendering:optimizeQuality; fill-rule:evenodd; clip-rule:evenodd"
viewBox="0 0 1981.76 2330.46"
 xmlns:xlink="http://www.w3.org/1999/xlink">
 <defs>
  <style type="text/css">
   <![CDATA[
    .str2 {stroke:#3F444D;stroke-width:44.29;stroke-miterlimit:22.9256}
    .str1 {stroke:#3F444D;stroke-width:22.14;stroke-linecap:round;stroke-linejoin:round;stroke-miterlimit:22.9256}
    .str0 {stroke:#3F444D;stroke-width:22.14;stroke-linecap:round;stroke-linejoin:round;stroke-miterlimit:22.9256;stroke-dasharray:5.534384 132.825207}
    .fil0 {fill:none}
    .fil2 {fill:#3F444D}
    .fil3 {fill:#F19F1F}
    .fil1 {fill:white}
   ]]>
  </style>
 </defs>
 <g id="Layer_x0020_1">
  <metadata id="CorelCorpID_0Corel-Layer"/>
  <path class="fil0 str0" d="M814.55 114.36c87.76,-50.67 184.63,-83.55 285.1,-96.78 100.46,-13.23 202.54,-6.53 300.42,19.69 97.88,26.23 189.63,71.47 270.02,133.16 80.39,61.69 147.85,138.6 198.51,226.36 50.66,87.75 83.55,184.63 96.78,285.09 13.22,100.47 6.53,202.55 -19.69,300.43 -26.22,97.88 -71.48,189.63 -133.16,270.02 -61.69,80.39 -138.6,147.84 -226.36,198.51"/>
  <path class="fil0 str1" d="M1586.17 1450.84c-87.75,50.66 -184.63,83.55 -285.09,96.78 -100.46,13.23 -202.55,6.54 -300.43,-19.69 -97.87,-26.23 -189.63,-71.47 -270.02,-133.16 -80.39,-61.69 -147.84,-138.61 -198.51,-226.36 -50.66,-87.76 -83.55,-184.63 -96.78,-285.1 -13.23,-100.46 -6.53,-202.54 19.69,-300.42 26.23,-97.88 71.47,-189.63 133.16,-270.02 61.69,-80.39 138.6,-147.85 226.35,-198.51"/>
  <circle class="fil1 str2" transform="matrix(-0.458524 0.899905 -0.899905 -0.458524 585.141 1267.7)" r="88.58"/>
  <circle class="fil2" transform="matrix(-0.458524 0.899905 -0.899905 -0.458524 585.136 1267.69)" r="44.29"/>
  <g id="_2383005304656" filter="url(#filter0_di_513_647)">
   <path class="fil1" d="M1199.4 222.5l0 0c308.75,0 559.14,250.39 559.14,559.14l0 0c-0,308.75 -250.39,559.14 -559.14,559.14l0 0c-308.75,0 -559.14,-250.39 -559.14,-559.14l-0 0c0,-308.75 250.39,-559.14 559.14,-559.14z"/>
   <path class="fil2" d="M1099.36 732.79c2.58,18.37 12.26,49.81 47.95,63.35 36.56,13.91 36.56,24.85 36.56,32.09l0 2.53c-22.37,6.74 -38.82,27.29 -38.82,51.83 0,29.97 24.38,54.36 54.36,54.36 29.98,0 54.36,-24.38 54.36,-54.36 0,-24.54 -16.46,-45.09 -38.82,-51.83l0 -2.53c0,-7.24 0,-18.19 36.56,-32.07 35.69,-13.54 45.37,-44.98 47.95,-63.35 22.85,-6.45 39.74,-27.25 39.74,-52.13 0,-29.98 -24.38,-54.36 -54.36,-54.36 -29.97,0 -54.36,24.38 -54.36,54.36 0,24.11 15.87,44.35 37.65,51.46 -2.27,11.42 -8.78,27.82 -27.62,34.98 -18.51,7.02 -31.89,14.8 -41.1,23.85 -9.21,-9.05 -22.57,-16.84 -41.1,-23.85 -18.84,-7.16 -25.36,-23.56 -27.62,-34.98 21.78,-7.11 37.65,-27.35 37.65,-51.46 0,-29.98 -24.38,-54.36 -54.36,-54.36 -29.98,0 -54.36,24.38 -54.36,54.36 0,24.88 16.9,45.68 39.74,52.11zm185.47 -75.41c12.85,0 23.29,10.45 23.29,23.29 0,12.85 -10.45,23.3 -23.29,23.3 -12.84,0 -23.3,-10.45 -23.3,-23.3 0,-12.84 10.46,-23.29 23.3,-23.29zm-62.12 225.21c0,12.84 -10.46,23.29 -23.3,23.29 -12.84,0 -23.3,-10.45 -23.3,-23.29 0,-12.85 10.46,-23.3 23.3,-23.3 12.84,0 23.3,10.45 23.3,23.3zm-108.73 -225.21c12.85,0 23.3,10.45 23.3,23.29 0,12.85 -10.46,23.3 -23.3,23.3 -12.84,0 -23.29,-10.45 -23.29,-23.3 0,-12.84 10.45,-23.29 23.29,-23.29z"/>
  </g>
  <circle class="fil2" transform="matrix(2.6749E-14 -1.00999 1.00999 2.6749E-14 1196.6 1871.96)" r="22.14"/>
  <circle class="fil2" transform="matrix(2.6749E-14 -1.00999 1.00999 2.6749E-14 1196.6 1693.04)" r="22.14"/>
  <g id="_2383005305200" filter="url(#filter1_d_513_647)">
   <path class="fil3" d="M1196.6 1939.06l0 0c108.06,0 195.7,87.64 195.7,195.7l0 0c0,108.06 -87.64,195.7 -195.7,195.7l0 0c-108.06,-0 -195.7,-87.64 -195.7,-195.7l-0.01 0c0.01,-108.07 87.64,-195.7 195.7,-195.7z"/>
   <path class="fil1" d="M1094.97 2119.16c-0.26,-2.56 -1.35,-4.55 -3.27,-5.97 -1.93,-1.42 -4.55,-2.13 -7.85,-2.13 -2.24,0 -4.14,0.32 -5.69,0.95 -1.54,0.62 -2.73,1.47 -3.55,2.57 -0.81,1.1 -1.21,2.35 -1.21,3.75 -0.04,1.17 0.2,2.19 0.73,3.05 0.55,0.87 1.3,1.62 2.25,2.25 0.95,0.62 2.05,1.16 3.31,1.62 1.25,0.45 2.58,0.83 4,1.15l5.84 1.4c2.84,0.63 5.45,1.48 7.82,2.54 2.37,1.06 4.43,2.37 6.16,3.91 1.74,1.55 3.08,3.36 4.04,5.46 0.97,2.1 1.47,4.5 1.49,7.21 -0.02,3.98 -1.04,7.44 -3.05,10.36 -1.99,2.9 -4.87,5.16 -8.64,6.77 -3.75,1.59 -8.27,2.38 -13.56,2.38 -5.26,0 -9.83,-0.81 -13.73,-2.42 -3.88,-1.61 -6.9,-3.99 -9.09,-7.15 -2.16,-3.18 -3.29,-7.11 -3.4,-11.79l13.31 0c0.15,2.18 0.77,4 1.87,5.46 1.12,1.44 2.62,2.53 4.48,3.27 1.89,0.72 4.02,1.08 6.38,1.08 2.33,0 4.36,-0.33 6.07,-1.02 1.73,-0.68 3.08,-1.61 4.03,-2.82 0.96,-1.21 1.43,-2.59 1.43,-4.17 0,-1.46 -0.44,-2.69 -1.3,-3.68 -0.85,-1 -2.1,-1.84 -3.75,-2.54 -1.63,-0.7 -3.63,-1.33 -6.01,-1.91l-7.08 -1.78c-5.49,-1.34 -9.82,-3.42 -12.99,-6.26 -3.18,-2.84 -4.76,-6.66 -4.74,-11.47 -0.02,-3.94 1.03,-7.38 3.15,-10.32 2.14,-2.95 5.07,-5.24 8.8,-6.89 3.72,-1.66 7.96,-2.48 12.7,-2.48 4.83,0 9.05,0.82 12.65,2.48 3.62,1.65 6.43,3.95 8.45,6.89 2.01,2.94 3.05,6.35 3.11,10.23l-13.18 0zm49.02 -2.44l0 10.17 -29.38 0 0 -10.17 29.38 0zm-22.71 -11.69l13.53 0 0 45.49c0,1.25 0.19,2.23 0.58,2.92 0.38,0.68 0.9,1.15 1.59,1.43 0.7,0.27 1.5,0.41 2.41,0.41 0.64,0 1.28,-0.05 1.91,-0.16 0.64,-0.13 1.12,-0.22 1.46,-0.28l2.12 10.07c-0.68,0.21 -1.63,0.45 -2.86,0.73 -1.23,0.3 -2.72,0.47 -4.48,0.54 -3.26,0.13 -6.12,-0.31 -8.58,-1.3 -2.44,-0.99 -4.33,-2.54 -5.69,-4.63 -1.36,-2.1 -2.02,-4.75 -2,-7.94l0 -47.27zm53.25 61.44c-5.02,0 -9.34,-1.01 -12.96,-3.05 -3.6,-2.05 -6.38,-4.95 -8.32,-8.7 -1.95,-3.77 -2.92,-8.23 -2.92,-13.37 0,-5.02 0.97,-9.42 2.92,-13.22 1.95,-3.79 4.69,-6.74 8.23,-8.86 3.56,-2.12 7.73,-3.18 12.52,-3.18 3.22,0 6.22,0.52 8.99,1.56 2.8,1.01 5.24,2.55 7.31,4.6 2.1,2.05 3.72,4.64 4.89,7.75 1.16,3.09 1.75,6.71 1.75,10.87l0 3.72 -41.2 0 0 -8.39 28.47 0c0,-1.95 -0.42,-3.68 -1.27,-5.18 -0.85,-1.5 -2.03,-2.68 -3.53,-3.53 -1.48,-0.87 -3.21,-1.3 -5.18,-1.3 -2.06,0 -3.88,0.48 -5.47,1.43 -1.57,0.93 -2.8,2.19 -3.69,3.78 -0.89,1.57 -1.34,3.32 -1.36,5.24l0 7.97c0,2.42 0.45,4.5 1.33,6.26 0.91,1.76 2.19,3.12 3.84,4.07 1.66,0.95 3.61,1.43 5.88,1.43 1.5,0 2.88,-0.21 4.13,-0.64 1.24,-0.42 2.32,-1.06 3.21,-1.91 0.89,-0.84 1.56,-1.88 2.03,-3.12l12.52 0.83c-0.64,3.01 -1.94,5.64 -3.91,7.88 -1.95,2.23 -4.47,3.96 -7.56,5.21 -3.07,1.23 -6.62,1.84 -10.64,1.84zm31.23 17.35l0 -67.1 13.34 0 0 8.2 0.6 0c0.59,-1.31 1.45,-2.65 2.57,-4 1.15,-1.37 2.63,-2.52 4.45,-3.43 1.84,-0.93 4.13,-1.4 6.86,-1.4 3.55,0 6.84,0.93 9.85,2.8 3.01,1.85 5.41,4.63 7.21,8.35 1.8,3.71 2.7,8.36 2.7,13.95 0,5.44 -0.88,10.04 -2.63,13.79 -1.74,3.72 -4.11,6.55 -7.12,8.48 -2.99,1.91 -6.34,2.86 -10.04,2.86 -2.62,0 -4.86,-0.44 -6.7,-1.3 -1.82,-0.87 -3.31,-1.96 -4.48,-3.27 -1.16,-1.33 -2.05,-2.68 -2.67,-4.04l-0.41 0 0 26.12 -13.53 0zm13.24 -42.7c0,2.9 0.4,5.44 1.21,7.59 0.81,2.16 1.97,3.85 3.49,5.06 1.53,1.18 3.38,1.78 5.56,1.78 2.2,0 4.07,-0.6 5.59,-1.81 1.53,-1.23 2.68,-2.93 3.47,-5.08 0.8,-2.18 1.21,-4.69 1.21,-7.53 0,-2.81 -0.4,-5.29 -1.18,-7.43 -0.78,-2.14 -1.94,-3.81 -3.46,-5.02 -1.53,-1.21 -3.4,-1.81 -5.62,-1.81 -2.2,0 -4.07,0.58 -5.59,1.75 -1.5,1.16 -2.66,2.82 -3.46,4.95 -0.81,2.14 -1.21,4.66 -1.21,7.56zm87.99 25.29c-4.74,0 -8.97,-0.81 -12.68,-2.44 -3.68,-1.66 -6.6,-3.92 -8.73,-6.8 -2.12,-2.9 -3.21,-6.25 -3.27,-10.04l13.85 0c0.08,1.59 0.6,2.99 1.55,4.19 0.98,1.19 2.27,2.11 3.88,2.77 1.61,0.65 3.42,0.99 5.43,0.99 2.1,0 3.95,-0.38 5.56,-1.11 1.61,-0.74 2.87,-1.77 3.78,-3.08 0.91,-1.31 1.37,-2.83 1.37,-4.54 0,-1.73 -0.49,-3.27 -1.46,-4.61 -0.95,-1.35 -2.32,-2.42 -4.13,-3.18 -1.78,-0.76 -3.9,-1.14 -6.36,-1.14l-6.06 0 0 -10.1 6.06 0c2.08,0 3.91,-0.36 5.5,-1.08 1.61,-0.72 2.86,-1.72 3.75,-2.99 0.89,-1.3 1.33,-2.8 1.33,-4.51 0,-1.63 -0.39,-3.06 -1.17,-4.29 -0.76,-1.25 -1.84,-2.23 -3.24,-2.92 -1.38,-0.7 -2.99,-1.05 -4.83,-1.05 -1.86,0 -3.57,0.34 -5.12,1.02 -1.54,0.66 -2.78,1.6 -3.71,2.83 -0.93,1.23 -1.43,2.67 -1.5,4.32l-13.18 0c0.07,-3.75 1.13,-7.06 3.21,-9.91 2.08,-2.86 4.88,-5.09 8.38,-6.71 3.54,-1.63 7.53,-2.44 11.98,-2.44 4.49,0 8.42,0.81 11.79,2.44 3.37,1.63 5.98,3.84 7.85,6.61 1.89,2.75 2.82,5.84 2.8,9.28 0.02,3.64 -1.11,6.68 -3.4,9.12 -2.26,2.43 -5.22,3.98 -8.86,4.64l0 0.51c4.79,0.62 8.43,2.27 10.93,4.99 2.52,2.69 3.77,6.06 3.75,10.1 0.02,3.71 -1.05,7 -3.21,9.88 -2.14,2.88 -5.09,5.14 -8.87,6.8 -3.77,1.65 -8.09,2.48 -12.96,2.48z"/>
  </g>
  <circle class="fil2" transform="matrix(0.773694 -0.649207 -0.649207 -0.773694 22.3666 1745.4)" r="22.14"/>
  <circle class="fil2" transform="matrix(0.773694 -0.649207 -0.649207 -0.773694 159.433 1630.39)" r="22.14"/>
  <circle class="fil2" transform="matrix(0.773694 -0.649207 -0.649207 -0.773694 296.499 1515.38)" r="22.14"/>
  <circle class="fil2" transform="matrix(0.773694 -0.649207 -0.649207 -0.773694 433.565 1400.37)" r="22.14"/>
 </g>
</svg>
