<?xml version="1.0" encoding="UTF-8"?>
<!DOCTYPE svg PUBLIC "-//W3C//DTD SVG 1.1//EN" "http://www.w3.org/Graphics/SVG/1.1/DTD/svg11.dtd">
<!-- Creator: CorelDRAW 2019 (64-Bit) -->
<svg xmlns="http://www.w3.org/2000/svg" xml:space="preserve" width="89.627mm" height="105.32mm" version="1.1" style="shape-rendering:geometricPrecision; text-rendering:geometricPrecision; image-rendering:optimizeQuality; fill-rule:evenodd; clip-rule:evenodd"
viewBox="0 0 7913.85 9299.48"
 xmlns:xlink="http://www.w3.org/1999/xlink">
 <defs>
  <style type="text/css">
   <![CDATA[
    .str2 {stroke:#3F444D;stroke-width:186.9;stroke-miterlimit:22.9256}
    .str1 {stroke:#3F444D;stroke-width:93.45;stroke-linecap:round;stroke-linejoin:round;stroke-miterlimit:22.9256}
    .str0 {stroke:#3F444D;stroke-width:93.45;stroke-linecap:round;stroke-linejoin:round;stroke-miterlimit:22.9256;stroke-dasharray:23.354713 560.513111}
    .fil0 {fill:none}
    .fil3 {fill:black}
    .fil2 {fill:#3F444D}
    .fil4 {fill:#F19F1F}
    .fil1 {fill:white}
   ]]>
  </style>
 </defs>
 <g id="Layer_x0020_1">
  <metadata id="CorelCorpID_0Corel-Layer"/>
  <path class="fil0 str0" d="M1573.43 5789.7c-350.14,-202.15 -657.04,-471.3 -903.16,-792.06 -246.14,-320.78 -426.68,-686.86 -531.33,-1077.41 -104.64,-390.54 -131.33,-797.86 -78.56,-1198.73 52.77,-400.84 183.98,-787.39 386.13,-1137.54 202.17,-350.15 471.31,-657.06 792.06,-903.18 320.78,-246.13 686.88,-426.67 1077.4,-531.32 390.55,-104.64 797.88,-131.34 1198.74,-78.57 400.85,52.78 787.39,183.99 1137.53,386.14"/>
  <path class="fil0 str1" d="M4652.22 457.05c350.16,202.16 657.06,471.3 903.19,792.07 246.13,320.75 426.68,686.87 531.31,1077.41 104.63,390.54 131.34,797.86 78.58,1198.71 -52.79,400.87 -183.99,787.39 -386.15,1137.56 -202.15,350.14 -471.3,657.03 -792.08,903.19 -320.75,246.13 -686.86,426.66 -1077.41,531.31 -390.54,104.63 -797.86,131.34 -1198.71,78.56 -400.86,-52.77 -787.38,-183.99 -1137.55,-386.15"/>
  <circle class="fil1 str2" transform="matrix(0.953669 -0.0499797 0.0499797 0.953669 5537.58 4932.43)" r="373.79"/>
  <circle class="fil2" transform="matrix(0.953669 -0.0499797 0.0499797 0.953669 5537.58 4932.43)" r="186.89"/>
  <g id="_2383002467648" filter="url(#filter0_di_513_596)">
   <path class="fil1" d="M3109.6 880.25l0 0c1231.95,0 2231.02,999.07 2231.02,2231.02l0 0c0,1231.95 -999.08,2231.02 -2231.02,2231.02l-0.01 0.01c-1231.94,-0.01 -2231.02,-999.08 -2231.02,-2231.03l-0.01 0c0.01,-1231.95 999.09,-2231.02 2231.03,-2231.02z"/>
   <path class="fil2" d="M2861.7 3111.26c141.28,0 247.88,-106.58 247.88,-247.89 0,-141.31 -106.59,-247.88 -247.88,-247.88 -141.32,0 -247.9,106.57 -247.9,247.88 0,141.3 106.58,247.89 247.9,247.89zm0 -371.84c73,0 123.93,50.96 123.93,123.95 0,73 -50.93,123.93 -123.93,123.93 -73.03,0 -123.97,-50.93 -123.97,-123.93 0,-73 50.94,-123.95 123.97,-123.95zm61.95 433.81l-123.93 0c-170.85,0 -309.87,139 -309.87,309.87l0 61.96 123.96 0 0 -61.96c0,-102.51 83.4,-185.93 185.91,-185.93l123.93 0c102.51,0 185.93,83.41 185.93,185.93l0 61.96 123.93 0 0 -61.96c0,-170.87 -139,-309.87 -309.86,-309.87zm580.33 -642.28l-87.63 87.63c81.85,81.99 127.03,190.93 127.03,306.77 0,115.81 -45.18,224.77 -127.03,306.76l87.63 87.61c105.36,-105.42 163.36,-245.45 163.36,-394.37 0,-148.92 -58,-288.99 -163.36,-394.4z"/>
   <path class="fil3" d="M3328.66 2706.21l-87.63 87.77c35.14,35.01 54.48,81.68 54.48,131.36 0,49.71 -19.34,96.39 -54.48,131.39l87.63 87.77c58.51,-58.52 90.79,-136.29 90.79,-219.15 0,-82.84 -32.28,-160.63 -90.79,-219.13z"/>
  </g>
  <circle class="fil2" transform="matrix(0 -0.954978 -0.954978 0 3153.62 7470.04)" r="93.45"/>
  <circle class="fil2" transform="matrix(0 -0.954978 -0.954978 0 3153.62 6756.12)" r="93.45"/>
  <g id="_2383002469984" filter="url(#filter1_d_513_596)">
   <path class="fil4" d="M3153.62 7737.77l0 0c431.18,0 780.86,349.68 780.86,780.86l0 0.01c0,431.17 -349.68,780.84 -780.85,780.84l-0.01 0.01c-431.17,-0.01 -780.85,-349.68 -780.85,-780.86l-0.01 0.01c0.01,-431.19 349.68,-780.87 780.87,-780.87z"/>
   <path class="fil1" d="M2781.57 8456.38c-1.02,-10.22 -5.37,-18.16 -13.04,-23.83 -7.7,-5.67 -18.15,-8.49 -31.33,-8.49 -8.94,0 -16.51,1.27 -22.69,3.81 -6.15,2.45 -10.88,5.87 -14.19,10.26 -3.21,4.41 -4.81,9.38 -4.81,14.96 -0.18,4.66 0.8,8.72 2.91,12.19 2.2,3.45 5.21,6.46 9,8.99 3.79,2.45 8.19,4.62 13.18,6.46 4.97,1.79 10.31,3.3 15.98,4.58l23.31 5.57c11.34,2.52 21.73,5.91 31.19,10.13 9.46,4.24 17.67,9.44 24.58,15.6 6.94,6.18 12.3,13.43 16.11,21.79 3.89,8.36 5.87,17.96 5.97,28.78 -0.1,15.89 -4.15,29.68 -12.19,41.32 -7.95,11.58 -19.43,20.59 -34.47,27.02 -14.95,6.34 -33,9.5 -54.12,9.5 -20.97,0 -39.23,-3.21 -54.78,-9.64 -15.45,-6.42 -27.55,-15.93 -36.25,-28.5 -8.62,-12.71 -13.15,-28.36 -13.57,-47.04l53.12 0c0.6,8.7 3.08,15.95 7.48,21.79 4.49,5.74 10.44,10.11 17.86,13.06 7.55,2.88 16.03,4.31 25.48,4.31 9.3,0 17.38,-1.34 24.23,-4.07 6.92,-2.69 12.29,-6.44 16.09,-11.27 3.81,-4.81 5.7,-10.34 5.7,-16.62 0,-5.83 -1.73,-10.74 -5.19,-14.7 -3.39,-3.97 -8.36,-7.34 -14.95,-10.13 -6.51,-2.78 -14.51,-5.33 -23.96,-7.61l-28.26 -7.09c-21.88,-5.33 -39.18,-13.66 -51.85,-24.99 -12.68,-11.31 -18.98,-26.57 -18.9,-45.76 -0.09,-15.71 4.11,-29.46 12.56,-41.19 8.53,-11.75 20.24,-20.92 35.12,-27.5 14.87,-6.6 31.77,-9.88 50.69,-9.88 19.28,0 36.1,3.28 50.47,9.88 14.43,6.59 25.68,15.75 33.7,27.5 8.04,11.73 12.16,25.35 12.43,40.81l-52.62 0zm195.62 -9.76l0 40.56 -117.24 0 0 -40.56 117.24 0zm-90.62 -46.65l53.99 0 0 181.52c0,4.99 0.74,8.88 2.29,11.66 1.52,2.69 3.62,4.59 6.33,5.71 2.8,1.09 6,1.62 9.62,1.62 2.54,0 5.09,-0.19 7.6,-0.62 2.55,-0.51 4.49,-0.89 5.85,-1.14l8.49 40.18c-2.7,0.85 -6.49,1.81 -11.4,2.93 -4.91,1.17 -10.87,1.89 -17.88,2.14 -13,0.51 -24.42,-1.23 -34.22,-5.2 -9.73,-3.97 -17.3,-10.13 -22.69,-18.49 -5.42,-8.37 -8.08,-18.95 -7.98,-31.71l0 -188.61zm212.45 245.14c-20.03,0 -37.28,-4.03 -51.73,-12.16 -14.37,-8.19 -25.44,-19.76 -33.2,-34.73 -7.79,-15.04 -11.67,-32.82 -11.67,-53.37 0,-20.03 3.89,-37.6 11.67,-52.75 7.76,-15.13 18.72,-26.9 32.82,-35.35 14.22,-8.46 30.85,-12.67 49.95,-12.67 12.85,0 24.81,2.07 35.88,6.22 11.16,4.04 20.88,10.18 29.16,18.37 8.36,8.21 14.85,18.52 19.51,30.94 4.64,12.34 6.96,26.77 6.96,43.35l0 14.83 -164.4 0 0 -33.46 113.59 0c0,-7.78 -1.7,-14.68 -5.06,-20.66 -3.4,-6 -8.08,-10.7 -14.08,-14.07 -5.92,-3.46 -12.81,-5.2 -20.66,-5.2 -8.21,0 -15.45,1.9 -21.82,5.71 -6.24,3.7 -11.15,8.74 -14.7,15.08 -3.55,6.25 -5.35,13.24 -5.45,20.91l0 31.81c0,9.63 1.79,17.96 5.34,24.98 3.63,7.01 8.74,12.43 15.32,16.23 6.6,3.8 14.42,5.7 23.45,5.7 6,0 11.49,-0.84 16.49,-2.54 4.97,-1.7 9.25,-4.22 12.8,-7.6 3.55,-3.36 6.25,-7.51 8.1,-12.43l49.96 3.3c-2.54,12.01 -7.72,22.49 -15.59,31.43 -7.77,8.88 -17.83,15.8 -30.16,20.79 -12.26,4.91 -26.42,7.34 -42.46,7.34zm124.61 69.23l0 -267.73 53.23 0 0 32.71 2.41 0c2.36,-5.24 5.8,-10.57 10.26,-15.96 4.57,-5.49 10.48,-10.07 17.76,-13.7 7.34,-3.73 16.47,-5.57 27.37,-5.57 14.19,0 27.31,3.73 39.29,11.15 12,7.36 21.6,18.47 28.79,33.33 7.18,14.79 10.77,33.35 10.77,55.66 0,21.7 -3.51,40.04 -10.52,55.02 -6.93,14.86 -16.39,26.15 -28.4,33.84 -11.91,7.62 -25.28,11.41 -40.07,11.41 -10.46,0 -19.39,-1.74 -26.72,-5.2 -7.28,-3.45 -13.24,-7.81 -17.9,-13.05 -4.64,-5.33 -8.19,-10.68 -10.64,-16.11l-1.65 0 0 104.21 -53.99 0zm52.85 -170.39c0,11.58 1.6,21.69 4.81,30.3 3.21,8.63 7.86,15.35 13.95,20.17 6.08,4.73 13.47,7.1 22.17,7.1 8.79,0 16.25,-2.41 22.31,-7.23 6.09,-4.91 10.68,-11.67 13.83,-20.28 3.21,-8.71 4.83,-18.72 4.83,-30.06 0,-11.22 -1.59,-21.12 -4.72,-29.64 -3.13,-8.55 -7.72,-15.22 -13.81,-20.03 -6.09,-4.83 -13.56,-7.23 -22.45,-7.23 -8.79,0 -16.22,2.32 -22.31,6.98 -6,4.64 -10.6,11.24 -13.81,19.76 -3.21,8.55 -4.81,18.59 -4.81,30.16zm368.09 -162.23l0 259.59 -54.9 0 0 -207.51 -1.52 0 -59.46 37.26 0 -48.66 64.28 -40.69 51.6 0z"/>
  </g>
  <circle class="fil2" transform="matrix(-0.731555 -0.613848 -0.613848 0.731555 7824.6 6811.74)" r="93.45"/>
  <circle class="fil2" transform="matrix(-0.731555 -0.613848 -0.613848 0.731555 7277.69 6352.84)" r="93.45"/>
  <circle class="fil2" transform="matrix(-0.731555 -0.613848 -0.613848 0.731555 6730.8 5893.94)" r="93.45"/>
  <circle class="fil2" transform="matrix(-0.731555 -0.613848 -0.613848 0.731555 6183.88 5435.01)" r="93.45"/>
 </g>
</svg>
