<?xml version="1.0" encoding="UTF-8"?>
<!DOCTYPE svg PUBLIC "-//W3C//DTD SVG 1.1//EN" "http://www.w3.org/Graphics/SVG/1.1/DTD/svg11.dtd">
<!-- Creator: CorelDRAW 2019 (64-Bit) -->
<svg xmlns="http://www.w3.org/2000/svg" xml:space="preserve" width="52.2829mm" height="77.1456mm" version="1.1" style="shape-rendering:geometricPrecision; text-rendering:geometricPrecision; image-rendering:optimizeQuality; fill-rule:evenodd; clip-rule:evenodd"
viewBox="0 0 268.52 396.21"
 xmlns:xlink="http://www.w3.org/1999/xlink">
 <defs>
  <style type="text/css">
   <![CDATA[
    .str2 {stroke:#3F444D;stroke-width:10.87;stroke-miterlimit:22.9256}
    .str1 {stroke:#3F444D;stroke-width:5.44;stroke-linecap:round;stroke-linejoin:round;stroke-miterlimit:22.9256}
    .str0 {stroke:#3F444D;stroke-width:5.44;stroke-linecap:round;stroke-linejoin:round;stroke-miterlimit:22.9256;stroke-dasharray:1.358448 32.602753}
    .fil3 {fill:none}
    .fil2 {fill:#3F444D}
    .fil0 {fill:#F19F1F}
    .fil1 {fill:white}
   ]]>
  </style>
 </defs>
 <g id="Layer_x0020_1">
  <metadata id="CorelCorpID_0Corel-Layer"/>
  <g id="_2382970012832" filter="url(#filter0_d_513_622)">
   <path class="fil0" d="M132.85 0l0 0c18.11,0 32.79,14.68 32.79,32.79l0 0c0,18.11 -14.68,32.79 -32.79,32.79l0 0c-18.11,0 -32.79,-14.68 -32.79,-32.79l-0 0c0,-18.11 14.69,-32.79 32.79,-32.79z"/>
   <path class="fil1" d="M115.83 30.18c-0.04,-0.43 -0.23,-0.76 -0.55,-1 -0.32,-0.24 -0.76,-0.36 -1.32,-0.36 -0.38,0 -0.69,0.05 -0.95,0.16 -0.26,0.1 -0.46,0.25 -0.6,0.43 -0.14,0.18 -0.2,0.39 -0.2,0.63 -0.01,0.2 0.03,0.37 0.12,0.51 0.09,0.15 0.22,0.27 0.38,0.38 0.16,0.1 0.34,0.19 0.55,0.27 0.21,0.07 0.43,0.14 0.67,0.19l0.98 0.23c0.48,0.11 0.91,0.25 1.31,0.43 0.4,0.18 0.74,0.4 1.03,0.65 0.29,0.26 0.52,0.56 0.68,0.92 0.16,0.35 0.25,0.75 0.25,1.21 -0,0.67 -0.17,1.25 -0.51,1.73 -0.33,0.49 -0.82,0.87 -1.45,1.14 -0.63,0.27 -1.39,0.4 -2.27,0.4 -0.88,0 -1.65,-0.14 -2.3,-0.4 -0.65,-0.27 -1.16,-0.67 -1.52,-1.2 -0.36,-0.53 -0.55,-1.19 -0.57,-1.97l2.23 0c0.03,0.37 0.13,0.67 0.31,0.92 0.19,0.24 0.44,0.42 0.75,0.55 0.32,0.12 0.67,0.18 1.07,0.18 0.39,0 0.73,-0.06 1.02,-0.17 0.29,-0.11 0.52,-0.27 0.68,-0.47 0.16,-0.2 0.24,-0.43 0.24,-0.7 0,-0.24 -0.07,-0.45 -0.22,-0.62 -0.14,-0.17 -0.35,-0.31 -0.63,-0.43 -0.27,-0.12 -0.61,-0.22 -1.01,-0.32l-1.19 -0.3c-0.92,-0.22 -1.65,-0.57 -2.18,-1.05 -0.53,-0.48 -0.8,-1.12 -0.79,-1.92 -0,-0.66 0.17,-1.24 0.53,-1.73 0.36,-0.49 0.85,-0.88 1.47,-1.16 0.62,-0.28 1.33,-0.41 2.13,-0.41 0.81,0 1.52,0.14 2.12,0.41 0.61,0.28 1.08,0.66 1.42,1.16 0.34,0.49 0.51,1.06 0.52,1.71l-2.21 0zm8.21 -0.41l0 1.7 -4.92 0 0 -1.7 4.92 0zm-3.81 -1.96l2.27 0 0 7.62c0,0.21 0.03,0.37 0.1,0.49 0.06,0.11 0.15,0.19 0.27,0.24 0.12,0.05 0.25,0.07 0.4,0.07 0.11,0 0.21,-0.01 0.32,-0.03 0.11,-0.02 0.19,-0.04 0.25,-0.05l0.36 1.69c-0.11,0.04 -0.27,0.08 -0.48,0.12 -0.21,0.05 -0.46,0.08 -0.75,0.09 -0.55,0.02 -1.03,-0.05 -1.44,-0.22 -0.41,-0.17 -0.73,-0.43 -0.95,-0.78 -0.23,-0.35 -0.34,-0.8 -0.34,-1.33l0 -7.92zm8.92 10.29c-0.84,0 -1.57,-0.17 -2.17,-0.51 -0.6,-0.34 -1.07,-0.83 -1.39,-1.46 -0.33,-0.63 -0.49,-1.38 -0.49,-2.24 0,-0.84 0.16,-1.58 0.49,-2.21 0.33,-0.64 0.79,-1.13 1.38,-1.49 0.6,-0.36 1.3,-0.53 2.1,-0.53 0.54,0 1.04,0.09 1.51,0.26 0.47,0.17 0.88,0.43 1.22,0.77 0.35,0.35 0.62,0.78 0.82,1.3 0.19,0.52 0.29,1.12 0.29,1.82l0 0.62 -6.9 0 0 -1.41 4.77 0c0,-0.33 -0.07,-0.62 -0.21,-0.87 -0.14,-0.25 -0.34,-0.45 -0.59,-0.59 -0.25,-0.14 -0.54,-0.22 -0.87,-0.22 -0.35,0 -0.65,0.08 -0.92,0.24 -0.26,0.16 -0.47,0.37 -0.62,0.63 -0.15,0.26 -0.22,0.56 -0.23,0.88l0 1.34c0,0.4 0.07,0.75 0.22,1.05 0.15,0.29 0.37,0.52 0.64,0.68 0.28,0.16 0.61,0.24 0.99,0.24 0.25,0 0.48,-0.04 0.69,-0.11 0.21,-0.07 0.39,-0.18 0.54,-0.32 0.15,-0.14 0.26,-0.32 0.34,-0.52l2.1 0.14c-0.11,0.5 -0.32,0.94 -0.66,1.32 -0.33,0.37 -0.75,0.66 -1.27,0.87 -0.51,0.21 -1.11,0.31 -1.78,0.31zm5.23 2.91l0 -11.24 2.24 0 0 1.37 0.1 0c0.1,-0.22 0.24,-0.44 0.43,-0.67 0.19,-0.23 0.44,-0.42 0.75,-0.58 0.31,-0.16 0.69,-0.23 1.15,-0.23 0.6,0 1.15,0.16 1.65,0.47 0.5,0.31 0.91,0.78 1.21,1.4 0.3,0.62 0.45,1.4 0.45,2.34 0,0.91 -0.15,1.68 -0.44,2.31 -0.29,0.62 -0.69,1.1 -1.19,1.42 -0.5,0.32 -1.06,0.48 -1.68,0.48 -0.44,0 -0.81,-0.07 -1.12,-0.22 -0.31,-0.15 -0.56,-0.33 -0.75,-0.55 -0.2,-0.22 -0.34,-0.45 -0.45,-0.68l-0.07 0 0 4.38 -2.27 0zm2.22 -7.15c0,0.49 0.07,0.91 0.2,1.27 0.14,0.36 0.33,0.64 0.59,0.85 0.26,0.2 0.57,0.3 0.93,0.3 0.37,0 0.68,-0.1 0.94,-0.3 0.26,-0.21 0.45,-0.49 0.58,-0.85 0.14,-0.37 0.2,-0.79 0.2,-1.26 0,-0.47 -0.07,-0.89 -0.2,-1.25 -0.13,-0.36 -0.32,-0.64 -0.58,-0.84 -0.26,-0.2 -0.57,-0.3 -0.94,-0.3 -0.37,0 -0.68,0.1 -0.94,0.29 -0.25,0.2 -0.45,0.47 -0.58,0.83 -0.13,0.36 -0.2,0.78 -0.2,1.27zm10.71 4.09l0 -1.66 3.88 -3.59c0.33,-0.32 0.61,-0.61 0.83,-0.86 0.23,-0.26 0.4,-0.51 0.52,-0.75 0.12,-0.25 0.18,-0.52 0.18,-0.8 0,-0.32 -0.07,-0.59 -0.22,-0.82 -0.15,-0.23 -0.34,-0.41 -0.6,-0.54 -0.25,-0.13 -0.54,-0.19 -0.86,-0.19 -0.33,0 -0.63,0.07 -0.87,0.2 -0.25,0.13 -0.44,0.33 -0.57,0.58 -0.14,0.25 -0.2,0.55 -0.2,0.9l-2.19 0c0,-0.71 0.16,-1.33 0.48,-1.86 0.32,-0.53 0.77,-0.93 1.36,-1.22 0.58,-0.29 1.25,-0.43 2.01,-0.43 0.78,0 1.46,0.14 2.04,0.41 0.58,0.27 1.03,0.65 1.36,1.14 0.32,0.49 0.48,1.04 0.48,1.67 0,0.41 -0.08,0.82 -0.24,1.22 -0.16,0.4 -0.45,0.85 -0.86,1.34 -0.41,0.49 -0.99,1.07 -1.74,1.75l-1.59 1.56 0 0.07 4.58 0 0 1.88 -7.77 0z"/>
  </g>
  <circle class="fil2" transform="matrix(1.82603E-14 -0.689469 0.689469 1.82603E-14 132.855 106.807)" r="5.44"/>
  <circle class="fil2" transform="matrix(1.82603E-14 -0.689469 0.689469 1.82603E-14 132.855 76.8259)" r="5.44"/>
  <path class="fil3 str0" d="M262.15 264.21c0,16.98 -3.34,33.79 -9.84,49.48 -6.5,15.69 -16.02,29.94 -28.03,41.95 -12.01,12.01 -26.26,21.53 -41.95,28.03 -15.69,6.5 -32.5,9.84 -49.48,9.84 -16.98,0 -33.79,-3.34 -49.48,-9.84 -15.69,-6.5 -29.94,-16.02 -41.95,-28.03 -12.01,-12.01 -21.53,-26.26 -28.03,-41.95 -6.5,-15.69 -9.84,-32.5 -9.84,-49.48"/>
  <path class="fil3 str1" d="M3.56 264.21c0,-20.4 4.83,-40.52 14.09,-58.7 9.26,-18.18 22.7,-33.91 39.2,-45.9"/>
  <path class="fil3 str1" d="M207 157.94c16.71,11.7 30.42,27.2 40,45.21 9.58,18.02 14.76,38.04 15.11,58.44"/>
  <path class="fil3 str0" d="M74.33 148.73c18.18,-9.26 38.29,-14.09 58.7,-14.09 20.4,0 40.52,4.83 58.7,14.09"/>
  <circle class="fil1 str2" cx="20.43" cy="204.24" r="14.99"/>
  <circle class="fil2" cx="20.43" cy="204.24" r="7.49"/>
  <circle class="fil1 str2" cx="248.09" cy="204.24" r="14.99"/>
  <circle class="fil2" cx="248.09" cy="204.24" r="7.49"/>
  <g id="_2382969968928" filter="url(#filter1_di_513_622)">
   <path class="fil1" d="M132.85 170.98l0 0c51.73,0 93.69,41.96 93.69,93.69l0 0c0,51.73 -41.96,93.69 -93.69,93.69l0 0c-51.73,-0 -93.69,-41.96 -93.69,-93.69l-0 0c0,-51.74 41.96,-93.69 93.69,-93.69z"/>
   <path class="fil2" d="M127.65 241.25l-15.61 0c-0.69,0 -1.35,0.27 -1.84,0.76 -0.49,0.49 -0.76,1.15 -0.76,1.84l0 15.62c0,0.69 0.27,1.35 0.76,1.84 0.49,0.49 1.15,0.76 1.84,0.76l15.61 0c0.69,0 1.35,-0.27 1.84,-0.76 0.49,-0.49 0.76,-1.15 0.76,-1.84l0 -15.62c0,-0.69 -0.27,-1.35 -0.76,-1.84 -0.49,-0.49 -1.15,-0.76 -1.84,-0.76zm-2.6 15.62l-10.41 0 0 -10.41 10.41 0 0 10.41zm28.63 10.41l-15.61 0c-0.69,0 -1.35,0.27 -1.84,0.76 -0.49,0.49 -0.76,1.15 -0.76,1.84l0 15.61c0,0.69 0.27,1.35 0.76,1.84 0.49,0.49 1.15,0.76 1.84,0.76l15.61 0c0.69,0 1.35,-0.27 1.84,-0.76 0.49,-0.49 0.76,-1.15 0.76,-1.84l0 -15.61c0,-0.69 -0.27,-1.35 -0.76,-1.84 -0.49,-0.49 -1.15,-0.76 -1.84,-0.76zm-2.6 15.62l-10.41 0 0 -10.41 10.41 0 0 10.41zm-5.2 -41.64c-5.74,0 -10.41,4.67 -10.41,10.41 0,5.74 4.67,10.41 10.41,10.41 5.74,0 10.41,-4.67 10.41,-10.41 0,-5.74 -4.67,-10.41 -10.41,-10.41zm0 15.62c-2.87,0 -5.21,-2.33 -5.21,-5.21 0,-2.87 2.33,-5.2 5.21,-5.2 2.87,0 5.2,2.33 5.2,5.2 0,2.87 -2.33,5.21 -5.2,5.21zm-26.03 10.41c-5.74,0 -10.41,4.67 -10.41,10.41 0,5.74 4.67,10.41 10.41,10.41 5.74,0 10.41,-4.67 10.41,-10.41 0,-5.74 -4.67,-10.41 -10.41,-10.41zm0 15.62c-2.87,0 -5.2,-2.33 -5.2,-5.21 0,-2.87 2.33,-5.21 5.2,-5.21 2.87,0 5.21,2.33 5.21,5.21 0,2.87 -2.33,5.21 -5.21,5.21z"/>
  </g>
 </g>
</svg>
