<?xml version="1.0" encoding="UTF-8"?>
<!DOCTYPE svg PUBLIC "-//W3C//DTD SVG 1.1//EN" "http://www.w3.org/Graphics/SVG/1.1/DTD/svg11.dtd">
<!-- Creator: CorelDRAW 2019 (64-Bit) -->
<svg xmlns="http://www.w3.org/2000/svg" xml:space="preserve" width="20.1294mm" height="20.1294mm" version="1.1" style="shape-rendering:geometricPrecision; text-rendering:geometricPrecision; image-rendering:optimizeQuality; fill-rule:evenodd; clip-rule:evenodd"
viewBox="0 0 198.97 198.97"
 xmlns:xlink="http://www.w3.org/1999/xlink">
 <defs>
  <style type="text/css">
   <![CDATA[
    .str0 {stroke:#F19F1F;stroke-width:5.23;stroke-miterlimit:22.9256}
    .fil1 {fill:none}
    .fil2 {fill:#F19F1F}
    .fil0 {fill:#FEFBF5}
   ]]>
  </style>
 </defs>
 <g id="Layer_x0020_1">
  <metadata id="CorelCorpID_0Corel-Layer"/>
  <g id="oem-3.svg">
   <g filter="url(#filter0_d_5_2840)">
    <path class="fil0" d="M99.49 0.64l0 0c54.58,0 98.85,44.26 98.85,98.85l0 0c0,54.58 -44.26,98.85 -98.85,98.85l0 0c-54.58,-0 -98.85,-44.27 -98.85,-98.85l-0 0c0,-54.58 44.27,-98.85 98.85,-98.85z"/>
    <path class="fil1 str0" d="M99.49 2.62l0 0c53.49,0 96.87,43.38 96.87,96.87l0 0c0,53.49 -43.38,96.87 -96.87,96.87l0 0c-53.49,-0 -96.87,-43.38 -96.87,-96.87l-0 0c0,-53.49 43.38,-96.87 96.87,-96.87z"/>
    <path class="fil2" d="M123.06 64.11c2.78,0 5.44,-1.1 7.41,-3.07 1.97,-1.97 3.07,-4.63 3.07,-7.41 0,-2.78 -1.1,-5.45 -3.07,-7.41 -1.97,-1.97 -4.63,-3.07 -7.41,-3.07 -2.78,0 -5.44,1.1 -7.41,3.07 -1.97,1.97 -3.07,4.63 -3.07,7.41 0,2.78 1.1,5.45 3.07,7.41 1.97,1.97 4.63,3.07 7.41,3.07zm-18.86 72.85l5.24 -23.06 11 10.48 0 31.45 10.48 0 0 -39.31 -11 -10.48 3.14 -15.72c3.59,4.11 8.02,7.41 12.99,9.67 4.97,2.26 10.37,3.43 15.83,3.43l0 -10.48c-9.22,0.16 -17.81,-4.66 -22.53,-12.58l-5.24 -8.39c-1.89,-3.15 -5.24,-5.24 -8.91,-5.24 -1.57,0 -2.62,0.52 -4.19,0.52l-27.24 11.53 0 24.63 10.48 0 0 -17.82 9.43 -3.67 -8.38 42.45 -25.67 -5.24 -2.1 10.48 36.67 7.34zm-46.63 -54.51c-1.39,0 -2.72,-0.55 -3.7,-1.54 -0.98,-0.98 -1.53,-2.31 -1.53,-3.71 0,-1.39 0.55,-2.72 1.53,-3.71 0.98,-0.98 2.31,-1.54 3.7,-1.54l15.72 0 0 10.48 -15.72 0zm5.24 -20.97c-1.39,0 -2.72,-0.55 -3.7,-1.54 -0.98,-0.98 -1.53,-2.32 -1.53,-3.71 0,-1.39 0.55,-2.72 1.53,-3.71 0.98,-0.98 2.31,-1.54 3.7,-1.54l26.19 0 0 10.48 -26.19 0zm-10.48 41.93c-1.39,0 -2.72,-0.55 -3.7,-1.54 -0.98,-0.98 -1.54,-2.31 -1.54,-3.71 0,-1.39 0.55,-2.72 1.54,-3.71 0.98,-0.98 2.31,-1.54 3.7,-1.54l20.96 0 0 10.48 -20.96 0z"/>
   </g>
  </g>
 </g>
</svg>
