<?xml version="1.0" encoding="UTF-8"?>
<!DOCTYPE svg PUBLIC "-//W3C//DTD SVG 1.1//EN" "http://www.w3.org/Graphics/SVG/1.1/DTD/svg11.dtd">
<!-- Creator: CorelDRAW 2019 (64-Bit) -->
<svg xmlns="http://www.w3.org/2000/svg" xml:space="preserve" width="20.1295mm" height="20.1295mm" version="1.1" style="shape-rendering:geometricPrecision; text-rendering:geometricPrecision; image-rendering:optimizeQuality; fill-rule:evenodd; clip-rule:evenodd"
viewBox="0 0 225.16 225.16"
 xmlns:xlink="http://www.w3.org/1999/xlink">
 <defs>
  <style type="text/css">
   <![CDATA[
    .str0 {stroke:#F19F1F;stroke-width:5.92;stroke-miterlimit:22.9256}
    .fil1 {fill:none}
    .fil2 {fill:#F19F1F}
    .fil0 {fill:#FEFBF5}
   ]]>
  </style>
 </defs>
 <g id="Layer_x0020_1">
  <metadata id="CorelCorpID_0Corel-Layer"/>
  <g id="oem-2.svg">
   <g filter="url(#filter0_d_5_2834)">
    <path class="fil0" d="M112.58 0.72l0 0c61.77,0 111.86,50.09 111.86,111.86l0 0c0,61.77 -50.09,111.86 -111.86,111.86l0 0c-61.77,0 -111.86,-50.09 -111.86,-111.86l-0 0c0,-61.77 50.09,-111.86 111.86,-111.86z"/>
    <path class="fil1 str0" d="M112.58 2.96l0 0c60.53,0 109.62,49.09 109.62,109.62l0 0c0,60.53 -49.09,109.62 -109.62,109.62l0 0c-60.53,0 -109.62,-49.09 -109.62,-109.62l-0 0c0,-60.53 49.09,-109.62 109.62,-109.62z"/>
    <path class="fil2" d="M112.58 53.3c32.72,0 59.29,26.56 59.29,59.28 0,32.72 -26.56,59.29 -59.29,59.29 -32.72,0 -59.28,-26.56 -59.28,-59.29 0,-32.72 26.56,-59.28 59.28,-59.28zm0 106.71c26.25,0 47.43,-21.18 47.43,-47.43 0,-26.24 -21.18,-47.43 -47.43,-47.43 -6.23,-0.01 -12.4,1.21 -18.16,3.6 -5.76,2.38 -10.99,5.87 -15.39,10.28 -4.41,4.4 -7.9,9.64 -10.28,15.39 -2.38,5.76 -3.6,11.93 -3.6,18.16 0,26.25 21.18,47.43 47.43,47.43zm0 -11.86c-19.68,0 -35.57,-15.89 -35.57,-35.57 0,-19.68 15.89,-35.57 35.57,-35.57 19.68,0 35.57,15.89 35.57,35.57 0,19.68 -15.89,35.57 -35.57,35.57zm0 -47.43c-6.52,0 -11.86,5.34 -11.86,11.86 0,6.52 5.34,11.86 11.86,11.86 6.52,0 11.86,-5.33 11.86,-11.86 0,-6.52 -5.33,-11.86 -11.86,-11.86z"/>
   </g>
  </g>
 </g>
</svg>
