<?xml version="1.0" encoding="UTF-8"?>
<!DOCTYPE svg PUBLIC "-//W3C//DTD SVG 1.1//EN" "http://www.w3.org/Graphics/SVG/1.1/DTD/svg11.dtd">
<!-- Creator: CorelDRAW 2019 (64-Bit) -->
<svg xmlns="http://www.w3.org/2000/svg" xml:space="preserve" width="20.1294mm" height="20.1294mm" version="1.1" style="shape-rendering:geometricPrecision; text-rendering:geometricPrecision; image-rendering:optimizeQuality; fill-rule:evenodd; clip-rule:evenodd"
viewBox="0 0 164.74 164.74"
 xmlns:xlink="http://www.w3.org/1999/xlink">
 <defs>
  <style type="text/css">
   <![CDATA[
    .str0 {stroke:#F19F1F;stroke-width:4.33;stroke-miterlimit:22.9256}
    .fil1 {fill:none}
    .fil2 {fill:#F19F1F}
    .fil0 {fill:#FEFBF5}
   ]]>
  </style>
 </defs>
 <g id="Layer_x0020_1">
  <metadata id="CorelCorpID_0Corel-Layer"/>
  <g id="oem-4.svg">
   <g filter="url(#filter0_d_5_2846)">
    <path class="fil0" d="M82.37 0.53l0 0c45.19,0 81.84,36.65 81.84,81.84l0 0c0,45.19 -36.65,81.84 -81.84,81.84l0 0c-45.19,-0 -81.84,-36.65 -81.84,-81.84l-0 0c0,-45.19 36.65,-81.84 81.84,-81.84z"/>
    <path class="fil1 str0" d="M82.37 2.17l0 0c44.29,0 80.21,35.92 80.21,80.21l0 0c0,44.29 -35.92,80.21 -80.21,80.21l0 0c-44.29,-0 -80.21,-35.92 -80.21,-80.21l-0 0c0,-44.29 35.92,-80.21 80.21,-80.21z"/>
    <path class="fil2" d="M53.56 102.67l0 -3.27 -6.55 0 0 3.27c0,6.08 2.42,11.91 6.71,16.2 4.3,4.3 10.13,6.71 16.2,6.71l9.82 0 0 -6.55 -9.82 0c-4.34,0 -8.51,-1.72 -11.57,-4.79 -3.07,-3.07 -4.8,-7.23 -4.8,-11.57zm58.93 -32.74l0 3.27 6.55 0 0 -3.27c0,-6.08 -2.41,-11.91 -6.71,-16.2 -4.3,-4.3 -10.13,-6.71 -16.2,-6.71l-9.82 0 0 6.55 9.82 0c2.15,0 4.28,0.42 6.26,1.25 1.99,0.82 3.79,2.03 5.31,3.55 1.52,1.52 2.73,3.32 3.55,5.31 0.82,1.99 1.25,4.11 1.25,6.26zm-42.56 0l-19.64 0c-2.61,0 -5.1,1.04 -6.94,2.88 -1.84,1.84 -2.88,4.34 -2.88,6.94l0 6.55 6.55 0 0 -6.55c0,-0.87 0.35,-1.7 0.96,-2.31 0.61,-0.61 1.45,-0.96 2.32,-0.96l19.64 0c0.87,0 1.7,0.34 2.31,0.96 0.61,0.61 0.96,1.45 0.96,2.31l0 6.55 6.55 0 0 -6.55c0,-2.6 -1.04,-5.1 -2.88,-6.94 -1.84,-1.84 -4.34,-2.88 -6.94,-2.88zm-9.82 -3.27c2.59,0 5.12,-0.77 7.27,-2.21 2.15,-1.44 3.83,-3.48 4.82,-5.88 0.99,-2.39 1.25,-5.03 0.75,-7.57 -0.51,-2.54 -1.75,-4.87 -3.58,-6.7 -1.83,-1.83 -4.16,-3.08 -6.71,-3.58 -2.54,-0.51 -5.17,-0.25 -7.57,0.75 -2.39,0.99 -4.44,2.67 -5.88,4.82 -1.44,2.15 -2.21,4.69 -2.21,7.27 0,3.47 1.38,6.8 3.84,9.26 2.46,2.46 5.79,3.84 9.26,3.84zm0 -19.64c1.29,0 2.56,0.38 3.64,1.1 1.08,0.72 1.92,1.74 2.41,2.94 0.5,1.2 0.63,2.51 0.37,3.78 -0.25,1.27 -0.88,2.44 -1.79,3.35 -0.91,0.91 -2.08,1.54 -3.35,1.79 -1.27,0.25 -2.59,0.12 -3.78,-0.37 -1.2,-0.5 -2.22,-1.33 -2.94,-2.41 -0.72,-1.08 -1.1,-2.34 -1.1,-3.64 0,-1.74 0.69,-3.4 1.92,-4.63 1.23,-1.23 2.89,-1.92 4.63,-1.92zm62.2 68.75l-19.64 0c-2.61,0 -5.1,1.03 -6.94,2.88 -1.84,1.84 -2.88,4.34 -2.88,6.94l0 6.55 6.55 0 0 -6.55c0,-0.87 0.34,-1.7 0.96,-2.31 0.61,-0.61 1.45,-0.96 2.31,-0.96l19.64 0c0.87,0 1.7,0.35 2.32,0.96 0.61,0.61 0.96,1.45 0.96,2.31l0 6.55 6.55 0 0 -6.55c0,-2.61 -1.03,-5.1 -2.88,-6.94 -1.84,-1.84 -4.34,-2.88 -6.95,-2.88zm-22.92 -16.37c0,2.59 0.77,5.12 2.21,7.27 1.44,2.15 3.48,3.83 5.88,4.82 2.39,0.99 5.03,1.25 7.57,0.74 2.54,-0.5 4.87,-1.75 6.7,-3.58 1.83,-1.83 3.08,-4.16 3.58,-6.7 0.5,-2.54 0.25,-5.17 -0.75,-7.57 -0.99,-2.39 -2.67,-4.44 -4.82,-5.88 -2.15,-1.44 -4.68,-2.21 -7.27,-2.21 -3.47,0 -6.8,1.38 -9.26,3.84 -2.46,2.46 -3.84,5.79 -3.84,9.26zm19.64 0c0,1.3 -0.38,2.56 -1.1,3.64 -0.72,1.08 -1.74,1.92 -2.94,2.41 -1.2,0.5 -2.51,0.63 -3.78,0.37 -1.27,-0.25 -2.44,-0.88 -3.35,-1.79 -0.91,-0.92 -1.54,-2.08 -1.79,-3.35 -0.25,-1.27 -0.12,-2.59 0.37,-3.78 0.5,-1.2 1.33,-2.22 2.41,-2.94 1.08,-0.72 2.34,-1.1 3.64,-1.1 1.74,0 3.4,0.69 4.63,1.92 1.23,1.23 1.92,2.89 1.92,4.63z"/>
   </g>
  </g>
 </g>
</svg>
