<?xml version="1.0" encoding="UTF-8"?>
<!DOCTYPE svg PUBLIC "-//W3C//DTD SVG 1.1//EN" "http://www.w3.org/Graphics/SVG/1.1/DTD/svg11.dtd">
<!-- Creator: CorelDRAW 2019 (64-Bit) -->
<svg xmlns="http://www.w3.org/2000/svg" xml:space="preserve" width="20.5292mm" height="20.5292mm" version="1.1" style="shape-rendering:geometricPrecision; text-rendering:geometricPrecision; image-rendering:optimizeQuality; fill-rule:evenodd; clip-rule:evenodd"
viewBox="0 0 305.74 305.74"
 xmlns:xlink="http://www.w3.org/1999/xlink">
 <defs>
  <style type="text/css">
   <![CDATA[
    .str0 {stroke:#F19F1F;stroke-width:7.88;stroke-miterlimit:22.9256}
    .fil1 {fill:none}
    .fil2 {fill:#F19F1F}
    .fil0 {fill:#FEFBF5}
   ]]>
  </style>
 </defs>
 <g id="Layer_x0020_1">
  <metadata id="CorelCorpID_0Corel-Layer"/>
  <g id="oem-10.svg">
   <path class="fil0" d="M152.87 3.94l0 0c82.24,0 148.93,66.69 148.93,148.93l0 0c0,82.24 -66.69,148.93 -148.93,148.93l0 0c-82.24,-0 -148.93,-66.69 -148.93,-148.93l-0 0c0,-82.24 66.69,-148.93 148.93,-148.93z"/>
   <path class="fil1 str0" d="M152.87 3.94l0 0c82.24,0 148.93,66.69 148.93,148.93l0 0c0,82.24 -66.69,148.93 -148.93,148.93l0 0c-82.24,-0 -148.93,-66.69 -148.93,-148.93l-0 0c0,-82.24 66.69,-148.93 148.93,-148.93z"/>
   <path class="fil2" d="M198.7 58.9c0.72,-1.17 1.78,-2.1 3.02,-2.67 1.25,-0.57 2.63,-0.75 3.98,-0.53l35.6 5.98c1.81,0.3 3.43,1.32 4.49,2.82 1.07,1.5 1.5,3.37 1.2,5.19l-5.93 35.85c-0.23,1.36 -0.85,2.62 -1.78,3.62 -0.94,1 -2.15,1.71 -3.48,2.02 -1.33,0.31 -2.73,0.22 -4.01,-0.27 -1.28,-0.49 -2.39,-1.35 -3.18,-2.47l-9.61 -13.52 -49.49 31.83c-2.11,1.36 -4.64,1.9 -7.12,1.54 -2.48,-0.37 -4.74,-1.63 -6.37,-3.54l-27.6 -32.48 -51.61 26.69c-2.45,1.27 -5.3,1.51 -7.92,0.66 -2.62,-0.85 -4.8,-2.71 -6.06,-5.17 -1.26,-2.47 -1.5,-5.33 -0.65,-7.97 0.84,-2.64 2.69,-4.84 5.14,-6.1l58.92 -30.48c2.08,-1.08 4.46,-1.41 6.75,-0.96 2.29,0.46 4.37,1.68 5.89,3.47l27.06 31.85 40.99 -26.37 -7.99 -11.25c-0.79,-1.12 -1.24,-2.45 -1.28,-3.83 -0.04,-1.38 0.32,-2.74 1.05,-3.9zm-90.64 68.44l-40.18 23.14c-1.59,0.91 -2.91,2.23 -3.83,3.82 -0.92,1.59 -1.4,3.4 -1.41,5.24l0 80.14c0,5.77 4.65,10.45 10.38,10.45l35.03 0 0 -122.8zm17.31 122.8l50.79 0 0 -94.95 -22.83 11.49 -22.82 -40.2c-1.15,-2.04 -2.96,-3.64 -5.12,-4.52l-0.01 128.18zm106.89 0l-38.8 0 0 -103.66 34.16 -17.2c1.58,-0.8 3.34,-1.17 5.11,-1.09 1.77,0.08 3.48,0.62 4.99,1.55 1.51,0.94 2.75,2.25 3.61,3.8 0.86,1.56 1.31,3.31 1.31,5.09l0 101.05c0,2.77 -1.09,5.43 -3.04,7.39 -1.95,1.96 -4.59,3.06 -7.34,3.06z"/>
  </g>
 </g>
</svg>
