<svg width="1011" height="292" viewBox="0 0 1011 292" fill="none" xmlns="http://www.w3.org/2000/svg">
<rect width="12" height="200" transform="matrix(0.866025 -0.5 0.866026 0.5 110 102)" fill="#F1F3F9"/>
<rect width="12" height="200" transform="matrix(0.866025 -0.5 0.866026 0.5 514 98)" fill="#F1F3F9"/>
<rect width="12" height="200" transform="matrix(0.866025 0.5 -0.866025 0.5 490 86)" fill="#F1F3F9"/>
<rect width="12" height="200" transform="matrix(0.866025 0.5 -0.866025 0.5 892 92)" fill="#F1F3F9"/>
<path d="M48.2392 50.944C46.7058 51.8293 45.3202 52.1813 44.0823 52C42.863 51.808 41.9022 51.0613 41.2002 49.76C40.4981 48.4373 40.1471 46.5493 40.1471 44.096C40.1471 41.6427 40.4981 39.36 41.2002 37.248C41.9022 35.1147 42.863 33.248 44.0823 31.648C45.3202 30.0373 46.7058 28.7893 48.2392 27.904C49.7912 27.008 51.1768 26.656 52.3962 26.848C53.6155 27.04 54.5762 27.7973 55.2783 29.12C55.9988 30.4107 56.3591 32.2827 56.3591 34.736C56.3591 37.1893 55.9988 39.488 55.2783 41.632C54.5762 43.744 53.6155 45.6 52.3962 47.2C51.1768 48.8 49.7912 50.048 48.2392 50.944ZM48.2392 47.328C49.1445 46.8053 49.9297 46.0747 50.5948 45.136C51.2599 44.176 51.7772 43.0027 52.1467 41.616C52.5347 40.2187 52.7287 38.624 52.7287 36.832C52.7287 35.0187 52.5347 33.648 52.1467 32.72C51.7772 31.76 51.2599 31.1947 50.5948 31.024C49.9297 30.832 49.1445 30.9973 48.2392 31.52C47.3709 32.0213 46.5949 32.7573 45.9114 33.728C45.2463 34.6667 44.7197 35.8347 44.3317 37.232C43.9622 38.5973 43.7775 40.1867 43.7775 42C43.7775 43.792 43.9622 45.168 44.3317 46.128C44.7197 47.0773 45.2463 47.648 45.9114 47.84C46.5949 48 47.3709 47.8293 48.2392 47.328ZM61.8705 42.754L61.8705 21.954L63.4501 22.93L57.769 26.21L57.769 22.722L65.4731 18.274L65.4731 40.674L61.8705 42.754Z" fill="#19C9FC"/>
<g filter="url(#filter0_d_59_830)">
<rect width="72" height="72" rx="16" transform="matrix(0.866025 -0.5 0.866026 0.5 32.5 84)" fill="white" shape-rendering="crispEdges"/>
<rect x="3.4641" y="-2.38419e-07" width="68" height="68" rx="14" transform="matrix(0.866025 -0.5 0.866026 0.5 32.9641 85.7321)" stroke="#19C9FC" stroke-width="4" shape-rendering="crispEdges"/>
<path d="M99.1837 86.5C101.575 85.1193 101.575 82.8807 99.1837 81.5C96.7923 80.1193 92.9149 80.1193 90.5235 81.5C88.132 82.8807 88.132 85.1193 90.5235 86.5C92.915 87.8807 96.7923 87.8807 99.1837 86.5Z" fill="#19C9FC"/>
<path d="M84.8498 76.5575L81.8635 74.8333L78.9767 76.5L81.9631 78.2242C79.7468 79.8777 78.5443 81.9092 78.5443 84C78.5443 86.0908 79.7468 88.1223 81.9631 89.7758L78.9767 91.5L81.8635 93.1667L84.8498 91.4425C87.7136 92.7223 91.2324 93.4166 94.8538 93.4166C98.4752 93.4166 101.994 92.7223 104.858 91.4425L107.844 93.1667L110.731 91.5L107.745 89.7758C109.961 88.1224 111.164 86.0908 111.164 84C111.164 81.9092 109.961 79.8776 107.745 78.2242L110.731 76.5L107.844 74.8333L104.858 76.5575C101.994 75.2779 98.4752 74.5837 94.8538 74.5837C91.2325 74.5837 87.7137 75.2779 84.8498 76.5575V76.5575ZM103.514 89C98.738 91.7575 90.9697 91.7575 86.1936 89C81.4175 86.2425 81.4175 81.7575 86.1936 79C90.9697 76.2425 98.738 76.2425 103.514 79C108.29 81.7575 108.29 86.2425 103.514 89Z" fill="#19C9FC"/>
</g>
<path d="M458.239 53.944C456.706 54.8293 455.32 55.1813 454.082 55C452.863 54.808 451.902 54.0613 451.2 52.76C450.498 51.4373 450.147 49.5493 450.147 47.096C450.147 44.6427 450.498 42.36 451.2 40.248C451.902 38.1147 452.863 36.248 454.082 34.648C455.32 33.0373 456.706 31.7893 458.239 30.904C459.791 30.008 461.177 29.656 462.396 29.848C463.616 30.04 464.576 30.7973 465.278 32.12C465.999 33.4107 466.359 35.2827 466.359 37.736C466.359 40.1893 465.999 42.488 465.278 44.632C464.576 46.744 463.616 48.6 462.396 50.2C461.177 51.8 459.791 53.048 458.239 53.944ZM458.239 50.328C459.145 49.8053 459.93 49.0747 460.595 48.136C461.26 47.176 461.777 46.0027 462.147 44.616C462.535 43.2187 462.729 41.624 462.729 39.832C462.729 38.0187 462.535 36.648 462.147 35.72C461.777 34.76 461.26 34.1947 460.595 34.024C459.93 33.832 459.145 33.9973 458.239 34.52C457.371 35.0213 456.595 35.7573 455.911 36.728C455.246 37.6667 454.72 38.8347 454.332 40.232C453.962 41.5973 453.777 43.1867 453.777 45C453.777 46.792 453.962 48.168 454.332 49.128C454.72 50.0773 455.246 50.648 455.911 50.84C456.595 51 457.371 50.8293 458.239 50.328ZM474.62 44.4866C473.253 45.276 471.913 45.8253 470.602 46.1346C469.308 46.412 468.218 46.4013 467.331 46.1026L468.883 41.9746C469.585 42.2306 470.435 42.2733 471.433 42.1026C472.431 41.932 473.474 41.532 474.564 40.9026C475.858 40.156 476.865 39.276 477.585 38.2626C478.306 37.228 478.666 36.188 478.666 35.1426C478.666 34.1186 478.333 33.5 477.668 33.2866C477.003 33.0733 475.932 33.3933 474.454 34.2466L472.68 35.2706L472.68 32.4226L478.223 21.6066L478.694 22.9026L468.274 28.9186L468.274 25.4306L481.493 17.7986L481.493 20.5826L475.95 31.3986L474.066 31.2066L475.146 30.5826C477.53 29.2066 479.313 28.796 480.495 29.3506C481.696 29.8733 482.296 31.0946 482.296 33.0146C482.296 34.2733 482.019 35.596 481.465 36.9826C480.911 38.3693 480.061 39.724 478.915 41.0466C477.788 42.3373 476.357 43.484 474.62 44.4866Z" fill="#9B29F2"/>
<g filter="url(#filter1_d_59_830)">
<rect width="72" height="72" rx="16" transform="matrix(0.866025 -0.5 0.866026 0.5 442.5 84)" fill="white" shape-rendering="crispEdges"/>
<rect x="3.4641" y="-2.38419e-07" width="68" height="68" rx="14" transform="matrix(0.866025 -0.5 0.866026 0.5 442.964 85.7321)" stroke="#9B29F2" stroke-width="4" shape-rendering="crispEdges"/>
<g clip-path="url(#clip0_59_830)">
<path d="M490.42 75.6667C487.565 77.3148 485.621 79.4147 484.834 81.7008C484.046 83.9869 484.45 86.3565 485.995 88.51C487.54 90.6634 490.157 92.504 493.513 93.799C496.87 95.0939 500.817 95.7851 504.854 95.7851C508.891 95.7851 512.838 95.0939 516.194 93.799C519.551 92.504 522.168 90.6634 523.712 88.51C525.257 86.3565 525.662 83.9869 524.874 81.7008C524.086 79.4147 522.142 77.3148 519.288 75.6667C517.392 74.5723 515.142 73.7042 512.665 73.112C510.189 72.5197 507.534 72.2149 504.854 72.2149C502.173 72.2149 499.519 72.5197 497.042 73.112C494.566 73.7042 492.316 74.5723 490.42 75.6667V75.6667ZM516.401 90.6667C514.117 91.9852 511.207 92.8831 508.04 93.2469C504.872 93.6107 501.589 93.424 498.605 92.7104C495.621 91.9968 493.07 90.7884 491.276 89.238C489.482 87.6875 488.524 85.8647 488.524 84C488.524 82.1353 489.482 80.3125 491.276 78.762C493.07 77.2116 495.621 76.0032 498.605 75.2896C501.589 74.576 504.872 74.3893 508.04 74.7531C511.207 75.1168 514.117 76.0148 516.401 77.3333C519.463 79.1014 521.184 81.4995 521.184 84C521.184 86.5005 519.463 88.8986 516.401 90.6667V90.6667Z" fill="#9B29F2"/>
<path d="M503.41 83.1668C500.524 84.8335 499.614 84.3085 499.08 84.0002C498.546 83.6918 498.647 82.5835 500.524 81.5002C502.4 80.4168 503.454 80.8752 503.988 81.1668L506.874 79.5002C505.872 78.9437 504.571 78.6009 503.185 78.5282C501.8 78.4555 500.414 78.6572 499.253 79.1002L497.637 78.1668L494.75 79.8335L496.323 80.7418C493.913 82.6835 494.331 84.5918 496.193 85.6668C497.81 86.6002 501.274 87.7335 506.297 84.8335C509.184 83.1668 510.165 83.7335 510.627 84.0002C511.089 84.2668 511.176 85.3502 509.184 86.5002C506.528 88.0335 505.056 87.4502 504.854 87.3335L501.967 89.0002C503.295 89.7668 506.6 90.5752 510.512 88.9335L512.071 89.8335L514.957 88.1668L513.398 87.2668C515.794 85.3168 515.376 83.4085 513.514 82.3335C511.897 81.4002 508.433 80.2668 503.41 83.1668V83.1668Z" fill="#9B29F2"/>
</g>
</g>
<path d="M663.239 175.944C661.706 176.829 660.32 177.181 659.082 177C657.863 176.808 656.902 176.061 656.2 174.76C655.498 173.437 655.147 171.549 655.147 169.096C655.147 166.643 655.498 164.36 656.2 162.248C656.902 160.115 657.863 158.248 659.082 156.648C660.32 155.037 661.706 153.789 663.239 152.904C664.791 152.008 666.177 151.656 667.396 151.848C668.616 152.04 669.576 152.797 670.278 154.12C670.999 155.411 671.359 157.283 671.359 159.736C671.359 162.189 670.999 164.488 670.278 166.632C669.576 168.744 668.616 170.6 667.396 172.2C666.177 173.8 664.791 175.048 663.239 175.944ZM663.239 172.328C664.145 171.805 664.93 171.075 665.595 170.136C666.26 169.176 666.777 168.003 667.147 166.616C667.535 165.219 667.729 163.624 667.729 161.832C667.729 160.019 667.535 158.648 667.147 157.72C666.777 156.76 666.26 156.195 665.595 156.024C664.93 155.832 664.145 155.997 663.239 156.52C662.371 157.021 661.595 157.757 660.911 158.728C660.246 159.667 659.72 160.835 659.332 162.232C658.962 163.597 658.777 165.187 658.777 167C658.777 168.792 658.962 170.168 659.332 171.128C659.72 172.077 660.246 172.648 660.911 172.84C661.595 173 662.371 172.829 663.239 172.328ZM673.517 164.602L673.517 161.722L683.077 141.77L686.93 139.546L677.507 159.418L675.706 159.818L691.087 150.938L691.087 154.458L673.517 164.602ZM684.158 163.546L684.158 158.458L684.269 154.874L684.269 150.362L687.65 148.41L687.65 161.53L684.158 163.546Z" fill="#ED6F1B"/>
<g filter="url(#filter2_d_59_830)">
<rect width="72" height="72" rx="16" transform="matrix(0.866025 -0.5 0.866026 0.5 647.5 204)" fill="white" shape-rendering="crispEdges"/>
<rect x="3.4641" y="-2.38419e-07" width="68" height="68" rx="14" transform="matrix(0.866025 -0.5 0.866026 0.5 647.964 205.732)" stroke="#ED6F1B" stroke-width="4" shape-rendering="crispEdges"/>
<g clip-path="url(#clip1_59_830)">
<path d="M715.627 207.333C718.811 205.495 718.811 202.505 715.627 200.667C712.443 198.828 707.264 198.828 704.08 200.667C700.896 202.505 700.896 205.495 704.08 207.333C707.264 209.172 712.443 209.172 715.627 207.333ZM706.967 202.333C708.532 201.43 711.176 201.43 712.74 202.333C714.305 203.237 714.305 204.763 712.74 205.667C711.176 206.57 708.532 206.57 706.967 205.667C705.402 204.763 705.402 203.237 706.967 202.333Z" fill="#ED6F1B"/>
<path d="M702.61 215.076L706.551 215.684C708.641 216.006 710.982 215.228 711.545 214.018L711.867 213.322C713.359 213.219 714.819 212.999 716.208 212.668L717.072 213.167C718.664 214.086 721.253 214.086 722.845 213.167L725.732 211.5C727.324 210.581 727.324 209.086 725.732 208.167L724.869 207.668C725.441 206.867 725.822 206.024 726.002 205.163L727.207 204.977C729.304 204.649 730.651 203.302 730.094 202.092L729.04 199.818C728.76 199.215 728.076 198.7 727.139 198.387C726.201 198.075 725.087 197.99 724.042 198.151L722.891 198.328C721.982 197.624 720.901 197 719.681 196.475L719.989 195.811C720.267 195.207 720.12 194.564 719.578 194.023C719.037 193.482 718.146 193.087 717.1 192.925L713.163 192.317C711.069 191.993 708.727 192.769 708.165 193.983L707.843 194.678C706.351 194.781 704.89 195.001 703.501 195.332L702.638 194.833C701.046 193.914 698.456 193.914 696.864 194.833L693.978 196.5C692.386 197.419 692.386 198.914 693.978 199.833L694.841 200.332C694.268 201.134 693.887 201.976 693.708 202.838L692.502 203.023C690.402 203.351 689.057 204.701 689.617 205.909L690.671 208.183C690.951 208.786 691.635 209.301 692.572 209.613C693.51 209.926 694.623 210.011 695.669 209.85L696.82 209.673C697.728 210.377 698.809 211.001 700.028 211.525L699.721 212.189C699.442 212.793 699.59 213.436 700.132 213.977C700.674 214.519 701.565 214.914 702.61 215.076V215.076ZM703.43 210.006C702.617 209.724 701.866 209.387 701.195 209C700.528 208.615 699.942 208.18 699.451 207.71C699.223 207.491 698.877 207.32 698.466 207.224C698.055 207.128 697.601 207.112 697.173 207.178L694.614 207.573L693.559 205.3L696.167 204.898C696.593 204.832 696.97 204.688 697.242 204.489C697.514 204.289 697.667 204.043 697.677 203.789C697.725 202.689 698.211 201.61 699.099 200.637C699.304 200.414 699.38 200.159 699.316 199.909C699.251 199.66 699.05 199.429 698.741 199.25L696.864 198.167L699.751 196.5L701.628 197.583C701.937 197.762 702.337 197.878 702.769 197.915C703.202 197.953 703.643 197.909 704.029 197.79C705.716 197.278 707.584 196.997 709.49 196.969C709.93 196.963 710.354 196.875 710.7 196.718C711.046 196.561 711.295 196.343 711.409 196.098L712.106 194.593L716.045 195.201L715.36 196.678C715.245 196.926 715.273 197.188 715.439 197.425C715.605 197.662 715.901 197.862 716.281 197.993C717.095 198.277 717.848 198.615 718.515 199C719.18 199.384 719.766 199.819 720.257 200.291C720.486 200.51 720.832 200.681 721.243 200.776C721.654 200.872 722.108 200.888 722.536 200.822L725.094 200.427L726.149 202.699L723.542 203.103C723.117 203.168 722.739 203.311 722.467 203.511C722.195 203.711 722.042 203.957 722.033 204.211C721.985 205.311 721.498 206.39 720.611 207.363C720.405 207.586 720.329 207.841 720.394 208.091C720.458 208.34 720.66 208.571 720.969 208.75L722.848 209.832L719.958 211.5L718.082 210.417C717.773 210.238 717.372 210.122 716.94 210.085C716.508 210.048 716.066 210.091 715.68 210.21C713.993 210.722 712.125 211.003 710.22 211.031C709.779 211.036 709.354 211.124 709.007 211.281C708.661 211.439 708.413 211.657 708.302 211.903L707.606 213.408L703.667 212.801L704.35 211.322C704.465 211.074 704.437 210.812 704.271 210.575C704.106 210.338 703.81 210.138 703.43 210.006V210.006Z" fill="#ED6F1B"/>
</g>
</g>
<path d="M869.239 54.444C867.706 55.3293 866.32 55.6813 865.082 55.5C863.863 55.308 862.902 54.5613 862.2 53.26C861.498 51.9373 861.147 50.0493 861.147 47.596C861.147 45.1427 861.498 42.86 862.2 40.748C862.902 38.6147 863.863 36.748 865.082 35.148C866.32 33.5373 867.706 32.2893 869.239 31.404C870.791 30.508 872.177 30.156 873.396 30.348C874.616 30.54 875.576 31.2973 876.278 32.62C876.999 33.9107 877.359 35.7827 877.359 38.236C877.359 40.6893 876.999 42.988 876.278 45.132C875.576 47.244 874.616 49.1 873.396 50.7C872.177 52.3 870.791 53.548 869.239 54.444ZM869.239 50.828C870.145 50.3053 870.93 49.5747 871.595 48.636C872.26 47.676 872.777 46.5027 873.147 45.116C873.535 43.7187 873.729 42.124 873.729 40.332C873.729 38.5187 873.535 37.148 873.147 36.22C872.777 35.26 872.26 34.6947 871.595 34.524C870.93 34.332 870.145 34.4973 869.239 35.02C868.371 35.5213 867.595 36.2573 866.911 37.228C866.246 38.1667 865.72 39.3347 865.332 40.732C864.962 42.0973 864.777 43.6867 864.777 45.5C864.777 47.292 864.962 48.668 865.332 49.628C865.72 50.5773 866.246 51.148 866.911 51.34C867.595 51.5 868.371 51.3293 869.239 50.828ZM886.223 44.6384C884.856 45.4277 883.516 45.977 882.205 46.2864C880.911 46.5637 879.821 46.553 878.935 46.2544L880.459 42.1424C881.161 42.3984 882.011 42.441 883.008 42.2704C884.025 42.089 885.078 41.6837 886.168 41.0544C887.442 40.3184 888.44 39.433 889.161 38.3984C889.9 37.353 890.269 36.3077 890.269 35.2624C890.269 34.5584 890.112 34.0304 889.798 33.6784C889.502 33.3157 888.967 33.2197 888.191 33.3904C887.433 33.5504 886.389 34.0144 885.059 34.7824L880.376 37.4864L881.373 24.7184L892.763 18.1424L892.763 21.6304L882.704 27.4384L884.588 24.3664L883.84 33.9184L881.955 33.0544L885.863 30.7984C887.784 29.689 889.327 29.097 890.491 29.0224C891.673 28.9157 892.532 29.2304 893.068 29.9664C893.622 30.6704 893.9 31.6837 893.9 33.0064C893.9 34.3077 893.622 35.6624 893.068 37.0704C892.514 38.4784 891.664 39.8437 890.519 41.1664C889.392 42.4784 887.96 43.6357 886.223 44.6384Z" fill="#27547D"/>
<g filter="url(#filter3_d_59_830)">
<rect width="72" height="72" rx="16" transform="matrix(0.866025 -0.5 0.866026 0.5 853.5 84)" fill="white" shape-rendering="crispEdges"/>
<rect x="3.4641" y="-2.38419e-07" width="68" height="68" rx="14" transform="matrix(0.866025 -0.5 0.866026 0.5 853.964 85.7321)" stroke="#27547D" stroke-width="4" shape-rendering="crispEdges"/>
<g clip-path="url(#clip2_59_830)">
<path d="M897.09 86.5L912.967 77.3333L915.854 79L899.977 88.1667L897.09 86.5ZM902.863 89.8333L918.74 80.6667L921.627 82.3333L905.75 91.5L902.863 89.8333ZM908.637 93.1667L918.74 87.3333L921.627 89L911.524 94.8333L908.637 93.1667ZM926.81 78.1608L926.797 85.32L923.069 85.3208L923.071 87.6783L930.879 87.6767L930.892 78.1642L926.81 78.1608Z" fill="#27547D"/>
</g>
</g>
<path d="M259.239 174.444C257.706 175.329 256.32 175.681 255.082 175.5C253.863 175.308 252.902 174.561 252.2 173.26C251.498 171.937 251.147 170.049 251.147 167.596C251.147 165.143 251.498 162.86 252.2 160.748C252.902 158.615 253.863 156.748 255.082 155.148C256.32 153.537 257.706 152.289 259.239 151.404C260.791 150.508 262.177 150.156 263.396 150.348C264.616 150.54 265.576 151.297 266.278 152.62C266.999 153.911 267.359 155.783 267.359 158.236C267.359 160.689 266.999 162.988 266.278 165.132C265.576 167.244 264.616 169.1 263.396 170.7C262.177 172.3 260.791 173.548 259.239 174.444ZM259.239 170.828C260.145 170.305 260.93 169.575 261.595 168.636C262.26 167.676 262.777 166.503 263.147 165.116C263.535 163.719 263.729 162.124 263.729 160.332C263.729 158.519 263.535 157.148 263.147 156.22C262.777 155.26 262.26 154.695 261.595 154.524C260.93 154.332 260.145 154.497 259.239 155.02C258.371 155.521 257.595 156.257 256.911 157.228C256.246 158.167 255.72 159.335 255.332 160.732C254.962 162.097 254.777 163.687 254.777 165.5C254.777 167.292 254.962 168.668 255.332 169.628C255.72 170.577 256.246 171.148 256.911 171.34C257.595 171.5 258.371 171.329 259.239 170.828ZM269.517 168.19L269.517 165.406L277.221 152.51C277.868 151.433 278.348 150.537 278.662 149.822C278.977 149.107 279.18 148.499 279.272 147.998C279.383 147.465 279.438 146.995 279.438 146.59C279.438 145.566 279.134 144.953 278.524 144.75C277.914 144.526 277.018 144.755 275.836 145.438C274.894 145.982 274.034 146.67 273.258 147.502C272.501 148.323 271.845 149.289 271.291 150.398L268.769 149.614C269.526 148.003 270.543 146.51 271.817 145.134C273.111 143.726 274.552 142.563 276.141 141.646C277.545 140.835 278.764 140.398 279.799 140.334C280.852 140.238 281.655 140.51 282.21 141.15C282.782 141.779 283.069 142.755 283.069 144.078C283.069 144.803 282.986 145.577 282.819 146.398C282.653 147.198 282.339 148.126 281.877 149.182C281.415 150.238 280.741 151.513 279.854 153.006L273.231 164.094L272.482 162.958L283.817 156.414L283.817 159.934L269.517 168.19Z" fill="#60AA00"/>
<g filter="url(#filter4_d_59_830)">
<rect width="72" height="72" rx="16" transform="matrix(0.866025 -0.5 0.866026 0.5 242.5 204)" fill="white" shape-rendering="crispEdges"/>
<rect x="3.4641" y="-2.38419e-07" width="68" height="68" rx="14" transform="matrix(0.866025 -0.5 0.866026 0.5 242.964 205.732)" stroke="#60AA00" stroke-width="4" shape-rendering="crispEdges"/>
<g clip-path="url(#clip3_59_830)">
<path d="M301.967 189L278.873 202.333C277.281 203.253 277.281 204.747 278.873 205.667L296.194 215.667C297.786 216.586 300.375 216.586 301.967 215.667L306.297 213.167L311.734 216.306L315.357 207.936L325.061 202.333C326.653 201.414 326.653 199.919 325.061 199L307.741 189C306.149 188.081 303.559 188.081 301.967 189ZM322.174 200.667L311.671 206.731L309.52 211.694L306.297 209.833L299.08 214L281.76 204L304.854 190.667L322.174 200.667Z" fill="#60AA00"/>
<path d="M294.75 204.833L306.297 198.167L309.184 199.833L297.637 206.5L294.75 204.833Z" fill="#60AA00"/>
</g>
</g>
<defs>
<filter id="filter0_d_59_830" x="-7.5" y="24" width="204.707" height="152" filterUnits="userSpaceOnUse" color-interpolation-filters="sRGB">
<feFlood flood-opacity="0" result="BackgroundImageFix"/>
<feColorMatrix in="SourceAlpha" type="matrix" values="0 0 0 0 0 0 0 0 0 0 0 0 0 0 0 0 0 0 127 0" result="hardAlpha"/>
<feOffset dy="16"/>
<feGaussianBlur stdDeviation="20"/>
<feComposite in2="hardAlpha" operator="out"/>
<feColorMatrix type="matrix" values="0 0 0 0 0.0980392 0 0 0 0 0.788235 0 0 0 0 0.988235 0 0 0 0.5 0"/>
<feBlend mode="normal" in2="BackgroundImageFix" result="effect1_dropShadow_59_830"/>
<feBlend mode="normal" in="SourceGraphic" in2="effect1_dropShadow_59_830" result="shape"/>
</filter>
<filter id="filter1_d_59_830" x="402.5" y="24" width="204.707" height="152" filterUnits="userSpaceOnUse" color-interpolation-filters="sRGB">
<feFlood flood-opacity="0" result="BackgroundImageFix"/>
<feColorMatrix in="SourceAlpha" type="matrix" values="0 0 0 0 0 0 0 0 0 0 0 0 0 0 0 0 0 0 127 0" result="hardAlpha"/>
<feOffset dy="16"/>
<feGaussianBlur stdDeviation="20"/>
<feComposite in2="hardAlpha" operator="out"/>
<feColorMatrix type="matrix" values="0 0 0 0 0.607843 0 0 0 0 0.160784 0 0 0 0 0.94902 0 0 0 0.5 0"/>
<feBlend mode="normal" in2="BackgroundImageFix" result="effect1_dropShadow_59_830"/>
<feBlend mode="normal" in="SourceGraphic" in2="effect1_dropShadow_59_830" result="shape"/>
</filter>
<filter id="filter2_d_59_830" x="607.5" y="144" width="204.707" height="152" filterUnits="userSpaceOnUse" color-interpolation-filters="sRGB">
<feFlood flood-opacity="0" result="BackgroundImageFix"/>
<feColorMatrix in="SourceAlpha" type="matrix" values="0 0 0 0 0 0 0 0 0 0 0 0 0 0 0 0 0 0 127 0" result="hardAlpha"/>
<feOffset dy="16"/>
<feGaussianBlur stdDeviation="20"/>
<feComposite in2="hardAlpha" operator="out"/>
<feColorMatrix type="matrix" values="0 0 0 0 0.929412 0 0 0 0 0.435294 0 0 0 0 0.105882 0 0 0 0.5 0"/>
<feBlend mode="normal" in2="BackgroundImageFix" result="effect1_dropShadow_59_830"/>
<feBlend mode="normal" in="SourceGraphic" in2="effect1_dropShadow_59_830" result="shape"/>
</filter>
<filter id="filter3_d_59_830" x="813.5" y="24" width="204.707" height="152" filterUnits="userSpaceOnUse" color-interpolation-filters="sRGB">
<feFlood flood-opacity="0" result="BackgroundImageFix"/>
<feColorMatrix in="SourceAlpha" type="matrix" values="0 0 0 0 0 0 0 0 0 0 0 0 0 0 0 0 0 0 127 0" result="hardAlpha"/>
<feOffset dy="16"/>
<feGaussianBlur stdDeviation="20"/>
<feComposite in2="hardAlpha" operator="out"/>
<feColorMatrix type="matrix" values="0 0 0 0 0.152941 0 0 0 0 0.329412 0 0 0 0 0.490196 0 0 0 0.5 0"/>
<feBlend mode="normal" in2="BackgroundImageFix" result="effect1_dropShadow_59_830"/>
<feBlend mode="normal" in="SourceGraphic" in2="effect1_dropShadow_59_830" result="shape"/>
</filter>
<filter id="filter4_d_59_830" x="202.5" y="144" width="204.707" height="152" filterUnits="userSpaceOnUse" color-interpolation-filters="sRGB">
<feFlood flood-opacity="0" result="BackgroundImageFix"/>
<feColorMatrix in="SourceAlpha" type="matrix" values="0 0 0 0 0 0 0 0 0 0 0 0 0 0 0 0 0 0 127 0" result="hardAlpha"/>
<feOffset dy="16"/>
<feGaussianBlur stdDeviation="20"/>
<feComposite in2="hardAlpha" operator="out"/>
<feColorMatrix type="matrix" values="0 0 0 0 0.376471 0 0 0 0 0.666667 0 0 0 0 0 0 0 0 0.5 0"/>
<feBlend mode="normal" in2="BackgroundImageFix" result="effect1_dropShadow_59_830"/>
<feBlend mode="normal" in="SourceGraphic" in2="effect1_dropShadow_59_830" result="shape"/>
</filter>
<clipPath id="clip0_59_830">
<rect width="40" height="40" fill="white" transform="matrix(0.866025 -0.5 0.866026 0.5 470.213 84)"/>
</clipPath>
<clipPath id="clip1_59_830">
<rect width="40" height="40" fill="white" transform="matrix(0.866025 -0.5 0.866026 0.5 675.213 204)"/>
</clipPath>
<clipPath id="clip2_59_830">
<rect width="40" height="40" fill="white" transform="matrix(0.866025 -0.5 0.866026 0.5 881.213 84)"/>
</clipPath>
<clipPath id="clip3_59_830">
<rect width="40" height="40" fill="white" transform="matrix(0.866025 -0.5 0.866026 0.5 270.213 204)"/>
</clipPath>
</defs>
</svg>
