<?xml version="1.0" encoding="UTF-8" standalone="no" ?>
<!DOCTYPE svg PUBLIC "-//W3C//DTD SVG 1.1//EN" "http://www.w3.org/Graphics/SVG/1.1/DTD/svg11.dtd">
<svg xmlns="http://www.w3.org/2000/svg" xmlns:xlink="http://www.w3.org/1999/xlink" version="1.1" width="1080" height="1080" viewBox="0.05 344.35 1080 1080" xml:space="preserve">
<desc>Created with Fabric.js 5.2.4</desc>
<defs>
</defs>
<g transform="matrix(1 0 0 1 540 540)" id="87095e5f-55ef-4d38-85b8-7c40e184518d"  >
<rect style="stroke: none; stroke-width: 1; stroke-dasharray: none; stroke-linecap: butt; stroke-dashoffset: 0; stroke-linejoin: miter; stroke-miterlimit: 4; fill: rgb(255,255,255); fill-rule: nonzero; opacity: 1; visibility: hidden;" vector-effect="non-scaling-stroke"  x="-540" y="-540" rx="0" ry="0" width="1080" height="1080" />
</g>
<g transform="matrix(1 0 0 1 540 540)" id="cfad0a06-86fe-4cd5-8655-5a1ffd198b7a"  >
</g>
<g transform="matrix(0.85 -0.53 0.88 0.47 247.04 485.09)"  >
<rect style="stroke: none; stroke-width: 1; stroke-dasharray: none; stroke-linecap: butt; stroke-dashoffset: 0; stroke-linejoin: miter; stroke-miterlimit: 4; fill: rgb(241,243,249); fill-rule: nonzero; opacity: 1;" vector-effect="non-scaling-stroke"  x="-6" y="-100" rx="0" ry="0" width="12" height="200" />
</g>
<g transform="matrix(0.85 -0.53 0.88 0.47 651.04 481.09)"  >
<rect style="stroke: none; stroke-width: 1; stroke-dasharray: none; stroke-linecap: butt; stroke-dashoffset: 0; stroke-linejoin: miter; stroke-miterlimit: 4; fill: rgb(241,243,249); fill-rule: nonzero; opacity: 1;" vector-effect="non-scaling-stroke"  x="-6" y="-100" rx="0" ry="0" width="12" height="200" />
</g>
<g transform="matrix(0.85 0.53 -0.88 0.47 450.15 475.45)"  >
<rect style="stroke: none; stroke-width: 1; stroke-dasharray: none; stroke-linecap: butt; stroke-dashoffset: 0; stroke-linejoin: miter; stroke-miterlimit: 4; fill: rgb(241,243,249); fill-rule: nonzero; opacity: 1;" vector-effect="non-scaling-stroke"  x="-6" y="-100" rx="0" ry="0" width="12" height="200" />
</g>
<g transform="matrix(0.85 0.53 -0.88 0.47 854.15 479.45)"  >
<rect style="stroke: none; stroke-width: 1; stroke-dasharray: none; stroke-linecap: butt; stroke-dashoffset: 0; stroke-linejoin: miter; stroke-miterlimit: 4; fill: rgb(241,243,249); fill-rule: nonzero; opacity: 1;" vector-effect="non-scaling-stroke"  x="-6" y="-100" rx="0" ry="0" width="12" height="200" />
</g>
<g transform="matrix(1 0 0 1 98.91 373.86)"  >
<path style="stroke: none; stroke-width: 1; stroke-dasharray: none; stroke-linecap: butt; stroke-dashoffset: 0; stroke-linejoin: miter; stroke-miterlimit: 4; fill: rgb(25,201,252); fill-rule: nonzero; opacity: 1;" vector-effect="non-scaling-stroke"  transform=" translate(-53.4, -36.91)" d="M 49.1361 52.9174 C 47.6345 53.8557 46.262 54.2559 45.0186 54.1179 C 43.7933 53.9685 42.8071 53.2559 42.06 51.9798 C 41.3122 50.6825 40.8955 48.8079 40.8099 46.356 C 40.7243 43.9042 40.9954 41.6106 41.6234 39.4754 C 42.2505 37.3189 43.1455 35.4198 44.3083 33.7783 C 45.4892 32.1254 46.8304 30.8298 48.332 29.8915 C 49.8517 28.9419 51.2243 28.5417 52.4496 28.691 C 53.6749 28.8404 54.6615 29.5637 55.4092 30.8611 C 56.1744 32.1258 56.5998 33.9841 56.6854 36.4359 C 56.771 38.8878 56.4912 41.1976 55.8459 43.3654 C 55.218 45.5007 54.3226 47.3891 53.1598 49.0306 C 51.9971 50.6722 50.6558 51.9678 49.1361 52.9174 Z M 49.0099 49.3036 C 49.8964 48.7497 50.6556 47.9921 51.2876 47.0308 C 51.9188 46.0481 52.3948 44.8575 52.7157 43.4587 C 53.0547 42.0487 53.1929 40.4483 53.1304 38.6573 C 53.0671 36.8451 52.8254 35.4821 52.4052 34.5682 C 52.0025 33.6216 51.4657 33.0747 50.7951 32.9274 C 50.1237 32.7587 49.3447 32.9513 48.4582 33.5053 C 47.6079 34.0366 46.8581 34.7992 46.2088 35.7932 C 45.5769 36.7545 45.0914 37.9401 44.7525 39.3502 C 44.4308 40.7276 44.3016 42.3224 44.3649 44.1346 C 44.4275 45.9255 44.6601 47.2942 45.0629 48.2407 C 45.4838 49.176 46.0299 49.7279 46.7013 49.8966 C 47.3901 50.0326 48.1596 49.835 49.0099 49.3036 Z M 62.4732 44.2567 L 61.7473 23.4694 L 63.36 24.3896 L 57.7969 27.8659 L 57.6751 24.38 L 65.2194 19.6659 L 66.0011 42.0522 L 62.4732 44.2567 Z" stroke-linecap="round" />
</g>
<g transform="matrix(0.88 -0.47 0.85 0.53 139.89 423.26)"  >
<rect style="stroke: none; stroke-width: 1; stroke-dasharray: none; stroke-linecap: butt; stroke-dashoffset: 0; stroke-linejoin: miter; stroke-miterlimit: 4; fill: rgb(255,255,255); fill-rule: nonzero; opacity: 1;" vector-effect="non-scaling-stroke"  x="-36" y="-36" rx="16" ry="16" width="72" height="72" />
</g>
<g transform="matrix(0.88 -0.47 0.85 0.53 139.9 423.25)"  >
<rect style="stroke: rgb(25,201,252); stroke-width: 4; stroke-dasharray: none; stroke-linecap: butt; stroke-dashoffset: 0; stroke-linejoin: miter; stroke-miterlimit: 4; fill: none; fill-rule: nonzero; opacity: 1;" vector-effect="non-scaling-stroke"  x="-34" y="-34" rx="14" ry="14" width="68" height="68" />
</g>
<g transform="matrix(1 0 0 1 139.82 423.13)"  >
<path style="stroke: none; stroke-width: 1; stroke-dasharray: none; stroke-linecap: butt; stroke-dashoffset: 0; stroke-linejoin: miter; stroke-miterlimit: 4; fill: rgb(25,201,252); fill-rule: nonzero; opacity: 1;" vector-effect="non-scaling-stroke"  transform=" translate(-94.32, -86.18)" d="M 98.5554 88.8256 C 100.994 87.5292 101.072 85.292 98.7299 83.8287 C 96.3881 82.3653 92.5131 82.23 90.0749 83.5264 C 87.6367 84.8228 87.5586 87.06 89.9004 88.5234 C 92.2422 89.9867 96.1172 90.122 98.5554 88.8256 Z" stroke-linecap="round" />
</g>
<g transform="matrix(1 0 0 1 139.82 423.13)"  >
<path style="stroke: none; stroke-width: 1; stroke-dasharray: none; stroke-linecap: butt; stroke-dashoffset: 0; stroke-linejoin: miter; stroke-miterlimit: 4; fill: rgb(25,201,252); fill-rule: nonzero; opacity: 1;" vector-effect="non-scaling-stroke"  transform=" translate(-94.32, -86.18)" d="M 84.5766 78.3888 L 81.6522 76.5615 L 78.7091 78.1264 L 81.6334 79.9537 C 79.3608 81.5289 78.0881 83.5172 78.0151 85.6067 C 77.9422 87.6962 79.073 89.7685 81.2303 91.4983 L 78.1856 93.1172 L 81.0124 94.8836 L 84.0571 93.2647 C 86.8745 94.6437 90.3669 95.4604 93.9861 95.5868 C 97.6053 95.7132 101.146 95.142 104.053 93.963 L 106.977 95.7904 L 109.92 94.2254 L 106.996 92.3981 C 109.269 90.8231 110.542 88.8347 110.615 86.7451 C 110.688 84.6556 109.557 82.5832 107.399 80.8535 L 110.444 79.2346 L 107.617 77.4682 L 104.572 79.0871 C 101.755 77.7084 98.2625 76.8917 94.6434 76.7653 C 91.0243 76.6389 87.4834 77.21 84.5766 78.3888 Z M 102.795 91.4751 C 97.9258 94.0642 90.1623 93.7931 85.4853 90.8706 C 80.8083 87.9481 80.9648 83.4659 85.8343 80.8767 C 90.7037 78.2876 98.4673 78.5587 103.144 81.4812 C 107.821 84.4037 107.665 88.886 102.795 91.4751 Z" stroke-linecap="round" />
</g>
<g transform="matrix(1 0 0 1 510.14 374.14)"  >
<path style="stroke: none; stroke-width: 1; stroke-dasharray: none; stroke-linecap: butt; stroke-dashoffset: 0; stroke-linejoin: miter; stroke-miterlimit: 4; fill: rgb(155,41,242); fill-rule: nonzero; opacity: 1;" vector-effect="non-scaling-stroke"  transform=" translate(-464.62, -37.18)" d="M 457.136 55.0371 C 455.635 55.9754 454.262 56.3755 453.019 56.2375 C 451.793 56.0882 450.807 55.3755 450.06 54.0994 C 449.312 52.8021 448.896 50.9275 448.81 48.4756 C 448.724 46.0238 448.995 43.7303 449.623 41.5951 C 450.251 39.4385 451.146 37.5395 452.308 35.8979 C 453.489 34.245 454.83 32.9494 456.332 32.0111 C 457.852 31.0615 459.224 30.6613 460.45 30.8107 C 461.675 30.96 462.661 31.6833 463.409 32.9807 C 464.174 34.2454 464.6 36.1037 464.685 38.5556 C 464.771 41.0074 464.491 43.3172 463.846 45.4851 C 463.218 47.6203 462.323 49.5087 461.16 51.1503 C 459.997 52.7918 458.656 54.0874 457.136 55.0371 Z M 457.01 51.4233 C 457.896 50.8693 458.656 50.1117 459.288 49.1504 C 459.919 48.1678 460.395 46.9771 460.716 45.5784 C 461.055 44.1684 461.193 42.5679 461.13 40.777 C 461.067 38.9647 460.825 37.6017 460.405 36.6878 C 460.002 35.7413 459.466 35.1943 458.795 35.047 C 458.124 34.8783 457.345 35.071 456.458 35.6249 C 455.608 36.1562 454.858 36.9189 454.209 37.9128 C 453.577 38.8741 453.091 40.0598 452.752 41.4698 C 452.431 42.8472 452.302 44.442 452.365 46.2542 C 452.427 48.0451 452.66 49.4138 453.063 50.3604 C 453.484 51.2956 454.03 51.8475 454.701 52.0162 C 455.39 52.1522 456.16 51.9546 457.01 51.4233 Z M 473.177 45.0138 C 471.838 45.8503 470.518 46.4461 469.218 46.801 C 467.936 47.1233 466.846 47.1507 465.949 46.8832 L 467.356 42.7035 C 468.067 42.9348 468.917 42.9478 469.909 42.7424 C 470.9 42.5371 471.929 42.1009 472.996 41.4339 C 474.263 40.6425 475.238 39.7279 475.923 38.6901 C 476.607 37.6309 476.931 36.579 476.894 35.5343 C 476.859 34.5109 476.505 33.9042 475.832 33.7142 C 475.16 33.5242 474.101 33.8814 472.653 34.7858 L 470.916 35.8711 L 470.817 33.0248 L 475.979 22.022 L 476.495 23.3007 L 466.291 29.6767 L 466.169 26.1909 L 479.114 18.1022 L 479.211 20.8845 L 474.049 31.8873 L 472.159 31.7612 L 473.218 31.0999 C 475.552 29.6415 477.319 29.1689 478.52 29.682 C 479.738 30.1624 480.381 31.362 480.448 33.2809 C 480.492 34.5388 480.261 35.8703 479.756 37.2755 C 479.25 38.6806 478.448 40.0641 477.35 41.426 C 476.268 42.7552 474.877 43.9511 473.177 45.0138 Z" stroke-linecap="round" />
</g>
<g transform="matrix(0.88 -0.47 0.85 0.53 547.89 423.26)"  >
<rect style="stroke: none; stroke-width: 1; stroke-dasharray: none; stroke-linecap: butt; stroke-dashoffset: 0; stroke-linejoin: miter; stroke-miterlimit: 4; fill: rgb(255,255,255); fill-rule: nonzero; opacity: 1;" vector-effect="non-scaling-stroke"  x="-36" y="-36" rx="16" ry="16" width="72" height="72" />
</g>
<g transform="matrix(0.88 -0.47 0.85 0.53 547.9 423.25)"  >
<rect style="stroke: rgb(155,41,242); stroke-width: 4; stroke-dasharray: none; stroke-linecap: butt; stroke-dashoffset: 0; stroke-linejoin: miter; stroke-miterlimit: 4; fill: none; fill-rule: nonzero; opacity: 1;" vector-effect="non-scaling-stroke"  x="-34" y="-34" rx="14" ry="14" width="68" height="68" />
</g>
<g transform="matrix(1 0 0 1 547.82 423.13)" clip-path="url(#CLIPPATH_111)"  >
<clipPath id="CLIPPATH_111" >
	<rect transform="matrix(0.88 -0.47 0.85 0.53 0.04 0.06)" id="clip0_453_8795" x="-20" y="-20" rx="0" ry="0" width="40" height="40" />
</clipPath>
<path style="stroke: none; stroke-width: 1; stroke-dasharray: none; stroke-linecap: butt; stroke-dashoffset: 0; stroke-linejoin: miter; stroke-miterlimit: 4; fill: rgb(155,41,242); fill-rule: nonzero; opacity: 1;" vector-effect="non-scaling-stroke"  transform=" translate(-502.31, -86.18)" d="M 488.181 77.3439 C 485.27 78.8915 483.254 80.9223 482.387 83.1795 C 481.52 85.4367 481.841 87.8189 483.31 90.025 C 484.779 92.231 487.33 94.1618 490.639 95.5731 C 493.949 96.9845 497.869 97.8129 501.903 97.9538 C 505.938 98.0947 509.906 97.5417 513.306 96.3647 C 516.706 95.1877 519.385 93.4395 521.005 91.3413 C 522.624 89.2431 523.11 86.889 522.403 84.5768 C 521.696 82.2647 519.826 80.0982 517.031 78.3514 C 515.174 77.1916 512.956 76.2455 510.502 75.5671 C 508.047 74.8888 505.405 74.4915 502.726 74.398 C 500.047 74.3044 497.384 74.5164 494.888 75.0219 C 492.392 75.5274 490.113 76.3164 488.181 77.3439 Z M 513.622 93.2415 C 511.294 94.4795 508.354 95.2754 505.176 95.5284 C 501.997 95.7814 498.723 95.4802 495.765 94.6629 C 492.808 93.8456 490.302 92.5489 488.562 90.9368 C 486.823 89.3247 485.93 87.4696 485.995 85.606 C 486.06 83.7424 487.081 81.9542 488.928 80.4673 C 490.775 78.9804 493.366 77.8617 496.373 77.2527 C 499.38 76.6437 502.668 76.5717 505.821 77.0458 C 508.974 77.5199 511.851 78.5189 514.087 79.9163 C 517.086 81.7902 518.722 84.2469 518.635 86.7458 C 518.548 89.2448 516.744 91.5813 513.622 93.2415 Z" stroke-linecap="round" />
</g>
<g transform="matrix(1 0 0 1 547.83 423.13)" clip-path="url(#CLIPPATH_112)"  >
<clipPath id="CLIPPATH_112" >
	<rect transform="matrix(0.88 -0.47 0.85 0.53 0.04 0.06)" id="clip0_453_8795" x="-20" y="-20" rx="0" ry="0" width="40" height="40" />
</clipPath>
<path style="stroke: none; stroke-width: 1; stroke-dasharray: none; stroke-linecap: butt; stroke-dashoffset: 0; stroke-linejoin: miter; stroke-miterlimit: 4; fill: rgb(155,41,242); fill-rule: nonzero; opacity: 1;" vector-effect="non-scaling-stroke"  transform=" translate(-502.32, -86.18)" d="M 500.903 85.2928 C 497.959 86.8577 497.069 86.3013 496.546 85.9745 C 496.023 85.6477 496.163 84.5436 498.076 83.5264 C 499.989 82.5092 501.026 83.004 501.549 83.3141 L 504.493 81.7492 C 503.51 81.1581 502.222 80.7702 500.84 80.6492 C 499.458 80.5282 498.065 80.6814 496.89 81.0835 L 495.307 80.0943 L 492.364 81.6592 L 493.905 82.6219 C 491.428 84.4783 491.78 86.4001 493.603 87.5394 C 495.186 88.5286 498.608 89.7821 503.729 87.0592 C 506.673 85.4943 507.634 86.0948 508.086 86.3775 C 508.538 86.6601 508.587 87.7458 506.556 88.8256 C 503.849 90.2653 502.398 89.6309 502.2 89.5073 L 499.257 91.0722 C 500.557 91.8847 503.832 92.8079 507.798 91.3038 L 509.325 92.2576 L 512.268 90.6927 L 510.742 89.7389 C 513.204 87.8737 512.852 85.9519 511.029 84.8126 C 509.446 83.8234 506.024 82.5698 500.903 85.2928 Z" stroke-linecap="round" />
</g>
<g transform="matrix(1 0 0 1 720.02 496.12)"  >
<path style="stroke: none; stroke-width: 1; stroke-dasharray: none; stroke-linecap: butt; stroke-dashoffset: 0; stroke-linejoin: miter; stroke-miterlimit: 4; fill: rgb(237,111,27); fill-rule: nonzero; opacity: 1;" vector-effect="non-scaling-stroke"  transform=" translate(-674.51, -159.17)" d="M 665.136 177.157 C 663.635 178.095 662.262 178.495 661.019 178.357 C 659.793 178.208 658.807 177.495 658.06 176.219 C 657.312 174.922 656.896 173.047 656.81 170.595 C 656.724 168.143 656.995 165.85 657.623 163.715 C 658.251 161.558 659.146 159.659 660.308 158.018 C 661.489 156.365 662.83 155.069 664.332 154.131 C 665.852 153.181 667.224 152.781 668.45 152.93 C 669.675 153.08 670.661 153.803 671.409 155.1 C 672.174 156.365 672.6 158.223 672.685 160.675 C 672.771 163.127 672.491 165.437 671.846 167.605 C 671.218 169.74 670.323 171.628 669.16 173.27 C 667.997 174.911 666.656 176.207 665.136 177.157 Z M 665.01 173.543 C 665.896 172.989 666.656 172.231 667.288 171.27 C 667.919 170.287 668.395 169.097 668.716 167.698 C 669.055 166.288 669.193 164.688 669.13 162.897 C 669.067 161.084 668.825 159.721 668.405 158.807 C 668.002 157.861 667.466 157.314 666.795 157.167 C 666.124 156.998 665.345 157.191 664.458 157.745 C 663.608 158.276 662.858 159.038 662.209 160.032 C 661.577 160.994 661.091 162.179 660.752 163.589 C 660.431 164.967 660.302 166.562 660.365 168.374 C 660.427 170.165 660.66 171.533 661.063 172.48 C 661.484 173.415 662.03 173.967 662.701 174.136 C 663.39 174.272 664.16 174.074 665.01 173.543 Z M 675.011 165.463 L 674.911 162.585 L 683.77 142.312 L 687.542 139.954 L 678.819 160.143 L 677.032 160.606 L 692.094 151.194 L 692.217 154.712 L 675.011 165.463 Z M 685.61 164.037 L 685.432 158.952 L 685.418 155.366 L 685.26 150.857 L 688.571 148.788 L 689.029 161.9 L 685.61 164.037 Z" stroke-linecap="round" />
</g>
<g transform="matrix(0.88 -0.47 0.85 0.53 755.89 543.26)"  >
<rect style="stroke: none; stroke-width: 1; stroke-dasharray: none; stroke-linecap: butt; stroke-dashoffset: 0; stroke-linejoin: miter; stroke-miterlimit: 4; fill: rgb(255,255,255); fill-rule: nonzero; opacity: 1;" vector-effect="non-scaling-stroke"  x="-36" y="-36" rx="16" ry="16" width="72" height="72" />
</g>
<g transform="matrix(0.88 -0.47 0.85 0.53 755.9 543.25)"  >
<rect style="stroke: rgb(237,111,27); stroke-width: 4; stroke-dasharray: none; stroke-linecap: butt; stroke-dashoffset: 0; stroke-linejoin: miter; stroke-miterlimit: 4; fill: none; fill-rule: nonzero; opacity: 1;" vector-effect="non-scaling-stroke"  x="-34" y="-34" rx="14" ry="14" width="68" height="68" />
</g>
<g transform="matrix(1 0 0 1 755.83 543.13)" clip-path="url(#CLIPPATH_113)"  >
<clipPath id="CLIPPATH_113" >
	<rect transform="matrix(0.88 -0.47 0.85 0.53 0.04 0.06)" id="clip1_453_8795" x="-20" y="-20" rx="0" ry="0" width="40" height="40" />
</clipPath>
<path style="stroke: none; stroke-width: 1; stroke-dasharray: none; stroke-linecap: butt; stroke-dashoffset: 0; stroke-linejoin: miter; stroke-miterlimit: 4; fill: rgb(237,111,27); fill-rule: nonzero; opacity: 1;" vector-effect="non-scaling-stroke"  transform=" translate(-710.32, -206.18)" d="M 715.969 209.709 C 719.215 207.983 719.32 204.994 716.202 203.046 C 713.084 201.098 707.908 200.917 704.662 202.643 C 701.415 204.369 701.311 207.357 704.429 209.306 C 707.547 211.254 712.723 211.435 715.969 209.709 Z M 707.489 204.41 C 709.084 203.561 711.726 203.654 713.259 204.611 C 714.791 205.568 714.737 207.094 713.142 207.942 C 711.547 208.791 708.904 208.698 707.372 207.741 C 705.84 206.783 705.893 205.258 707.489 204.41 Z" stroke-linecap="round" />
</g>
<g transform="matrix(1 0 0 1 755.83 543.13)" clip-path="url(#CLIPPATH_114)"  >
<clipPath id="CLIPPATH_114" >
	<rect transform="matrix(0.88 -0.47 0.85 0.53 0.04 0.06)" id="clip1_453_8795" x="-20" y="-20" rx="0" ry="0" width="40" height="40" />
</clipPath>
<path style="stroke: none; stroke-width: 1; stroke-dasharray: none; stroke-linecap: butt; stroke-dashoffset: 0; stroke-linejoin: miter; stroke-miterlimit: 4; fill: rgb(237,111,27); fill-rule: nonzero; opacity: 1;" vector-effect="non-scaling-stroke"  transform=" translate(-710.32, -206.18)" d="M 702.689 216.992 L 706.605 217.738 C 708.683 218.132 711.05 217.436 711.655 216.246 L 712.001 215.562 C 713.495 215.512 714.963 215.343 716.362 215.061 L 717.208 215.589 C 718.767 216.563 721.354 216.654 722.978 215.791 L 725.921 214.226 C 727.544 213.363 727.596 211.869 726.037 210.894 L 725.192 210.366 C 725.792 209.585 726.202 208.756 726.412 207.901 L 727.623 207.758 C 729.73 207.504 731.123 206.204 730.608 204.975 L 729.635 202.667 C 729.375 202.054 728.71 201.515 727.784 201.17 C 726.858 200.825 725.748 200.701 724.697 200.826 L 723.542 200.963 C 722.657 200.228 721.598 199.566 720.398 198.999 L 720.729 198.346 C 721.028 197.752 720.903 197.104 720.381 196.545 C 719.858 195.985 718.982 195.559 717.943 195.361 L 714.029 194.615 C 711.947 194.218 709.58 194.913 708.975 196.106 L 708.63 196.79 C 707.135 196.841 705.667 197.009 704.268 197.291 L 703.422 196.763 C 701.863 195.789 699.276 195.699 697.652 196.562 L 694.709 198.127 C 693.086 198.99 693.034 200.484 694.593 201.458 L 695.438 201.986 C 694.838 202.767 694.428 203.597 694.218 204.451 L 693.007 204.594 C 690.897 204.848 689.506 206.151 690.023 207.378 L 690.997 209.687 C 691.256 210.3 691.922 210.838 692.847 211.183 C 693.773 211.528 694.883 211.652 695.934 211.527 L 697.09 211.39 C 697.973 212.126 699.032 212.787 700.232 213.354 L 699.901 214.007 C 699.602 214.601 699.727 215.248 700.25 215.808 C 700.772 216.368 701.649 216.794 702.689 216.992 Z M 703.685 211.954 C 702.882 211.644 702.143 211.281 701.486 210.871 C 700.833 210.463 700.262 210.008 699.788 209.521 C 699.568 209.293 699.228 209.111 698.821 209.001 C 698.414 208.89 697.961 208.859 697.53 208.91 L 694.959 209.215 L 693.984 206.907 L 696.605 206.595 C 697.032 206.545 697.414 206.414 697.693 206.224 C 697.972 206.034 698.133 205.794 698.152 205.54 C 698.238 204.443 698.762 203.382 699.683 202.439 C 699.896 202.224 699.981 201.972 699.925 201.72 C 699.869 201.468 699.676 201.23 699.374 201.041 L 697.536 199.893 L 700.479 198.328 L 702.317 199.476 C 702.62 199.665 703.016 199.796 703.446 199.848 C 703.877 199.9 704.32 199.872 704.71 199.767 C 706.414 199.314 708.291 199.098 710.195 199.137 C 710.635 199.146 711.063 199.073 711.414 198.928 C 711.766 198.783 712.022 198.574 712.144 198.333 L 712.894 196.854 L 716.809 197.598 L 716.072 199.051 C 715.949 199.294 715.968 199.557 716.126 199.8 C 716.283 200.043 716.572 200.252 716.947 200.397 C 717.75 200.709 718.492 201.073 719.145 201.481 C 719.796 201.889 720.367 202.344 720.841 202.832 C 721.061 203.059 721.401 203.242 721.809 203.352 C 722.216 203.462 722.669 203.494 723.1 203.442 L 725.67 203.137 L 726.645 205.445 L 724.026 205.757 C 723.598 205.807 723.216 205.938 722.937 206.128 C 722.658 206.318 722.497 206.558 722.478 206.812 C 722.392 207.909 721.868 208.971 720.947 209.913 C 720.734 210.128 720.649 210.38 720.705 210.632 C 720.761 210.884 720.954 211.122 721.256 211.311 L 723.097 212.458 L 720.151 214.024 L 718.313 212.876 C 718.011 212.687 717.615 212.557 717.184 212.504 C 716.753 212.452 716.31 212.481 715.92 212.586 C 714.217 213.038 712.34 213.254 710.435 213.215 C 709.994 213.205 709.566 213.278 709.214 213.423 C 708.863 213.569 708.607 213.778 708.487 214.02 L 707.739 215.5 L 703.824 214.756 L 704.558 213.301 C 704.681 213.058 704.663 212.795 704.506 212.552 C 704.348 212.309 704.06 212.099 703.685 211.954 Z" stroke-linecap="round" />
</g>
<g transform="matrix(1 0 0 1 922 374.32)"  >
<path style="stroke: none; stroke-width: 1; stroke-dasharray: none; stroke-linecap: butt; stroke-dashoffset: 0; stroke-linejoin: miter; stroke-miterlimit: 4; fill: rgb(39,84,125); fill-rule: nonzero; opacity: 1;" vector-effect="non-scaling-stroke"  transform=" translate(-876.49, -37.37)" d="M 868.71 55.302 C 867.209 56.2403 865.836 56.6404 864.593 56.5024 C 863.367 56.3531 862.381 55.6404 861.634 54.3643 C 860.886 53.067 860.47 51.1924 860.384 48.7405 C 860.299 46.2887 860.57 43.9952 861.198 41.86 C 861.825 39.7034 862.72 37.8044 863.883 36.1628 C 865.063 34.5099 866.405 33.2143 867.906 32.276 C 869.426 31.3264 870.798 30.9262 872.024 31.0756 C 873.249 31.2249 874.236 31.9482 874.983 33.2456 C 875.749 34.5103 876.174 36.3686 876.26 38.8204 C 876.345 41.2723 876.065 43.5821 875.42 45.75 C 874.792 47.8852 873.897 49.7736 872.734 51.4152 C 871.571 53.0567 870.23 54.3523 868.71 55.302 Z M 868.584 51.6882 C 869.471 51.1342 870.23 50.3766 870.862 49.4153 C 871.493 48.4327 871.969 47.242 872.29 45.8433 C 872.629 44.4332 872.767 42.8328 872.705 41.0419 C 872.641 39.2296 872.4 37.8666 871.979 36.9527 C 871.577 36.0062 871.04 35.4592 870.369 35.3119 C 869.698 35.1432 868.919 35.3358 868.032 35.8898 C 867.182 36.4211 866.432 37.1838 865.783 38.1777 C 865.151 39.139 864.666 40.3247 864.327 41.7347 C 864.005 43.1121 863.876 44.7069 863.939 46.5191 C 864.002 48.31 864.234 49.6787 864.637 50.6253 C 865.058 51.5605 865.604 52.1124 866.276 52.2811 C 866.964 52.4171 867.734 52.2195 868.584 51.6882 Z M 885.342 44.9096 C 884.003 45.7461 882.683 46.3419 881.383 46.6968 C 880.1 47.0191 879.011 47.0465 878.114 46.779 L 879.494 42.6163 C 880.204 42.8476 881.055 42.8606 882.046 42.6552 C 883.055 42.4385 884.094 41.9967 885.161 41.3297 C 886.409 40.5497 887.376 39.63 888.06 38.5709 C 888.762 37.5004 889.094 36.4428 889.058 35.3981 C 889.033 34.6945 888.858 34.1723 888.532 33.8315 C 888.224 33.4794 887.685 33.4021 886.915 33.5998 C 886.164 33.7861 885.137 34.2862 883.834 35.1002 L 879.248 37.966 L 879.8 25.171 L 890.953 18.2015 L 891.075 21.6873 L 881.224 27.8429 L 883 24.707 L 882.586 34.2793 L 880.672 33.4816 L 884.499 31.0906 C 886.38 29.9149 887.901 29.2694 889.062 29.1541 C 890.24 29.0063 891.109 29.2908 891.67 30.0076 C 892.249 30.6919 892.561 31.6949 892.607 33.0168 C 892.653 34.3173 892.423 35.6808 891.918 37.1073 C 891.414 38.5338 890.612 39.9279 889.513 41.2898 C 888.433 42.6403 887.042 43.8469 885.342 44.9096 Z" stroke-linecap="round" />
</g>
<g transform="matrix(0.88 -0.47 0.85 0.53 959.89 423.26)"  >
<rect style="stroke: none; stroke-width: 1; stroke-dasharray: none; stroke-linecap: butt; stroke-dashoffset: 0; stroke-linejoin: miter; stroke-miterlimit: 4; fill: rgb(255,255,255); fill-rule: nonzero; opacity: 1;" vector-effect="non-scaling-stroke"  x="-36" y="-36" rx="16" ry="16" width="72" height="72" />
</g>
<g transform="matrix(0.88 -0.47 0.85 0.53 959.9 423.25)"  >
<rect style="stroke: rgb(39,84,125); stroke-width: 4; stroke-dasharray: none; stroke-linecap: butt; stroke-dashoffset: 0; stroke-linejoin: miter; stroke-miterlimit: 4; fill: none; fill-rule: nonzero; opacity: 1;" vector-effect="non-scaling-stroke"  x="-34" y="-34" rx="14" ry="14" width="68" height="68" />
</g>
<g transform="matrix(1 0 0 1 958.03 425.09)" clip-path="url(#CLIPPATH_115)"  >
<clipPath id="CLIPPATH_115" >
	<rect transform="matrix(0.88 -0.47 0.85 0.53 1.85 -1.89)" id="clip2_453_8795" x="-20" y="-20" rx="0" ry="0" width="40" height="40" />
</clipPath>
<path style="stroke: none; stroke-width: 1; stroke-dasharray: none; stroke-linecap: butt; stroke-dashoffset: 0; stroke-linejoin: miter; stroke-miterlimit: 4; fill: rgb(39,84,125); fill-rule: nonzero; opacity: 1;" vector-effect="non-scaling-stroke"  transform=" translate(-912.51, -88.13)" d="M 895.475 88.0195 L 911.662 79.4126 L 914.489 81.1789 L 898.301 89.7859 L 895.475 88.0195 Z M 901.128 91.5523 L 917.316 82.9453 L 920.142 84.7117 L 903.955 93.3187 L 901.128 91.5523 Z M 906.782 95.0851 L 917.083 89.608 L 919.91 91.3743 L 909.609 96.8515 L 906.782 95.0851 Z M 925.468 80.7227 L 925.205 87.877 L 921.479 87.7477 L 921.398 90.1039 L 929.202 90.3747 L 929.547 80.8685 L 925.468 80.7227 Z" stroke-linecap="round" />
</g>
<g transform="matrix(1 0 0 1 312.08 495.44)"  >
<path style="stroke: none; stroke-width: 1; stroke-dasharray: none; stroke-linecap: butt; stroke-dashoffset: 0; stroke-linejoin: miter; stroke-miterlimit: 4; fill: rgb(96,170,0); fill-rule: nonzero; opacity: 1;" vector-effect="non-scaling-stroke"  transform=" translate(-266.57, -158.49)" d="M 258.71 175.302 C 257.209 176.24 255.836 176.64 254.593 176.502 C 253.367 176.353 252.381 175.64 251.634 174.364 C 250.886 173.067 250.47 171.192 250.384 168.741 C 250.299 166.289 250.57 163.995 251.198 161.86 C 251.825 159.703 252.72 157.804 253.883 156.163 C 255.063 154.51 256.405 153.214 257.906 152.276 C 259.426 151.326 260.798 150.926 262.024 151.076 C 263.249 151.225 264.236 151.948 264.983 153.246 C 265.749 154.51 266.174 156.369 266.26 158.82 C 266.345 161.272 266.065 163.582 265.42 165.75 C 264.792 167.885 263.897 169.774 262.734 171.415 C 261.571 173.057 260.23 174.352 258.71 175.302 Z M 258.584 171.688 C 259.471 171.134 260.23 170.377 260.862 169.415 C 261.493 168.433 261.969 167.242 262.29 165.843 C 262.629 164.433 262.767 162.833 262.705 161.042 C 262.641 159.23 262.4 157.867 261.979 156.953 C 261.577 156.006 261.04 155.459 260.369 155.312 C 259.698 155.143 258.919 155.336 258.032 155.89 C 257.182 156.421 256.432 157.184 255.783 158.178 C 255.151 159.139 254.666 160.325 254.327 161.735 C 254.005 163.112 253.876 164.707 253.939 166.519 C 254.002 168.31 254.234 169.679 254.637 170.625 C 255.058 171.56 255.604 172.112 256.276 172.281 C 256.964 172.417 257.734 172.219 258.584 171.688 Z M 268.764 168.693 L 268.667 165.911 L 275.916 152.754 C 276.525 151.655 276.973 150.742 277.262 150.017 C 277.551 149.292 277.733 148.677 277.808 148.173 C 277.9 147.636 277.939 147.165 277.925 146.76 C 277.889 145.737 277.563 145.134 276.947 144.953 C 276.33 144.75 275.442 145.011 274.284 145.734 C 273.362 146.311 272.527 147.029 271.781 147.887 C 271.052 148.734 270.431 149.722 269.915 150.85 L 267.368 150.154 C 268.069 148.518 269.032 146.99 270.258 145.571 C 271.501 144.119 272.901 142.906 274.457 141.934 C 275.832 141.075 277.035 140.595 278.067 140.495 C 279.116 140.363 279.929 140.606 280.505 141.227 C 281.099 141.836 281.419 142.801 281.466 144.123 C 281.491 144.848 281.435 145.623 281.297 146.45 C 281.159 147.255 280.878 148.194 280.453 149.265 C 280.028 150.337 279.399 151.634 278.564 153.158 L 272.332 164.47 L 271.545 163.361 L 282.644 156.425 L 282.767 159.943 L 268.764 168.693 Z" stroke-linecap="round" />
</g>
<g transform="matrix(0.88 -0.47 0.85 0.53 351.89 543.26)"  >
<rect style="stroke: none; stroke-width: 1; stroke-dasharray: none; stroke-linecap: butt; stroke-dashoffset: 0; stroke-linejoin: miter; stroke-miterlimit: 4; fill: rgb(255,255,255); fill-rule: nonzero; opacity: 1;" vector-effect="non-scaling-stroke"  x="-36" y="-36" rx="16" ry="16" width="72" height="72" />
</g>
<g transform="matrix(0.88 -0.47 0.85 0.53 351.9 543.25)"  >
<rect style="stroke: rgb(96,170,0); stroke-width: 4; stroke-dasharray: none; stroke-linecap: butt; stroke-dashoffset: 0; stroke-linejoin: miter; stroke-miterlimit: 4; fill: none; fill-rule: nonzero; opacity: 1;" vector-effect="non-scaling-stroke"  x="-34" y="-34" rx="14" ry="14" width="68" height="68" />
</g>
<g transform="matrix(1 0 0 1 349 541.56)" clip-path="url(#CLIPPATH_116)"  >
<clipPath id="CLIPPATH_116" >
	<rect transform="matrix(0.88 -0.47 0.85 0.53 2.87 1.64)" id="clip3_453_8795" x="-20" y="-20" rx="0" ry="0" width="40" height="40" />
</clipPath>
<path style="stroke: none; stroke-width: 1; stroke-dasharray: none; stroke-linecap: butt; stroke-dashoffset: 0; stroke-linejoin: miter; stroke-miterlimit: 4; fill: rgb(96,170,0); fill-rule: nonzero; opacity: 1;" vector-effect="non-scaling-stroke"  transform=" translate(-303.49, -204.6)" d="M 303.953 191.084 L 280.408 203.604 C 278.785 204.467 278.733 205.961 280.292 206.935 L 297.253 217.533 C 298.812 218.507 301.399 218.598 303.023 217.735 L 307.437 215.387 L 312.762 218.714 L 316.674 210.476 L 326.568 205.215 C 328.191 204.352 328.243 202.858 326.684 201.884 L 309.723 191.286 C 308.164 190.312 305.576 190.221 303.953 191.084 Z M 323.741 203.449 L 313.032 209.143 L 310.71 214.028 L 307.554 212.056 L 300.196 215.968 L 283.235 205.37 L 306.78 192.851 L 323.741 203.449 Z" stroke-linecap="round" />
</g>
<g transform="matrix(1 0 0 1 349 541.36)" clip-path="url(#CLIPPATH_117)"  >
<clipPath id="CLIPPATH_117" >
	<rect transform="matrix(0.88 -0.47 0.85 0.53 2.87 1.83)" id="clip3_453_8795" x="-20" y="-20" rx="0" ry="0" width="40" height="40" />
</clipPath>
<path style="stroke: none; stroke-width: 1; stroke-dasharray: none; stroke-linecap: butt; stroke-dashoffset: 0; stroke-linejoin: miter; stroke-miterlimit: 4; fill: rgb(96,170,0); fill-rule: nonzero; opacity: 1;" vector-effect="non-scaling-stroke"  transform=" translate(-303.49, -204.41)" d="M 296.189 206.656 L 307.962 200.397 L 310.789 202.163 L 299.016 208.423 L 296.189 206.656 Z" stroke-linecap="round" />
</g>
</svg>