<svg width="100" height="100" viewBox="0 0 100 100" fill="none" xmlns="http://www.w3.org/2000/svg">
<rect x="2" y="2" width="96" height="96" rx="48" fill="white"/>
<rect x="2" y="2" width="96" height="96" rx="48" stroke="#F19F1F" stroke-width="4"/>
<g clip-path="url(#clip0_595_17265)">
<path d="M45.4 74V68.6667H66.2V49.7333C66.2 44.5333 64.4346 40.1227 60.9038 36.5013C57.373 32.88 53.0717 31.0684 48 31.0667C42.93 31.0667 38.6296 32.8782 35.0988 36.5013C31.568 40.1244 29.8017 44.5351 29.8 49.7333V66H22V50.7333H24.6L24.795 47.2C25.1417 44.1778 25.9979 41.3778 27.3638 38.8C28.7297 36.2222 30.4413 33.9778 32.4988 32.0667C34.5563 30.1556 36.9171 28.6667 39.5812 27.6C42.2453 26.5333 45.0516 26 48 26C50.9467 26 53.7417 26.5333 56.385 27.6C59.0283 28.6667 61.39 30.1449 63.47 32.0347C65.55 33.9227 67.2617 36.1556 68.605 38.7333C69.9483 41.3111 70.815 44.1111 71.205 47.1333L71.4 50.7333H74V66H71.4V74H45.4ZM40.2 55.3333C39.4633 55.3333 38.8463 55.0773 38.3488 54.5653C37.8513 54.0533 37.6017 53.4204 37.6 52.6667C37.6 51.9111 37.8496 51.2782 38.3488 50.768C38.848 50.2578 39.4651 50.0018 40.2 50C40.9367 50 41.5546 50.256 42.0538 50.768C42.553 51.28 42.8017 51.9129 42.8 52.6667C42.8 53.4222 42.5504 54.056 42.0512 54.568C41.552 55.08 40.9349 55.3351 40.2 55.3333ZM55.8 55.3333C55.0633 55.3333 54.4463 55.0773 53.9488 54.5653C53.4513 54.0533 53.2017 53.4204 53.2 52.6667C53.2 51.9111 53.4496 51.2782 53.9488 50.768C54.448 50.2578 55.0651 50.0018 55.8 50C56.5367 50 57.1546 50.256 57.6538 50.768C58.153 51.28 58.4017 51.9129 58.4 52.6667C58.4 53.4222 58.1504 54.056 57.6512 54.568C57.152 55.08 56.5349 55.3351 55.8 55.3333ZM32.465 51.2C32.1617 46.4889 33.5483 42.4444 36.625 39.0667C39.7017 35.6889 43.5367 34 48.13 34C51.9867 34 55.3779 35.2551 58.3038 37.7653C61.2297 40.2756 62.9951 43.488 63.6 47.4027C59.6567 47.3564 56.0279 46.2667 52.7138 44.1333C49.3997 42 46.8534 39.1111 45.075 35.4667C44.3817 39.0222 42.9196 42.1893 40.6888 44.968C38.458 47.7467 35.7167 49.824 32.465 51.2Z" fill="#F19F1F"/>
</g>
<defs>
<clipPath id="clip0_595_17265">
<rect width="64" height="64" fill="white" transform="translate(18 18)"/>
</clipPath>
</defs>
</svg>
