<svg width="100" height="100" viewBox="0 0 100 100" fill="none" xmlns="http://www.w3.org/2000/svg">
<rect x="2" y="2" width="96" height="96" rx="48" fill="white"/>
<rect x="2" y="2" width="96" height="96" rx="48" stroke="#F19F1F" stroke-width="4"/>
<path d="M30 60V58H26V60C26 63.713 27.475 67.274 30.1005 69.8995C32.726 72.525 36.287 74 40 74H46V70H40C37.3478 70 34.8043 68.9464 32.9289 67.0711C31.0536 65.1957 30 62.6522 30 60ZM66 40V42H70V40C70 36.287 68.525 32.726 65.8995 30.1005C63.274 27.475 59.713 26 56 26H50V30H56C57.3132 30 58.6136 30.2587 59.8268 30.7612C61.0401 31.2638 62.1425 32.0004 63.0711 32.9289C63.9997 33.8575 64.7362 34.9599 65.2388 36.1732C65.7413 37.3864 66 38.6868 66 40ZM40 40H28C26.4087 40 24.8826 40.6321 23.7574 41.7574C22.6321 42.8826 22 44.4087 22 46V50H26V46C26 45.4696 26.2107 44.9609 26.5858 44.5858C26.9609 44.2107 27.4696 44 28 44H40C40.5304 44 41.0391 44.2107 41.4142 44.5858C41.7893 44.9609 42 45.4696 42 46V50H46V46C46 44.4087 45.3679 42.8826 44.2426 41.7574C43.1174 40.6321 41.5913 40 40 40ZM34 38C35.5823 38 37.129 37.5308 38.4446 36.6518C39.7602 35.7727 40.7855 34.5233 41.391 33.0615C41.9965 31.5997 42.155 29.9911 41.8463 28.4393C41.5376 26.8874 40.7757 25.462 39.6569 24.3431C38.538 23.2243 37.1126 22.4624 35.5607 22.1537C34.0089 21.845 32.4003 22.0035 30.9385 22.609C29.4767 23.2145 28.2273 24.2398 27.3482 25.5554C26.4692 26.871 26 28.4178 26 30C26 32.1217 26.8429 34.1566 28.3431 35.6569C29.8434 37.1572 31.8783 38 34 38ZM34 26C34.7911 26 35.5645 26.2346 36.2223 26.6741C36.8801 27.1137 37.3928 27.7384 37.6955 28.4693C37.9983 29.2002 38.0775 30.0044 37.9231 30.7804C37.7688 31.5563 37.3878 32.269 36.8284 32.8284C36.269 33.3878 35.5563 33.7688 34.7804 33.9231C34.0044 34.0775 33.2002 33.9983 32.4693 33.6955C31.7384 33.3928 31.1136 32.8801 30.6741 32.2223C30.2346 31.5645 30 30.7911 30 30C30 28.9391 30.4214 27.9217 31.1716 27.1716C31.9217 26.4214 32.9391 26 34 26ZM72 68H60C58.4087 68 56.8826 68.6321 55.7574 69.7574C54.6321 70.8826 54 72.4087 54 74V78H58V74C58 73.4696 58.2107 72.9609 58.5858 72.5858C58.9609 72.2107 59.4696 72 60 72H72C72.5304 72 73.0391 72.2107 73.4142 72.5858C73.7893 72.9609 74 73.4696 74 74V78H78V74C78 72.4087 77.3679 70.8826 76.2426 69.7574C75.1174 68.6321 73.5913 68 72 68ZM58 58C58 59.5823 58.4692 61.129 59.3482 62.4446C60.2273 63.7602 61.4767 64.7855 62.9385 65.391C64.4003 65.9965 66.0089 66.155 67.5607 65.8463C69.1126 65.5376 70.538 64.7757 71.6569 63.6569C72.7757 62.538 73.5376 61.1126 73.8463 59.5607C74.155 58.0089 73.9965 56.4004 73.391 54.9385C72.7855 53.4767 71.7602 52.2273 70.4446 51.3483C69.129 50.4692 67.5822 50 66 50C63.8783 50 61.8434 50.8429 60.3431 52.3432C58.8429 53.8434 58 55.8783 58 58ZM70 58C70 58.7911 69.7654 59.5645 69.3259 60.2223C68.8864 60.8801 68.2616 61.3928 67.5307 61.6955C66.7998 61.9983 65.9956 62.0775 65.2196 61.9231C64.4437 61.7688 63.731 61.3878 63.1716 60.8284C62.6122 60.269 62.2312 59.5563 62.0769 58.7804C61.9225 58.0044 62.0017 57.2002 62.3045 56.4693C62.6072 55.7384 63.1199 55.1137 63.7777 54.6741C64.4355 54.2346 65.2089 54 66 54C67.0609 54 68.0783 54.4214 68.8284 55.1716C69.5786 55.9217 70 56.9391 70 58Z" fill="#F19F1F"/>
</svg>
