<svg width="100" height="100" viewBox="0 0 100 100" fill="none" xmlns="http://www.w3.org/2000/svg">
<rect x="2" y="2" width="96" height="96" rx="48" fill="white"/>
<rect x="2" y="2" width="96" height="96" rx="48" stroke="#F19F1F" stroke-width="4"/>
<path d="M50 24C64.352 24 76 35.648 76 50C76 64.352 64.352 76 50 76C35.648 76 24 64.352 24 50C24 35.648 35.648 24 50 24ZM50 70.8C61.5102 70.8 70.8 61.5102 70.8 50C70.8 38.4898 61.5102 29.2 50 29.2C47.2675 29.1966 44.5613 29.7323 42.0361 30.7763C39.511 31.8204 37.2167 33.3524 35.2845 35.2845C33.3524 37.2167 31.8204 39.511 30.7763 42.0361C29.7323 44.5613 29.1966 47.2675 29.2 50C29.2 61.5102 38.4898 70.8 50 70.8ZM50 65.6C41.368 65.6 34.4 58.632 34.4 50C34.4 41.368 41.368 34.4 50 34.4C58.632 34.4 65.6 41.368 65.6 50C65.6 58.632 58.632 65.6 50 65.6ZM50 44.8C47.14 44.8 44.8 47.14 44.8 50C44.8 52.86 47.14 55.2 50 55.2C52.86 55.2 55.2 52.86 55.2 50C55.2 47.14 52.86 44.8 50 44.8Z" fill="#F19F1F"/>
</svg>
