<svg width="348" height="306" viewBox="0 0 348 306" fill="none" xmlns="http://www.w3.org/2000/svg">
<mask id="path-1-inside-1_51_545" fill="white">
<path d="M330.526 0.473859C339.915 0.473861 347.568 8.08968 347.123 17.468C344.411 74.7226 328.023 130.585 299.227 180.336C270.432 230.087 230.156 272.124 181.861 302.996C173.95 308.053 163.535 305.21 158.858 297.069L3.10449 25.9419C-3.4061 14.6086 4.77505 0.473819 17.8453 0.473821L330.526 0.473859Z"/>
</mask>
<g filter="url(#filter0_ii_51_545)">
<path d="M330.526 0.473859C339.915 0.473861 347.568 8.08968 347.123 17.468C344.411 74.7226 328.023 130.585 299.227 180.336C270.432 230.087 230.156 272.124 181.861 302.996C173.95 308.053 163.535 305.21 158.858 297.069L3.10449 25.9419C-3.4061 14.6086 4.77505 0.473819 17.8453 0.473821L330.526 0.473859Z" fill="#862AF9"/>
</g>
<path d="M330.526 0.473859C339.915 0.473861 347.568 8.08968 347.123 17.468C344.411 74.7226 328.023 130.585 299.227 180.336C270.432 230.087 230.156 272.124 181.861 302.996C173.95 308.053 163.535 305.21 158.858 297.069L3.10449 25.9419C-3.4061 14.6086 4.77505 0.473819 17.8453 0.473821L330.526 0.473859Z" stroke="white" stroke-width="12" mask="url(#path-1-inside-1_51_545)"/>
<defs>
<filter id="filter0_ii_51_545" x="0.819824" y="0.473816" width="354.913" height="313.634" filterUnits="userSpaceOnUse" color-interpolation-filters="sRGB">
<feFlood flood-opacity="0" result="BackgroundImageFix"/>
<feBlend mode="normal" in="SourceGraphic" in2="BackgroundImageFix" result="shape"/>
<feColorMatrix in="SourceAlpha" type="matrix" values="0 0 0 0 0 0 0 0 0 0 0 0 0 0 0 0 0 0 127 0" result="hardAlpha"/>
<feMorphology radius="8.59104" operator="erode" in="SourceAlpha" result="effect1_innerShadow_51_545"/>
<feOffset/>
<feGaussianBlur stdDeviation="28.6368"/>
<feComposite in2="hardAlpha" operator="arithmetic" k2="-1" k3="1"/>
<feColorMatrix type="matrix" values="0 0 0 0 0 0 0 0 0 0 0 0 0 0 0 0 0 0 0.25 0"/>
<feBlend mode="normal" in2="shape" result="effect1_innerShadow_51_545"/>
<feColorMatrix in="SourceAlpha" type="matrix" values="0 0 0 0 0 0 0 0 0 0 0 0 0 0 0 0 0 0 127 0" result="hardAlpha"/>
<feOffset dx="8.59104" dy="8.59104"/>
<feGaussianBlur stdDeviation="21.4776"/>
<feComposite in2="hardAlpha" operator="arithmetic" k2="-1" k3="1"/>
<feColorMatrix type="matrix" values="0 0 0 0 0 0 0 0 0 0 0 0 0 0 0 0 0 0 0.25 0"/>
<feBlend mode="normal" in2="effect1_innerShadow_51_545" result="effect2_innerShadow_51_545"/>
</filter>
</defs>
</svg>
