<svg width="348" height="306" viewBox="0 0 348 306" fill="none" xmlns="http://www.w3.org/2000/svg">
<mask id="path-1-inside-1_51_548" fill="white">
<path d="M330.526 0.473871C339.915 0.473871 347.568 8.08967 347.123 17.468C344.417 74.5893 328.099 130.327 299.425 179.994C270.752 229.66 230.642 271.663 182.528 302.569C174.628 307.643 164.206 304.824 159.511 296.693L3.19798 25.9744C-3.34591 14.6411 4.83319 0.47384 17.9201 0.473841L330.526 0.473871Z"/>
</mask>
<g filter="url(#filter0_ii_51_548)">
<path d="M330.526 0.473871C339.915 0.473871 347.568 8.08967 347.123 17.468C344.417 74.5893 328.099 130.327 299.425 179.994C270.752 229.66 230.642 271.663 182.528 302.569C174.628 307.643 164.206 304.824 159.511 296.693L3.19798 25.9744C-3.34591 14.6411 4.83319 0.47384 17.9201 0.473841L330.526 0.473871Z" fill="#4B5262"/>
</g>
<path d="M330.526 0.473871C339.915 0.473871 347.568 8.08967 347.123 17.468C344.417 74.5893 328.099 130.327 299.425 179.994C270.752 229.66 230.642 271.663 182.528 302.569C174.628 307.643 164.206 304.824 159.511 296.693L3.19798 25.9744C-3.34591 14.6411 4.83319 0.47384 17.9201 0.473841L330.526 0.473871Z" stroke="white" stroke-width="12" mask="url(#path-1-inside-1_51_548)"/>
<defs>
<filter id="filter0_ii_51_548" x="0.894775" y="0.473846" width="354.838" height="313.226" filterUnits="userSpaceOnUse" color-interpolation-filters="sRGB">
<feFlood flood-opacity="0" result="BackgroundImageFix"/>
<feBlend mode="normal" in="SourceGraphic" in2="BackgroundImageFix" result="shape"/>
<feColorMatrix in="SourceAlpha" type="matrix" values="0 0 0 0 0 0 0 0 0 0 0 0 0 0 0 0 0 0 127 0" result="hardAlpha"/>
<feMorphology radius="8.59104" operator="erode" in="SourceAlpha" result="effect1_innerShadow_51_548"/>
<feOffset/>
<feGaussianBlur stdDeviation="28.6368"/>
<feComposite in2="hardAlpha" operator="arithmetic" k2="-1" k3="1"/>
<feColorMatrix type="matrix" values="0 0 0 0 0 0 0 0 0 0 0 0 0 0 0 0 0 0 0.25 0"/>
<feBlend mode="normal" in2="shape" result="effect1_innerShadow_51_548"/>
<feColorMatrix in="SourceAlpha" type="matrix" values="0 0 0 0 0 0 0 0 0 0 0 0 0 0 0 0 0 0 127 0" result="hardAlpha"/>
<feOffset dx="8.59104" dy="8.59104"/>
<feGaussianBlur stdDeviation="21.4776"/>
<feComposite in2="hardAlpha" operator="arithmetic" k2="-1" k3="1"/>
<feColorMatrix type="matrix" values="0 0 0 0 0 0 0 0 0 0 0 0 0 0 0 0 0 0 0.25 0"/>
<feBlend mode="normal" in2="effect1_innerShadow_51_548" result="effect2_innerShadow_51_548"/>
</filter>
</defs>
</svg>
