<svg width="348" height="306" viewBox="0 0 348 306" fill="none" xmlns="http://www.w3.org/2000/svg">
<mask id="path-1-inside-1_51_549" fill="white">
<path d="M330.526 0.473859C339.915 0.473861 347.568 8.08966 347.123 17.468C344.417 74.5893 328.099 130.327 299.425 179.994C270.752 229.66 230.642 271.663 182.528 302.569C174.628 307.643 164.206 304.824 159.511 296.693L3.198 25.9744C-3.34589 14.641 4.83321 0.473819 17.9201 0.473821L330.526 0.473859Z"/>
</mask>
<g filter="url(#filter0_ii_51_549)">
<path d="M330.526 0.473859C339.915 0.473861 347.568 8.08966 347.123 17.468C344.417 74.5893 328.099 130.327 299.425 179.994C270.752 229.66 230.642 271.663 182.528 302.569C174.628 307.643 164.206 304.824 159.511 296.693L3.198 25.9744C-3.34589 14.641 4.83321 0.473819 17.9201 0.473821L330.526 0.473859Z" fill="#EE436A"/>
</g>
<path d="M330.526 0.473859C339.915 0.473861 347.568 8.08966 347.123 17.468C344.417 74.5893 328.099 130.327 299.425 179.994C270.752 229.66 230.642 271.663 182.528 302.569C174.628 307.643 164.206 304.824 159.511 296.693L3.198 25.9744C-3.34589 14.641 4.83321 0.473819 17.9201 0.473821L330.526 0.473859Z" stroke="white" stroke-width="12" mask="url(#path-1-inside-1_51_549)"/>
<defs>
<filter id="filter0_ii_51_549" x="0.894775" y="0.473816" width="354.838" height="313.226" filterUnits="userSpaceOnUse" color-interpolation-filters="sRGB">
<feFlood flood-opacity="0" result="BackgroundImageFix"/>
<feBlend mode="normal" in="SourceGraphic" in2="BackgroundImageFix" result="shape"/>
<feColorMatrix in="SourceAlpha" type="matrix" values="0 0 0 0 0 0 0 0 0 0 0 0 0 0 0 0 0 0 127 0" result="hardAlpha"/>
<feMorphology radius="8.59104" operator="erode" in="SourceAlpha" result="effect1_innerShadow_51_549"/>
<feOffset/>
<feGaussianBlur stdDeviation="28.6368"/>
<feComposite in2="hardAlpha" operator="arithmetic" k2="-1" k3="1"/>
<feColorMatrix type="matrix" values="0 0 0 0 0 0 0 0 0 0 0 0 0 0 0 0 0 0 0.25 0"/>
<feBlend mode="normal" in2="shape" result="effect1_innerShadow_51_549"/>
<feColorMatrix in="SourceAlpha" type="matrix" values="0 0 0 0 0 0 0 0 0 0 0 0 0 0 0 0 0 0 127 0" result="hardAlpha"/>
<feOffset dx="8.59104" dy="8.59104"/>
<feGaussianBlur stdDeviation="21.4776"/>
<feComposite in2="hardAlpha" operator="arithmetic" k2="-1" k3="1"/>
<feColorMatrix type="matrix" values="0 0 0 0 0 0 0 0 0 0 0 0 0 0 0 0 0 0 0.25 0"/>
<feBlend mode="normal" in2="effect1_innerShadow_51_549" result="effect2_innerShadow_51_549"/>
</filter>
</defs>
</svg>
