<svg width="56" height="56" viewBox="0 0 56 56" fill="none" xmlns="http://www.w3.org/2000/svg">
<path d="M15.7179 39.6667V40.2821H16.3333H39.67H40.2855L40.2854 39.6666L40.2821 16.3332L40.282 15.7179H39.6667H16.3333H15.7179V16.3333V39.6667ZM39.6667 13.6154C41.1651 13.6154 42.3846 14.8349 42.3846 16.3333V39.6667C42.3846 41.1651 41.1651 42.3846 39.6667 42.3846H16.3333C14.8349 42.3846 13.6154 41.1651 13.6154 39.6667V16.3333C13.6154 14.8349 14.8349 13.6154 16.3333 13.6154H39.6667Z" fill="#F19F1F" stroke="#F19F1F" stroke-width="1.23077"/>
<path d="M19.666 19.667H22.996V23.0003H19.666V19.667ZM26.3327 19.667H36.3327V23.0003H26.3327V19.667ZM19.666 26.3337H22.996V29.667H19.666V26.3337ZM26.3327 26.3337H36.3327V29.667H26.3327V26.3337ZM19.666 33.0003H22.996V36.3337H19.666V33.0003ZM26.3327 33.0003H36.3327V36.3337H26.3327V33.0003Z" fill="#F19F1F"/>
</svg>
