<svg width="56" height="56" viewBox="0 0 56 56" fill="none" xmlns="http://www.w3.org/2000/svg">
<path d="M18.4 44V40.4444L20 38.6667H15.2C14.32 38.6667 13.5669 38.3188 12.9408 37.6231C12.3147 36.9274 12.0011 36.0901 12 35.1111V15.5556C12 14.5778 12.3136 13.741 12.9408 13.0453C13.568 12.3496 14.3211 12.0012 15.2 12H40.8C41.68 12 42.4336 12.3484 43.0608 13.0453C43.688 13.7422 44.0011 14.579 44 15.5556V35.1111C44 36.0889 43.6869 36.9262 43.0608 37.6231C42.4347 38.32 41.6811 38.6679 40.8 38.6667H36L37.6 40.4444V44H18.4ZM15.2 35.1111H40.8V15.5556H15.2V35.1111Z" fill="#F19F1F"/>
</svg>
