<svg width="56" height="56" viewBox="0 0 56 56" fill="none" xmlns="http://www.w3.org/2000/svg">
<path d="M42.6667 36H37.3333C36.597 36 36 36.597 36 37.3333V42.6667C36 43.403 36.597 44 37.3333 44H42.6667C43.403 44 44 43.403 44 42.6667V37.3333C44 36.597 43.403 36 42.6667 36Z" stroke="#F19F1F" stroke-width="4" stroke-linecap="round" stroke-linejoin="round"/>
<path d="M18.6667 36H13.3333C12.597 36 12 36.597 12 37.3333V42.6667C12 43.403 12.597 44 13.3333 44H18.6667C19.403 44 20 43.403 20 42.6667V37.3333C20 36.597 19.403 36 18.6667 36Z" stroke="#F19F1F" stroke-width="4" stroke-linecap="round" stroke-linejoin="round"/>
<path d="M30.6667 12H25.3333C24.597 12 24 12.597 24 13.3333V18.6667C24 19.403 24.597 20 25.3333 20H30.6667C31.403 20 32 19.403 32 18.6667V13.3333C32 12.597 31.403 12 30.6667 12Z" stroke="#F19F1F" stroke-width="4" stroke-linecap="round" stroke-linejoin="round"/>
<path d="M16 32V27.5C16 27.1022 16.1806 26.7206 16.5021 26.4393C16.8236 26.158 17.2596 26 17.7143 26H38.2857C38.7404 26 39.1764 26.158 39.4979 26.4393C39.8194 26.7206 40 27.1022 40 27.5V32M28 26V20" stroke="#F19F1F" stroke-width="4" stroke-linecap="round" stroke-linejoin="round"/>
</svg>
