<svg width="56" height="56" viewBox="0 0 56 56" fill="none" xmlns="http://www.w3.org/2000/svg">
<path d="M30 16C31.8565 16 33.637 16.7375 34.9497 18.0503C36.2625 19.363 37 21.1435 37 23C37 24.8565 36.2625 26.637 34.9497 27.9497C33.637 29.2625 31.8565 30 30 30C28.1435 30 26.363 29.2625 25.0503 27.9497C23.7375 26.637 23 24.8565 23 23C23 21.1435 23.7375 19.363 25.0503 18.0503C26.363 16.7375 28.1435 16 30 16ZM30 19.5C29.0717 19.5 28.1815 19.8687 27.5251 20.5251C26.8687 21.1815 26.5 22.0717 26.5 23C26.5 23.9283 26.8687 24.8185 27.5251 25.4749C28.1815 26.1313 29.0717 26.5 30 26.5C30.9283 26.5 31.8185 26.1313 32.4749 25.4749C33.1313 24.8185 33.5 23.9283 33.5 23C33.5 22.0717 33.1313 21.1815 32.4749 20.5251C31.8185 19.8687 30.9283 19.5 30 19.5ZM30 31.75C34.6725 31.75 44 34.0775 44 38.75V44H16V38.75C16 34.0775 25.3275 31.75 30 31.75ZM30 35.075C24.8025 35.075 19.325 37.63 19.325 38.75V40.675H40.675V38.75C40.675 37.63 35.1975 35.075 30 35.075Z" fill="#F19F1F"/>
</svg>
