<svg width="56" height="56" viewBox="0 0 56 56" fill="none" xmlns="http://www.w3.org/2000/svg">
<path d="M43.7422 17.2548L43.744 17.2566C43.8418 17.3537 43.9195 17.4692 43.9723 17.5965C44.0252 17.7239 44.0523 17.8604 44.0519 17.9983V17.9997V39.6663C44.0519 41.1648 42.8325 42.3843 41.334 42.3843H14.6673C13.1689 42.3843 11.9494 41.1648 11.9494 39.6663L11.9494 17.9997L11.9494 17.9983C11.9491 17.8604 11.9761 17.7239 12.029 17.5965L11.467 17.3632L12.029 17.5965C12.0819 17.4692 12.1595 17.3537 12.2574 17.2566L12.2574 17.2566L12.2591 17.2548L17.2575 12.2565L17.2583 12.2557C17.3555 12.1581 17.4711 12.0807 17.5983 12.028C17.7256 11.9752 17.862 11.9482 17.9998 11.9484H18.0007L38.0007 11.9484L38.0015 11.9484C38.1393 11.9482 38.2757 11.9752 38.403 12.028C38.5303 12.0807 38.6458 12.1581 38.7431 12.2557L38.7438 12.2565L43.7422 17.2548ZM18.6907 14.051H18.4358L18.2555 14.2312L16.5888 15.8979L15.5383 16.9484H17.024H38.9773H40.463L39.4125 15.8979L37.7458 14.2312L37.5656 14.051H37.3107H18.6907ZM14.0519 39.6663V40.2817H14.6673H41.3373H41.9528L41.9527 39.6662L41.9494 19.6662L41.9493 19.051H41.334H14.6673H14.0519V19.6663V39.6663Z" fill="#F19F1F" stroke="#F19F1F" stroke-width="1.23077"/>
<path d="M31.3327 23H24.666V28H19.666L27.9993 36.3333L36.3327 28H31.3327V23Z" fill="#F19F1F"/>
</svg>
